<svg width="24" height="24" viewBox="0 0 24 24" fill="none" xmlns="http://www.w3.org/2000/svg">
    <path d="M4 6.6C4 5.71634 4.71634 5 5.6 5H18.4C19.2837 5 20 5.71634 20 6.6V8.2C20 8.79766 19.6723 9.31878 19.1868 9.5935C19.1955 9.6611 19.2 9.73003 19.2 9.8V17.8C19.2 18.6837 18.4837 19.4 17.6 19.4H6.4C5.51634 19.4 4.8 18.6837 4.8 17.8V9.8C4.8 9.73003 4.80449 9.6611 4.8132 9.5935C4.32769 9.31878 4 8.79766 4 8.2V6.6ZM18.4 8.2V6.6H5.6V8.2H18.4ZM6.4 9.8V17.8H17.6V9.8H6.4ZM8.8 12.2C8.8 11.7582 9.15817 11.4 9.6 11.4H14.4C14.8418 11.4 15.2 11.7582 15.2 12.2C15.2 12.6418 14.8418 13 14.4 13H9.6C9.15817 13 8.8 12.6418 8.8 12.2Z" fill="currentColor"/>
</svg>
