<svg width="24" height="24" viewBox="0 0 24 24" fill="none" xmlns="http://www.w3.org/2000/svg">
<path d="M14.8018 13.9053C15.0755 13.6316 15.5193 13.6316 15.793 13.9053C16.0667 14.179 16.0667 14.6228 15.793 14.8965L12.4947 18.1947C12.221 18.4684 11.7772 18.4684 11.5035 18.1947L8.20528 14.8965C7.93157 14.6228 7.93157 14.179 8.20528 13.9053C8.47899 13.6316 8.92276 13.6316 9.19647 13.9053L11.9117 16.6205C11.96 16.6688 12.0383 16.6688 12.0866 16.6205L14.8018 13.9053Z" fill="currentColor"/>
<path d="M11.5035 5.20528C11.635 5.07384 11.8132 5 11.9991 5C12.185 5 12.3633 5.07384 12.4947 5.20528L15.793 8.50353C16.0667 8.77724 16.0667 9.22101 15.793 9.49472C15.5193 9.76843 15.0755 9.76843 14.8018 9.49472L12.0866 6.77953C12.0383 6.73122 11.96 6.73122 11.9117 6.77953L9.19647 9.49472C8.92276 9.76843 8.47899 9.76843 8.20528 9.49472C7.93157 9.22101 7.93157 8.77724 8.20528 8.50353L11.5035 5.20528Z"  fill="currentColor"/>
</svg>
