<svg width="24" height="24" viewBox="0 0 24 24" fill="none" xmlns="http://www.w3.org/2000/svg">
    <path d="M10.0742 5.0609C10.3268 4.43873 10.9372 4 11.65 4C12.3628 4 12.9732 4.43873 13.2258 5.0609C15.7471 5.75161 17.6 8.05943 17.6 10.8V14.7926L19.1572 17.1285C19.3311 17.3893 19.3473 17.7247 19.1994 18.0011C19.0515 18.2775 18.7635 18.45 18.45 18.45H14.5949C14.3887 19.8917 13.1488 21 11.65 21C10.1513 21 8.91135 19.8917 8.70513 18.45H4.85C4.53653 18.45 4.24849 18.2775 4.10058 18.0011C3.95266 17.7247 3.96887 17.3893 4.14276 17.1285L5.7 14.7926V10.8C5.7 8.05943 7.55286 5.75161 10.0742 5.0609ZM10.4476 18.45C10.6226 18.9452 11.0949 19.3 11.65 19.3C12.2051 19.3 12.6774 18.9452 12.8525 18.45H10.4476ZM11.65 6.55C9.30279 6.55 7.4 8.45279 7.4 10.8V15.05C7.4 15.2178 7.35033 15.3819 7.25724 15.5215L6.43824 16.75H16.8618L16.0428 15.5215C15.9497 15.3819 15.9 15.2178 15.9 15.05V10.8C15.9 8.45279 13.9972 6.55 11.65 6.55Z" fill="currentColor"/>
</svg>
