<svg width="24" height="24" viewBox="0 0 24 24" fill="none" xmlns="http://www.w3.org/2000/svg">
  <path fill-rule="evenodd" clip-rule="evenodd" d="M8.79999 4.8C8.79999 4.35817 8.44182 4 7.99999 4C7.55817 4 7.19999 4.35817 7.19999 4.8V5.0667C5.43269 5.0667 4 6.49938 4 8.26669V16.8C4 18.5673 5.43269 20 7.19999 20H16.8C18.5673 20 20 18.5673 20 16.8V8.26669C20 6.49938 18.5673 5.0667 16.8 5.0667V4.8C16.8 4.35817 16.4418 4 16 4C15.5581 4 15.2 4.35817 15.2 4.8V5.0667H8.79999V4.8ZM7.19999 6.66669H16.8C17.6836 6.66669 18.4 7.38304 18.4 8.26669V9.39999L5.6 9.39999V8.26669C5.6 7.38304 6.31634 6.66669 7.19999 6.66669ZM5.6 11V16.8C5.6 17.6837 6.31634 18.4 7.19999 18.4H16.8C17.6836 18.4 18.4 17.6837 18.4 16.8V11L5.6 11Z" fill="currentColor"/>
</svg>

