<svg width="1400" height="1400" viewBox="0 0 1400 1400" fill="none" xmlns="http://www.w3.org/2000/svg">
    <g clip-path="url(#clip0_3515_7446)">
        <rect width="1400" height="1400" fill="black"/>
        <path d="M-252.374 67.0899L-118.502 -125.539L715.591 -115.005L482.914 271.064L-247.513 88.8848L-252.374 67.0899Z" stroke="white"/>
        <path d="M688.832 -68.9075L259.648 -97.2995L241.834 -120.989L715.607 -115.004L688.832 -68.9075Z" stroke="white"/>
        <path d="M694.199 -92.7623C695.365 -94.4186 695.961 -96.4094 695.897 -98.4343L706.875 -99.2336L615.552 58.276L277.529 14.2507L192.515 -122.131L205.541 -122.003C207.658 -118.441 209.742 -115.056 211.984 -111.658L211.132 -111.696L283.779 4.8138L610.36 47.1614" stroke="white"/>
        <path d="M138.977 38.3144L139.101 38.5139L139.333 38.5461L515.487 90.7751L499.331 126.057L63.0385 65.0513L105.572 -15.5455L138.977 38.3144Z" stroke="white"/>
        <path d="M509.367 103.134L133.59 50.6596L99.6053 -4.80693L105.536 -16.5504L139.402 38.051" stroke="white"/>
        <g style="mix-blend-mode:multiply" opacity="0.6">
            <path d="M-250.387 65.3865L-250.387 65.3866L-250.377 65.3853C-210.356 60.124 -169.437 61.7151 -128.521 65.5608C-108.064 67.4836 -87.6129 69.9694 -67.2768 72.443L-67.0877 72.466C-46.8176 74.9315 -26.6614 77.3833 -6.73962 79.249C74.301 86.8883 155.673 91.6246 237.096 87.8553C303.771 84.8455 367.052 71.8824 421.161 30.4554C466.63 -4.34981 497.026 -53.854 526.989 -102.652C530.01 -107.571 533.026 -112.484 536.053 -117.373L715.531 -115.246L482.855 270.822L-247.434 88.7014L-252.296 66.9044L-251.282 65.4241C-250.984 65.432 -250.685 65.4195 -250.387 65.3865Z" stroke="white"/>
        </g>
        <g style="mix-blend-mode:multiply" opacity="0.6">
            <path d="M-13.5019 87.9788L-13.501 87.9789C7.75184 89.9323 34.6492 92.9481 64.2474 96.2667C91.1358 99.2815 120.253 102.546 149.392 105.491C210.577 111.675 271.836 116.447 312.57 114.506C379.234 111.406 462.87 100.938 516.933 59.5218C542.024 40.3004 572.705 3.03397 584.182 -33.0098C589.923 -51.0375 590.88 -68.8257 583.85 -83.9047C577.141 -98.2943 563.205 -110.118 539.465 -117.333L715.531 -115.246L482.855 270.822L-247.434 88.7014L-252.295 66.9099L-251.341 65.5719C-251.084 65.5537 -250.825 65.5534 -250.568 65.5712C-198.62 71.8881 -144.965 76.4934 -90.9378 81.1306C-65.1625 83.343 -39.3023 85.5626 -13.5019 87.9788Z" stroke="white"/>
        </g>
        <path d="M-247.933 89.2954L-252.91 66.9848L548.951 158.708" stroke="white"/>
        <path d="M226.246 207.558L216.38 171.006L514.107 218.523" stroke="white"/>
        <g style="mix-blend-mode:multiply">
            <path d="M-247.933 89.2954L-252.91 66.9848L548.951 158.708" stroke="white"/>
        </g>
        <g style="mix-blend-mode:multiply" opacity="0.6">
            <path d="M-174.172 75.4788L-252.022 66.5828L-118.501 -125.539L23.0224 -123.795L-174.172 75.4788Z" stroke="white"/>
        </g>
        <path d="M116.521 -122.548L-0.997026 95.2567L-6.72163 94.6431L110.64 -122.642L116.521 -122.548Z" stroke="white"/>
        <g style="mix-blend-mode:multiply" opacity="0.5">
            <path d="M-0.897575 63.4307C-0.947431 64.87 -1.55584 66.2329 -2.59316 67.2309C-3.33358 67.7829 -4.21407 68.1164 -5.1348 68.1933C-6.06507 68.2711 -6.99838 68.0838 -7.82658 67.6532C-8.65481 67.2225 -9.34413 66.5661 -9.81469 65.7599C-10.2853 64.9538 -10.5178 64.0307 -10.4855 63.0979C-10.4532 62.165 -10.1573 61.2604 -9.6321 60.4888C-9.10689 59.7172 -8.37383 59.1102 -7.5178 58.738C-6.66177 58.3658 -5.71777 58.2436 -4.79516 58.3856C-3.88197 58.5262 -3.02668 58.92 -2.32619 59.522C-1.36038 60.5896 -0.84772 61.9913 -0.897575 63.4307Z" stroke="white"/>
        </g>
        <path d="M915.063 -471.701L1134.49 -830.838C1134.6 -830.842 1134.74 -830.847 1134.92 -830.852C1135.39 -830.866 1136.08 -830.883 1137 -830.897C1138.84 -830.926 1141.58 -830.943 1145.14 -830.896C1152.26 -830.803 1162.7 -830.455 1175.96 -829.437C1202.49 -827.4 1240.31 -822.68 1285.47 -811.949C1375.79 -790.487 1495.47 -744.981 1612.9 -648.804C1761.77 -526.807 1832.16 -417.53 1865.33 -338.783C1881.92 -299.409 1889.2 -267.663 1892.34 -245.77C1893.91 -234.824 1894.44 -226.34 1894.59 -220.597C1894.66 -217.726 1894.63 -215.539 1894.58 -214.073C1894.56 -213.34 1894.53 -212.787 1894.51 -212.418C1894.5 -212.251 1894.49 -212.121 1894.49 -212.03L1626.49 96.962L915.063 -471.701Z" stroke="white"/>
        <g style="mix-blend-mode:multiply" opacity="0.6">
            <g style="mix-blend-mode:multiply" opacity="0.6">
                <path d="M1508.38 -240.243L1508.38 -240.244C1544.86 -289.779 1586.05 -335.317 1627.68 -380.508C1631.85 -385.033 1636.02 -389.553 1640.19 -394.074C1677.56 -434.559 1714.94 -475.058 1749.23 -518.18C1827.13 -428.901 1863.44 -352.345 1880.27 -298.104C1888.71 -270.936 1892.26 -249.364 1893.7 -234.59C1894.42 -227.203 1894.61 -221.516 1894.63 -217.679C1894.63 -215.761 1894.6 -214.305 1894.56 -213.33C1894.54 -212.843 1894.52 -212.476 1894.5 -212.231C1894.5 -212.151 1894.49 -212.084 1894.49 -212.03L1626.49 96.962L1392.69 -89.8832C1433.06 -138.505 1470.89 -189.39 1508.38 -240.243Z" stroke="white"/>
            </g>
        </g>
        <path d="M1431.47 -409.068L1431.72 -409.438L1431.47 -409.068C1460.72 -389.253 1527.26 -328.19 1594.14 -249.454C1660.94 -170.8 1728.02 -74.576 1758.58 15.6971L1680.87 103.452L882.741 -503.947L940.527 -596.568C940.596 -596.582 940.681 -596.599 940.785 -596.62C941.095 -596.681 941.562 -596.77 942.187 -596.876C943.438 -597.088 945.319 -597.371 947.833 -597.652C952.861 -598.213 960.421 -598.768 970.53 -598.734C990.748 -598.666 1021.16 -596.245 1061.91 -586.822C1143.4 -567.977 1266.23 -521.123 1431.47 -409.068Z" stroke="white"/>
        <path d="M1577.66 386.493L1577.66 386.492C1588 373.183 1593.11 347.781 1589.92 313.321C1586.74 278.831 1575.24 235.169 1552.25 185.241C1506.27 85.3809 1414.29 -39.5834 1250.79 -166.446C1089.18 -291.883 953.741 -340.394 855.212 -354.348C805.948 -361.324 765.912 -359.662 736.443 -354.657C721.709 -352.154 709.613 -348.815 700.324 -345.3C692.083 -342.181 686.022 -338.913 682.293 -335.947C682.661 -337.206 683.024 -338.425 683.53 -339.619L788.074 -493.959C788.093 -493.974 788.115 -493.991 788.142 -494.012C788.229 -494.079 788.361 -494.178 788.537 -494.309C788.89 -494.57 789.422 -494.954 790.135 -495.442C791.561 -496.418 793.712 -497.813 796.603 -499.476C802.383 -502.803 811.12 -507.207 822.929 -511.501C846.544 -520.089 882.448 -528.239 931.56 -526.45C1029.78 -522.872 1180.88 -479.532 1392.19 -320.326C1575.4 -182.276 1662.38 -48.4521 1703.56 50.8288C1724.15 100.471 1733.3 141.483 1737.29 170.076C1739.29 184.373 1740 195.565 1740.22 203.179C1740.32 206.986 1740.3 209.899 1740.26 211.858C1740.24 212.837 1740.21 213.578 1740.18 214.074C1740.18 214.192 1740.17 214.296 1740.17 214.386C1740.16 214.485 1740.16 214.566 1740.15 214.631C1740.15 214.635 1740.15 214.639 1740.15 214.643L1583.78 386.904C1580.39 389.669 1576.5 391.757 1572.33 393.063C1574.16 390.88 1575.94 388.685 1577.66 386.493Z" stroke="white"/>
        <g style="mix-blend-mode:multiply" opacity="0.5">
            <g style="mix-blend-mode:multiply" opacity="0.5">
                <path d="M982.809 -5.23284C984.005 -3.11361 985.845 -1.43393 988.057 -0.43404C987.419 15.4539 986.619 31.4793 985.657 47.6423C921.747 3.89726 836.163 -60.1885 771.317 -128.975C738.77 -163.5 711.466 -199.189 694.744 -234.066C678.045 -268.895 671.921 -302.866 681.601 -334.051C686.424 -338.393 696.967 -343.723 712.856 -348.237C728.834 -352.777 750.164 -356.478 776.393 -357.531C828.788 -359.634 900.716 -351.171 988.544 -317.74C993.303 -215.919 993.487 -113.951 981.459 -12.5447C981.081 -10.0251 981.557 -7.45167 982.809 -5.23284Z" stroke="white"/>
            </g>
        </g>
        <g style="mix-blend-mode:multiply" opacity="0.5">
            <g style="mix-blend-mode:multiply" opacity="0.5">
                <path d="M1294.13 117.064C1331.06 110.22 1368.01 103.372 1405.13 97.4072C1425.09 94.21 1445.24 92.2115 1465.41 90.2107C1475.31 89.2282 1485.22 88.2452 1495.12 87.1194C1545.2 160.95 1572.28 227.098 1583.53 279.078C1589.16 305.098 1590.82 327.558 1589.42 345.649C1588.02 363.75 1583.57 377.429 1577 385.937C1575 388.499 1572.9 391.069 1570.74 393.622C1552.77 399.247 1514.56 402.207 1443.71 371.274C1372.8 340.319 1269.25 275.442 1120.67 145.421C1166.02 140.061 1211.13 132.374 1256.24 124.05C1268.87 121.746 1281.5 119.405 1294.13 117.064Z" stroke="white"/>
            </g>
        </g>
        <g style="mix-blend-mode:multiply" opacity="0.5">
            <g style="mix-blend-mode:multiply" opacity="0.5">
                <path d="M1570.83 393.662C1541.07 403.125 1454.84 404.91 1255.29 255.224C1317.38 245.841 1379.62 236.597 1441.85 229.761L1441.79 229.264L1441.85 229.761C1479.34 225.636 1517.44 223.979 1555.75 222.313C1559.38 222.155 1563 221.998 1566.63 221.838C1581.81 262.498 1588.86 297.793 1589.9 325.794C1590.94 353.894 1585.93 374.568 1577.1 385.975C1575.1 388.538 1572.99 391.108 1570.83 393.662Z" stroke="white"/>
            </g>
        </g>
        <path d="M1215.93 -72.0335C1468.38 116.65 1500.16 256.324 1501.53 310.255L1390.2 434.379M380.531 406.584L458.174 265.497M1011.95 865.798L1140.95 718.064" stroke="white"/>
        <path d="M422.753 330.162C474.377 323.523 595.667 329.661 775.884 470.228C996.362 642.129 1045.77 763.379 1045.09 826.805" stroke="white"/>
        <g style="mix-blend-mode:multiply" opacity="0.6">
            <g style="mix-blend-mode:multiply" opacity="0.6">
                <path d="M862.892 754.53C871.181 741.838 879.536 729.501 888.395 716.998C898.412 702.927 908.83 689.189 919.523 675.569C930.787 683.042 943.63 687.8 957.043 689.471C970.457 691.142 984.075 689.681 996.827 685.2C1035.03 672.62 1069.71 635.963 1097.95 608.934C1129.92 577.613 1160.18 544.594 1188.6 510.02C1216.53 476.724 1243.47 442.841 1271.08 409.52C1299.95 374.67 1330.78 341.69 1357.49 305.271C1401.27 245.518 1417.06 181.109 1411.15 110.209C1487.18 205.691 1500.66 275.641 1501.53 310.255" stroke="white"/>
            </g>
        </g>
        <path d="M1588.04 -41.6422L1559.76 81.2599C1509.88 -4.7051 1442.15 -85.9189 1357.71 -160.032L1416.02 -239.444C1482.6 -182.152 1540.54 -115.528 1588.04 -41.6422Z" stroke="white"/>
        <path d="M1417.91 -225.576L1417.5 -225.936L1417.18 -225.497L1370.3 -161.754L1370.7 -161.458L1370.37 -161.082C1442.17 -98.0691 1504.47 -24.9865 1555.31 55.8885L1555.95 56.9074L1556.22 55.7345L1578.17 -39.6444L1578.22 -39.8508L1578.11 -40.0286C1533.45 -108.913 1479.55 -171.344 1417.91 -225.576ZM1563.77 109.378C1519.38 26.3104 1449.64 -67.2073 1343.93 -158.529L1414.32 -254.287C1486.25 -193.836 1548.5 -122.722 1598.89 -43.4196L1563.77 109.378Z" stroke="white"/>
        <g style="mix-blend-mode:multiply" opacity="0.6">
            <g style="mix-blend-mode:multiply" opacity="0.6">
                <path d="M781.033 -276.02L788.797 -208.06L788.837 -207.709L789.18 -207.629L789.294 -208.117C789.18 -207.629 789.181 -207.629 789.182 -207.629L789.185 -207.628L789.201 -207.625L789.266 -207.609C789.295 -207.602 789.332 -207.594 789.375 -207.583C789.419 -207.572 789.47 -207.56 789.529 -207.546C789.763 -207.488 790.114 -207.401 790.58 -207.281C791.513 -207.04 792.909 -206.669 794.755 -206.146C798.447 -205.099 803.943 -203.445 811.147 -201.017C825.556 -196.16 846.8 -188.208 874.127 -175.825C928.78 -151.06 1007.76 -108.577 1105.05 -37.7101C1202.32 33.1489 1271.12 104.513 1315.59 158.158C1337.82 184.981 1353.97 207.374 1364.57 223.058C1369.87 230.9 1373.77 237.065 1376.35 241.268C1377.65 243.37 1378.61 244.981 1379.24 246.066C1379.56 246.608 1379.8 247.019 1379.96 247.294L1380.04 247.438C1380.08 247.507 1380.11 247.562 1380.13 247.604L1380.18 247.682L1380.19 247.701L1380.19 247.706C1380.19 247.707 1380.19 247.707 1380.63 247.463L1380.19 247.707L1380.38 248.046L1380.76 247.945L1479.3 221.51L1483.74 232.454L1373.64 262.721C1373.63 262.709 1373.63 262.697 1373.62 262.685C1373.49 262.417 1373.28 262.019 1373 261.494C1372.45 260.445 1371.62 258.887 1370.48 256.853C1368.21 252.785 1364.73 246.811 1359.92 239.178C1350.3 223.911 1335.33 202.01 1313.93 175.457C1271.13 122.35 1202.62 50.635 1099.75 -23.8262C996.892 -98.2803 915.036 -140.953 858.885 -165.015C830.81 -177.045 809.161 -184.423 794.526 -188.794C787.208 -190.979 781.645 -192.413 777.908 -193.3C776.04 -193.744 774.628 -194.052 773.682 -194.248C773.224 -194.344 772.875 -194.413 772.637 -194.459L767.212 -274.41L781.033 -276.02Z" stroke="white"/>
            </g>
        </g>
        <g style="mix-blend-mode:multiply" opacity="0.6">
            <g style="mix-blend-mode:multiply" opacity="0.6">
                <path d="M593.639 21.2841L607.101 -2.78266C607.141 -2.79274 607.187 -2.80419 607.239 -2.81692C607.469 -2.87302 607.817 -2.95409 608.283 -3.05268C609.214 -3.24986 610.618 -3.5171 612.497 -3.79471C616.255 -4.34992 621.915 -4.9466 629.5 -5.10694C644.67 -5.42762 667.546 -4.00306 698.324 2.99085C759.881 16.9787 853.052 53.2458 979.404 142.393C1105.75 231.537 1191.76 323.821 1246.18 393.813C1273.39 428.809 1292.7 458.232 1305.21 478.903C1311.46 489.239 1316.02 497.386 1319 502.948C1320.5 505.729 1321.6 507.863 1322.33 509.302C1322.7 510.021 1322.97 510.566 1323.15 510.931C1323.19 511.028 1323.24 511.112 1323.27 511.183L1310.1 526.139C1310.03 525.985 1309.95 525.805 1309.85 525.6C1309.73 525.344 1309.59 525.049 1309.43 524.716C1308.76 523.319 1307.74 521.248 1306.35 518.549C1303.58 513.151 1299.33 505.241 1293.44 495.184C1281.65 475.071 1263.27 446.371 1236.89 412.013C1184.12 343.296 1099.35 251.946 971.318 161.38C843.288 70.8148 748.617 35.8617 685.923 23.56C654.576 17.4092 631.227 16.9219 615.702 17.9763C607.94 18.5035 602.135 19.416 598.265 20.1985C596.33 20.5898 594.88 20.9485 593.91 21.2102C593.815 21.2358 593.725 21.2604 593.639 21.2841Z" stroke="white"/>
            </g>
        </g>
        <path d="M1274.43 31.6543L1274.43 31.6561C1280.97 35.5802 1282.27 45.7267 1277.05 54.4651L1277.04 54.4785L1277.03 54.4924C1275.32 57.8072 1272.61 60.4999 1269.29 62.1889C1265.96 63.878 1262.19 64.4777 1258.5 63.9032L1258.21 63.8585L1258.03 64.0853L1088.34 276.688L1088.19 276.88L1088.25 277.118C1089.01 280.256 1088.97 283.536 1088.12 286.651C1087.27 289.767 1085.65 292.617 1083.4 294.936L1083.39 294.943L1083.39 294.951C1076.65 302.49 1066.8 304.129 1060.88 299.169C1057.93 296.696 1056.64 292.95 1056.94 288.82C1057.25 284.688 1059.16 280.196 1062.57 276.322L1062.57 276.313L1062.58 276.303C1064.72 273.62 1067.57 271.588 1070.81 270.438C1074.04 269.287 1077.54 269.064 1080.89 269.794L1081.2 269.86L1081.39 269.616L1250.54 56.5095L1250.69 56.3106L1250.63 56.0658C1249.88 53.3597 1249.71 50.5265 1250.14 47.7521C1250.57 44.9777 1251.57 42.3247 1253.1 39.967L1253.1 39.9609L1253.1 39.9546C1255.72 35.6419 1259.43 32.5649 1263.31 31.072C1267.18 29.5792 1271.18 29.6766 1274.43 31.6543Z" stroke="white"/>
        <path d="M993.967 -147.822L993.968 -147.822L993.974 -147.833C999.222 -156.502 1008.82 -160.083 1015.36 -156.158C1021.84 -152.208 1023.14 -142.059 1017.89 -133.39L1017.88 -133.377L1017.88 -133.364C1016.22 -130.211 1013.67 -127.617 1010.54 -125.907C1007.42 -124.196 1003.86 -123.444 1000.31 -123.746L1000.02 -123.77L999.855 -123.534L843.657 100.196L843.487 100.439L843.62 100.705C845.305 104.077 845.871 107.899 845.236 111.614C844.601 115.33 842.797 118.746 840.087 121.366L840.073 121.38L840.061 121.394C833.361 128.958 823.414 130.699 817.58 125.573C811.758 120.457 812.485 110.321 819.238 102.767L819.245 102.76L819.251 102.753C821.12 100.498 823.474 98.6941 826.138 97.4756C828.801 96.2571 831.706 95.6553 834.634 95.7149L834.902 95.7204L835.055 95.5003L991.95 -130.374L992.096 -130.584L992.011 -130.826C991.021 -133.621 990.683 -136.605 991.022 -139.55C991.361 -142.496 992.368 -145.325 993.967 -147.822Z" stroke="white"/>
        <path d="M684.546 -91.3029L684.547 -91.3029L684.552 -91.3111C689.8 -99.9809 699.4 -103.561 705.941 -99.6366C709.205 -97.6493 711.14 -94.0911 711.623 -89.9317C712.107 -85.7719 711.131 -81.0455 708.605 -76.8066L708.599 -76.7952L708.592 -76.7835C706.934 -73.6307 704.382 -71.0368 701.257 -69.3261C698.132 -67.6154 694.572 -66.8639 691.022 -67.1653L690.712 -67.1917L690.552 -66.9249L571.645 130.703L571.504 130.937L571.626 131.183C573.295 134.55 573.855 138.359 573.223 142.064C572.592 145.768 570.802 149.177 568.112 151.801L568.099 151.813L568.088 151.826C561.328 159.411 551.476 161.049 545.558 156.09C542.607 153.617 541.318 149.87 541.624 145.741C541.93 141.608 543.836 137.117 547.247 133.243L547.247 133.243L547.255 133.234C549.132 130.997 551.482 129.203 554.135 127.983C556.788 126.762 559.679 126.144 562.6 126.174L562.886 126.177L563.034 125.931L682.546 -73.8805L682.666 -74.0808L682.589 -74.3012C681.617 -77.1002 681.288 -80.0823 681.627 -83.0257C681.966 -85.9691 682.964 -88.7982 684.546 -91.3029Z" stroke="white"/>
        <path d="M1290.36 327.345L1290.36 327.338L1290.37 327.331C1296.93 319.595 1306.93 317.619 1312.74 322.524C1318.54 327.476 1318.24 337.696 1311.58 345.16L1311.57 345.177L1311.55 345.194C1309.44 348.033 1306.54 350.187 1303.21 351.387C1299.88 352.587 1296.27 352.78 1292.83 351.943L1292.54 351.87L1292.34 352.103L1159.3 507.018L1159.12 507.228L1159.2 507.492C1160.31 511.077 1160.26 514.925 1159.04 518.475C1157.82 522.026 1155.5 525.095 1152.41 527.239L1152.4 527.25L1152.38 527.261C1144.46 533.67 1134.28 533.772 1129.48 527.848C1124.66 521.918 1126.73 511.848 1134.76 505.553L1134.77 505.545L1134.78 505.537C1136.98 503.624 1139.59 502.233 1142.41 501.465C1145.23 500.698 1148.19 500.575 1151.06 501.105L1151.34 501.158L1151.53 500.938L1285.42 344.161L1285.57 343.983L1285.53 343.752C1285.03 340.83 1285.21 337.833 1286.04 334.99C1286.88 332.146 1288.36 329.532 1290.36 327.345Z" stroke="white"/>
        <g style="mix-blend-mode:multiply" opacity="0.6">
            <path d="M932.47 461.943L932.47 461.943L932.467 461.95C929.422 469.08 924.318 475.138 917.809 479.349C911.299 483.56 903.681 485.732 895.929 485.587C888.177 485.442 880.645 482.986 874.297 478.534C867.949 474.083 863.075 467.837 860.299 460.599C857.522 453.36 856.97 445.458 858.712 437.903C860.455 430.349 864.413 423.487 870.08 418.196C875.747 412.906 882.864 409.427 890.52 408.206C898.176 406.985 906.023 408.077 913.055 411.343L913.266 410.889L913.063 411.346C917.662 413.391 921.813 416.323 925.278 419.974C928.743 423.624 931.454 427.922 933.257 432.622C935.059 437.321 935.918 442.329 935.783 447.361C935.648 452.392 934.522 457.347 932.47 461.943ZM868.78 464.331C872.566 469.377 877.784 473.165 883.754 475.203C891.24 478.007 899.529 477.754 906.83 474.501C914.132 471.247 919.861 465.253 922.781 457.812C925.257 452.01 925.928 445.597 924.706 439.409C923.484 433.217 920.425 427.538 915.927 423.111C911.43 418.683 905.703 415.714 899.493 414.589C893.283 413.464 886.878 414.237 881.114 416.805C875.35 419.374 870.493 423.62 867.178 428.989C863.862 434.359 862.242 440.603 862.528 446.907C862.814 453.211 864.992 459.283 868.78 464.331Z" stroke="white"/>
        </g>
        <g style="mix-blend-mode:multiply" opacity="0.6">
            <path d="M1118.83 700.001C1107.9 715.912 1089.34 721.702 1077.4 713.495C1071.51 709.395 1068.24 702.465 1067.81 694.544C1067.39 686.622 1069.82 677.741 1075.29 669.819C1080.76 661.896 1088.2 656.441 1095.74 654.014C1103.28 651.588 1110.88 652.198 1116.75 656.34C1128.5 664.626 1129.76 684.092 1118.83 700.001ZM1115.24 697.547C1119.59 691.214 1121.65 684.172 1121.45 677.886C1121.25 671.6 1118.78 666.033 1114.03 662.743C1109.28 659.453 1103.22 659.129 1097.3 661.186C1091.37 663.243 1085.55 667.689 1081.17 674.011C1076.8 680.334 1074.71 687.406 1074.9 693.707C1075.09 700.007 1077.56 705.579 1082.35 708.8C1087.12 712.016 1093.2 712.352 1099.13 710.32C1105.06 708.288 1110.89 703.881 1115.24 697.547Z" stroke="white"/>
        </g>
        <g style="mix-blend-mode:multiply" opacity="0.6">
            <path d="M755.57 343.631L755.57 343.631L755.567 343.638C752.531 350.773 747.432 356.84 740.926 361.059C734.419 365.278 726.801 367.459 719.047 367.321C711.293 367.183 703.757 364.733 697.404 360.285C691.051 355.837 686.17 349.594 683.389 342.355C680.607 335.116 680.05 327.212 681.789 319.655C683.529 312.098 687.485 305.232 693.152 299.938C698.818 294.644 705.937 291.163 713.595 289.94C721.253 288.718 729.102 289.81 736.136 293.076L736.347 292.623L736.144 293.08C740.739 295.123 744.887 298.052 748.35 301.698C751.814 305.345 754.525 309.638 756.329 314.332C758.133 319.026 758.994 324.03 758.864 329.057C758.734 334.084 757.615 339.036 755.57 343.631ZM706.873 356.9L706.884 356.904L706.895 356.908C714.379 359.699 722.661 359.437 729.954 356.179C737.245 352.923 742.965 346.932 745.882 339.499C748.358 333.698 749.028 327.285 747.807 321.096C746.585 314.905 743.526 309.225 739.028 304.798C734.531 300.371 728.804 297.401 722.594 296.276C716.384 295.152 709.979 295.924 704.215 298.493C698.45 301.062 693.594 305.307 690.278 310.677C686.963 316.046 685.343 322.29 685.628 328.594C685.914 334.898 688.093 340.97 691.881 346.018C695.664 351.061 700.878 354.848 706.844 356.887L706.873 356.9Z" stroke="white"/>
        </g>
        <g style="mix-blend-mode:multiply" opacity="0.6">
            <g style="mix-blend-mode:multiply" opacity="0.6">
                <path d="M844.637 307.437L716.03 491.231L708.789 486.389L833.23 302.572L844.637 307.437Z" stroke="white"/>
            </g>
        </g>
        <path d="M615.682 302.621C603.168 310.038 591.076 311.684 580.198 307.162L580.191 307.052L579.907 306.931L578.184 306.196C575.6 304.784 573.324 302.872 571.487 300.571C569.648 298.266 568.287 295.618 567.484 292.781C564.263 279.363 566.436 265.217 573.538 253.385L573.545 253.374L573.551 253.362C588.085 225.892 737.631 -23.884 795.96 -121.307C798.243 -125.12 800.386 -128.699 802.375 -132.023L814.989 -153.073L814.989 -153.073C822.126 -164.995 832.224 -176.319 843.789 -183.946C855.353 -191.572 868.345 -195.478 881.309 -192.655C887.488 -191.283 893.177 -188.255 897.766 -183.895C902.354 -179.535 905.668 -174.007 907.352 -167.906L907.354 -167.898L907.356 -167.891C909.327 -161.524 909.896 -154.807 909.025 -148.2C908.154 -141.593 905.863 -135.254 902.309 -129.616L902.309 -129.616L902.303 -129.606C879.518 -91.5743 691.197 207.231 653.879 263.051C641.341 281.782 628.314 295.134 615.682 302.621Z" stroke="white"/>
        <path d="M970.933 515.918L970.934 515.917C1001.18 473.482 1236.89 174.158 1262.84 142.19L1262.84 142.19C1276.95 124.795 1296.87 117.805 1312.48 124.463C1316.34 126.114 1319.85 128.498 1322.8 131.481C1333.73 142.563 1338.77 153.212 1337.97 165.264C1337.16 177.354 1330.46 190.958 1317.61 207.922L1317.61 207.922C1304.36 225.454 1228.05 317.632 1153.12 407.337C1115.66 452.186 1078.54 496.41 1049.83 530.368C1021.13 564.309 1000.85 587.96 996.994 591.759C992.376 595.729 986.754 598.353 980.744 599.342C974.729 600.332 968.557 599.647 962.906 597.362L962.718 597.825L962.904 597.361C959.173 595.866 955.949 593.333 953.614 590.061C949.529 584.195 946.116 576.531 947.566 564.934C949.019 553.305 955.368 537.676 970.933 515.918Z" stroke="white"/>
        <g style="mix-blend-mode:multiply" opacity="0.5">
            <g style="mix-blend-mode:multiply" opacity="0.5">
                <path d="M892.339 -202.975C889.675 -204.115 886.91 -205.004 884.081 -205.628C851.462 -212.755 820.357 -187.923 803.58 -159.911C766.452 -98.3022 578.363 215.481 561.829 247.124C545.295 278.767 552.658 308.336 572.322 317.97L574.756 319.008C594.778 327.547 628.264 325.004 664.848 270.272C702.994 213.276 892.653 -87.8983 913.612 -122.918C932.61 -154.867 919.571 -191.361 892.339 -202.975ZM891.956 -135.898C873.245 -104.75 682.423 198.642 643.845 256.268C622.808 287.782 600.776 302.536 584.887 295.76L583.831 295.309C581.616 293.844 580.017 291.617 579.336 289.051C576.778 281.176 578.737 269.964 584.473 259.06C599.446 230.822 760.184 -37.5342 813.056 -125.75L825.584 -146.728C837.224 -166.131 858.867 -185.067 878.816 -180.684C880.092 -180.401 881.337 -179.998 882.535 -179.478C885.73 -177.997 888.574 -175.856 890.883 -173.198C893.191 -170.539 894.911 -167.422 895.93 -164.052C897.326 -159.348 897.693 -154.4 897.008 -149.542C896.322 -144.685 894.599 -140.031 891.956 -135.898V-135.898Z" stroke="white" stroke-miterlimit="10"/>
            </g>
        </g>
        <g style="mix-blend-mode:multiply" opacity="0.5">
            <g style="mix-blend-mode:multiply" opacity="0.5">
                <path d="M1332.16 122.219C1328.05 117.971 1323.12 114.596 1317.67 112.294C1297.15 103.54 1271.13 110.953 1252.55 133.908C1229.41 162.731 991.129 464.771 960.169 508.225C929.209 551.679 929.079 577.945 942.776 597.624C946.557 602.899 951.753 606.996 957.764 609.443C965.813 612.765 974.638 613.744 983.219 612.266C991.801 610.789 999.79 606.915 1006.26 601.092C1022.94 584.761 1302.83 249.29 1327.98 215.784C1353.12 182.277 1362.57 152.986 1332.16 122.219ZM1307.93 200.559C1282.27 234.388 1004.57 566.885 988.44 583.071C985.544 585.329 982.111 586.797 978.478 587.331C974.844 587.864 971.135 587.446 967.711 586.116C966.066 585.511 964.638 584.429 963.609 583.01C960.25 578.159 950.97 564.921 980.838 523.009C1010.71 481.098 1246.4 181.809 1272.24 149.848C1282.84 136.837 1297.05 131.123 1307.66 135.647C1310.05 136.694 1312.21 138.187 1314.03 140.047C1327.23 153.383 1334.43 165.516 1307.93 200.559Z" stroke="white" stroke-miterlimit="10"/>
            </g>
        </g>
        <path d="M485.25 352.659C485.709 354.092 485.587 355.648 484.91 356.991C484.38 357.847 483.618 358.534 482.712 358.972C481.8 359.412 480.781 359.582 479.776 359.46C478.77 359.339 477.82 358.931 477.04 358.286C476.259 357.641 475.679 356.785 475.371 355.821C475.062 354.856 475.036 353.823 475.297 352.845C475.558 351.866 476.094 350.983 476.842 350.3C477.59 349.617 478.519 349.164 479.517 348.993C480.509 348.823 481.528 348.94 482.456 349.329C483.788 350.03 484.791 351.225 485.25 352.659Z" stroke="white"/>
        <path d="M584.127 383.443C584.585 384.873 584.469 386.425 583.805 387.771C583.276 388.626 582.514 389.312 581.609 389.75C580.697 390.19 579.677 390.36 578.672 390.239C577.666 390.117 576.717 389.71 575.936 389.064C575.155 388.419 574.576 387.564 574.267 386.599C573.958 385.635 573.932 384.601 574.193 383.623C574.454 382.644 574.991 381.761 575.739 381.078C576.487 380.396 577.415 379.942 578.413 379.771C579.405 379.602 580.423 379.718 581.351 380.106C582.673 380.816 583.669 382.012 584.127 383.443Z" stroke="white"/>
        <path d="M688.613 441.467C688.078 442.317 687.312 442.997 686.404 443.427C685.491 443.86 684.473 444.022 683.47 443.895C682.467 443.767 681.522 443.356 680.746 442.708C679.971 442.06 679.396 441.204 679.092 440.241C678.787 439.277 678.765 438.246 679.028 437.271C679.29 436.295 679.827 435.415 680.574 434.734C681.321 434.054 682.248 433.602 683.244 433.431C684.234 433.262 685.252 433.378 686.179 433.766C686.843 434.108 687.434 434.578 687.917 435.149C688.405 435.724 688.772 436.391 689 437.11C689.227 437.829 689.309 438.585 689.241 439.336C689.174 440.081 688.961 440.805 688.613 441.467Z" stroke="white"/>
        <path d="M802.875 524.037L802.832 524.105L802.812 524.184C802.628 524.928 802.285 525.624 801.806 526.222C801.327 526.82 800.724 527.308 800.038 527.65C799.352 527.992 798.6 528.181 797.833 528.204C797.067 528.227 796.305 528.083 795.6 527.782C794.895 527.481 794.263 527.031 793.749 526.462C793.236 525.893 792.851 525.22 792.623 524.488C792.396 523.756 792.33 522.983 792.43 522.223C792.53 521.463 792.794 520.734 793.204 520.087L793.247 520.018L793.267 519.939C793.451 519.195 793.794 518.5 794.273 517.901C794.752 517.303 795.355 516.816 796.041 516.474C796.727 516.131 797.479 515.942 798.246 515.919C799.012 515.897 799.774 516.041 800.479 516.341C801.184 516.642 801.816 517.092 802.329 517.661C802.843 518.23 803.228 518.904 803.455 519.636C803.683 520.367 803.749 521.14 803.649 521.9C803.549 522.66 803.285 523.389 802.875 524.037Z" stroke="white"/>
        <path d="M879.32 590.897C879.778 592.327 879.662 593.879 878.998 595.225C878.469 596.08 877.707 596.766 876.802 597.204C875.89 597.644 874.87 597.814 873.865 597.693C872.859 597.571 871.91 597.164 871.129 596.518C870.348 595.873 869.769 595.018 869.46 594.053C869.151 593.088 869.125 592.056 869.386 591.077C869.647 590.098 870.183 589.215 870.932 588.532C871.68 587.85 872.608 587.396 873.606 587.225C874.597 587.056 875.616 587.172 876.543 587.56C877.866 588.27 878.862 589.467 879.32 590.897Z" stroke="white"/>
        <path d="M938.615 665.401L938.658 665.333L938.678 665.254C938.862 664.51 939.205 663.815 939.684 663.216C940.163 662.618 940.767 662.13 941.452 661.788C942.138 661.446 942.89 661.257 943.657 661.234C944.423 661.211 945.185 661.355 945.89 661.656C946.595 661.957 947.227 662.407 947.741 662.976C948.255 663.545 948.639 664.218 948.867 664.95C949.095 665.682 949.161 666.455 949.06 667.215C948.96 667.975 948.696 668.704 948.286 669.351L948.709 669.619L948.223 669.499C948.04 670.243 947.696 670.938 947.217 671.537C946.738 672.135 946.135 672.622 945.449 672.964C944.763 673.307 944.011 673.496 943.245 673.519C942.478 673.541 941.716 673.398 941.011 673.097C940.306 672.796 939.675 672.346 939.161 671.777C938.647 671.208 938.263 670.534 938.035 669.803C937.807 669.071 937.741 668.298 937.841 667.538C937.941 666.778 938.205 666.049 938.615 665.401Z" stroke="white"/>
        <path d="M1006.25 750.437C1006.71 751.877 1006.58 753.437 1005.9 754.786C1005.37 755.634 1004.6 756.312 1003.7 756.742C1002.78 757.175 1001.77 757.337 1000.76 757.21C999.761 757.083 998.816 756.671 998.04 756.023C997.264 755.375 996.69 754.519 996.386 753.556C996.081 752.592 996.059 751.562 996.321 750.586C996.584 749.61 997.121 748.73 997.868 748.049C998.615 747.369 999.542 746.917 1000.54 746.746C1001.53 746.577 1002.54 746.693 1003.47 747.079C1004.8 747.792 1005.8 748.997 1006.25 750.437Z" stroke="white"/>
        <path d="M1552.29 49.2515C1502.2 -29.1519 1441.29 -100.113 1371.37 -161.531L1414.64 -220.361C1404.24 -199.585 1392.13 -179.712 1378.42 -160.947L1378.14 -160.564L1378.51 -160.265C1444.4 -106.59 1488.6 -52.5587 1516.32 -11.951C1530.18 8.35283 1539.92 25.3004 1546.2 37.169C1548.82 42.1233 1550.83 46.1926 1552.29 49.2515Z" stroke="white"/>
        <g style="mix-blend-mode:multiply" opacity="0.6">
            <g style="mix-blend-mode:multiply" opacity="0.6">
                <path d="M833.22 486.675C804.838 459.464 763.789 429.927 729.786 407.163C712.697 395.723 697.382 385.988 686.338 379.114C680.817 375.677 676.363 372.955 673.289 371.091C671.752 370.16 670.56 369.443 669.752 368.959C669.443 368.774 669.189 368.622 668.995 368.506L885.51 74.3997L1000.16 -54.8488L1136.37 53.9775L913.62 372.287L913.619 372.288L833.22 486.675Z" stroke="white"/>
            </g>
        </g>
        <path d="M767.514 263.542L1000.47 -55.2391L1096.57 -105.869L859.305 214.134L767.514 263.542Z" stroke="white"/>
        <path d="M860.164 214.079C873.947 220.026 886.467 228.552 897.05 239.198L907.978 365.15C847.424 313.06 766.332 264.585 766.332 264.585" stroke="white"/>
        <path d="M896.527 239.64L1126.79 -89.8043L1137.36 53.9053L907.592 365.651" stroke="white"/>
        <path d="M1162.52 576.57L1352.46 351.808L1711.85 1140.09L1576.77 1304.65L1563.08 1314.82L1141.52 718.122L1162.52 576.57Z" stroke="white"/>
        <path d="M1454.63 956.134L1454.74 956.332L1454.96 956.38L1533.43 973.259L1459.7 1050.33L1185.04 549.875L1211.21 518.892L1454.63 956.134Z" stroke="white"/>
        <g style="mix-blend-mode:multiply">
            <g style="mix-blend-mode:multiply">
                <path d="M1211.21 518.891L1454.63 956.134L1454.74 956.332L1454.96 956.38L1533.43 973.259L1459.7 1050.33L1453.95 1039.95L1515.16 976.013L1515.78 975.367L1514.91 975.178L1435.74 958.139L1199.19 533.114L1211.21 518.891Z" stroke="white"/>
            </g>
        </g>
        <path d="M1253.19 469.234C1253.28 469.387 1253.39 469.572 1253.52 469.787C1253.96 470.554 1254.62 471.702 1255.47 473.208C1257.17 476.217 1259.65 480.648 1262.8 486.299C1269.1 497.599 1278.07 513.772 1288.82 533.196C1310.33 572.044 1338.96 623.892 1367.57 675.757C1396.18 727.622 1424.77 779.505 1446.22 818.421C1456.94 837.879 1465.87 854.095 1472.12 865.447C1475.25 871.123 1477.71 875.583 1479.38 878.624L1481.29 882.095L1481.78 882.985L1481.91 883.211L1481.94 883.267L1481.95 883.282C1481.95 883.283 1481.95 883.284 1481.97 883.274C1482 883.257 1482.1 883.203 1482.39 883.045L1481.95 883.286L1482.08 883.527L1482.35 883.544L1598.3 890.931L1601.39 897.803L1479.5 896.496L1243.46 480.734L1253.19 469.234Z" stroke="white"/>
        <path d="M1544.42 837.326L1324.99 384.357L1352.46 351.808L1576.44 842.977L1544.42 837.326Z" stroke="white"/>
        <g style="mix-blend-mode:multiply" opacity="0.6">
            <path d="M1369.35 692.494L1369.35 692.494C1350.81 752.798 1360.03 822.875 1378.89 881.812C1407.93 972.599 1472.22 1058.7 1552.97 1109.43C1597 1137.13 1647.46 1152.93 1699.4 1155.3L1576.67 1304.87L1563.08 1314.83L1141.52 718.122L1162.52 576.57L1352.46 351.808L1472.9 615.928C1448.95 615.189 1427.23 621.083 1409.45 633.691C1391.46 646.441 1377.53 666.033 1369.35 692.494Z" stroke="white"/>
        </g>
        <g style="mix-blend-mode:multiply" opacity="0.6">
            <path d="M1503.78 1109.45L1503.78 1109.45C1509.2 1116.52 1514.59 1124.18 1520.11 1132.02C1522.44 1135.32 1524.79 1138.66 1527.17 1142C1535.21 1153.26 1543.63 1164.52 1552.88 1174.59C1571.37 1194.72 1593.2 1210.1 1621.87 1210.96L1621.89 1210.46L1621.88 1210.96C1633.64 1211.25 1645.39 1209.88 1656.77 1206.9L1576.55 1304.66L1562.96 1314.61L1141.4 717.905L1162.4 576.353L1352.34 351.59L1388.89 431.632C1361.43 427.315 1337.21 445.405 1318.8 470.742C1300.16 496.385 1287.36 529.607 1283.03 555.135L1283.03 555.136C1272.67 616.415 1288.83 683.687 1310.01 740.985L1310.01 740.985C1334.99 808.484 1363.93 874.457 1396.65 938.561C1427.12 998.646 1462.97 1055.84 1503.78 1109.45Z" stroke="white"/>
        </g>
        <path d="M1563.08 1314.82L1141.52 718.121L1162.33 577.861L1576.46 1304.87L1563.08 1314.82Z" stroke="white"/>
        <path d="M1311.96 959.38L1141.52 718.121L1151.21 652.383C1170.51 683.729 1214.01 751.182 1252.89 811.117C1272.57 841.465 1291.08 869.888 1304.66 890.724C1311.45 901.141 1317.02 909.662 1320.88 915.579C1322.81 918.537 1324.32 920.845 1325.34 922.412L1326.51 924.198L1326.76 924.582L1326.75 924.605L1326.41 925.381C1326.31 925.622 1326.19 925.9 1326.05 926.214C1325.8 926.781 1325.51 927.464 1325.17 928.243C1324.12 930.663 1322.67 934.016 1321.07 937.747C1318.02 944.866 1314.41 953.363 1311.96 959.38Z" stroke="white"/>
        <g style="mix-blend-mode:multiply">
            <path d="M1563.08 1314.82L1141.52 718.121L1162.33 577.861L1576.46 1304.87L1563.08 1314.82Z" stroke="white"/>
        </g>
        <path d="M680.538 638.38L680.539 638.38C834.612 756.46 916.905 769.219 949.199 767.935C956.216 781.498 961.217 793.807 963.735 804.311C966.274 814.902 966.272 823.584 963.356 829.864L963.355 829.865C958.341 840.72 946.06 847.296 927.343 848.584C908.638 849.872 883.627 845.863 853.393 835.676C792.931 815.306 711.702 770.273 618.496 693.797C525.269 617.303 472.762 561.962 446.437 521.329C420.112 480.694 420.049 454.909 431.404 437.381L431.405 437.38C441.623 421.527 462.485 416.018 489.941 418.297C493.778 447.469 522.558 516.981 680.538 638.38Z" stroke="white"/>
        <path d="M707.042 619.592L707.042 619.592C602.385 544.072 556.079 459.976 541.738 429.179C607.825 449.367 689.258 494.616 751.701 543.147C815.467 593.979 871.884 653.395 919.345 719.701C887.8 713.667 807.683 692.273 707.042 619.592Z" stroke="white"/>
        <path d="M920.476 720.423C931.162 735.417 940.869 751.085 949.535 767.331M540.631 428.298C524.304 423.059 507.479 419.521 490.425 417.741" stroke="white"/>
        <path d="M651.226 476.977L558.381 455.404L615.576 502.354" stroke="white"/>
        <path d="M549.111 431.357C553.043 437.538 564.296 449.297 574.64 456.476L641.558 471.84" stroke="white"/>
        <path d="M763.007 552.505L711.924 621.608C726.472 625.812 744.251 628.346 759.382 628.94" stroke="white"/>
        <path d="M749.715 541.327L667.713 587.069C670.324 588.454 675.12 590.825 681.274 593.449L681.182 593.41C693.907 599.097 710.207 603.323 724.035 605.073" stroke="white"/>
        <path d="M729.775 526.523L622.749 543.093C639.031 552.443 655.777 560.961 672.923 568.614L672.969 568.634C677.745 570.671 685.783 573.314 689.594 574.56" stroke="white"/>
        <path d="M701.376 507.188L588.467 500.795L650.319 538.91" stroke="white"/>
        <path d="M777.509 564.59L753.667 649.34C766.485 651.302 781.824 651.351 794.73 650.088" stroke="white"/>
        <path d="M797.147 581.81L794.161 672.361C807.889 673.852 821.755 673.486 835.385 671.273" stroke="white"/>
        <path d="M820.409 603.865L841.288 694.467C852.617 695.747 863.526 695.517 874.488 692.384" stroke="white"/>
        <path d="M850.319 634.983L881.826 708.987C890.609 704.786 895.443 703.124 901.376 695.406" stroke="white"/>
        <g style="mix-blend-mode:multiply" opacity="0.6">
            <g style="mix-blend-mode:multiply" opacity="0.6">
                <path d="M708.709 505.393L684.157 504.105L559.678 454.949L682.002 482.849L708.709 505.393Z" stroke="white"/>
            </g>
            <g style="mix-blend-mode:multiply" opacity="0.6">
                <path d="M766.29 544.189L751.056 559.552C744.254 559.104 735.518 560.561 726.26 562.981C716.886 565.432 706.934 568.882 697.835 572.39C689.148 575.739 681.231 579.144 675.33 581.788L754.965 536.1L766.29 544.189Z" stroke="white"/>
            </g>
            <g style="mix-blend-mode:multiply" opacity="0.6">
                <path d="M753.638 535.172L731.093 538.948C724.476 536.801 714.191 535.919 702.526 535.789C690.776 535.657 677.569 536.289 665.188 537.189C657.163 537.772 649.482 538.468 642.764 539.143L738.38 524.17L753.638 535.172Z" stroke="white"/>
            </g>
            <g style="mix-blend-mode:multiply" opacity="0.6">
                <path d="M797.043 572.415L815.26 587.886L818.763 601.897C818.705 601.905 818.642 601.915 818.577 601.926C818.048 602.019 817.307 602.237 816.403 602.733C814.594 603.724 812.148 605.812 809.42 610.174C804.446 618.126 798.482 633.715 793.727 664.291L797.043 572.415Z" stroke="white"/>
            </g>
            <g style="mix-blend-mode:multiply" opacity="0.6">
                <path d="M818.212 595.622L841.224 611.529L847.489 626.299C847.473 626.302 847.457 626.304 847.441 626.307C846.934 626.386 846.243 626.588 845.458 627.063C843.885 628.016 841.983 630.038 840.397 634.259C837.522 641.909 835.632 656.922 838.712 686.42L818.212 595.622Z" stroke="white"/>
            </g>
            <g style="mix-blend-mode:multiply" opacity="0.6">
                <path d="M878.81 659.829C878.513 660.02 878.149 660.32 877.763 660.789C876.901 661.838 875.946 663.713 875.384 667.062C874.374 673.083 874.615 683.972 879.073 703.694L848.294 625.538C848.696 625.958 849.163 626.445 849.686 626.993C851.655 629.06 854.428 631.998 857.637 635.482C863.937 642.32 871.915 651.256 878.81 659.829Z" stroke="white"/>
            </g>
        </g>
        <g style="mix-blend-mode:multiply" opacity="0.6">
            <g style="mix-blend-mode:multiply" opacity="0.6">
                <path d="M414.067 559.589L474.822 560.069L475.123 560.072L475.266 559.807L517.953 480.764L522.294 487.661L481.108 566.661L419.912 568.042L414.067 559.589Z" stroke="white"/>
            </g>
            <g style="mix-blend-mode:multiply" opacity="0.6">
                <path d="M635.884 708.758L636.04 708.704L636.133 708.568L683.048 640.292L689.608 645.219L642.937 713.861L587.827 735.714L578.726 728.438L635.884 708.758Z" stroke="white"/>
            </g>
            <g style="mix-blend-mode:multiply" opacity="0.6">
                <path d="M687.41 746.686L687.337 746.803L687.333 746.941L686.024 804.169L675.757 797.862L680 741.56L725.597 671.391L732.021 675.865L687.41 746.686Z" stroke="white"/>
            </g>
            <g style="mix-blend-mode:multiply" opacity="0.6">
                <path d="M875.096 840.982L874.942 841.212L875.054 841.465L895.296 887.064L885.034 885.263L867.459 840.529L919.185 765.4L925.508 766.158L875.096 840.982Z" stroke="white"/>
            </g>
        </g>
        <g style="mix-blend-mode:multiply">
            <g style="mix-blend-mode:multiply">
                <path d="M431.404 437.382L431.404 437.381C440.486 423.323 457.946 417.364 480.961 417.792C503.964 418.22 532.385 425.031 563.18 436.353C624.763 458.997 695.707 499.636 751.519 543.07C807.329 586.503 865.42 647.223 906.992 702.627C927.779 730.33 944.423 756.687 954.589 778.875C959.672 789.97 963.127 800.006 964.676 808.635C966.226 817.272 965.857 824.448 963.355 829.865C958.341 840.719 946.054 847.293 927.33 848.579C908.618 849.864 883.598 845.851 853.358 835.662C792.885 815.286 711.656 770.254 618.496 693.797C525.315 617.323 472.808 561.981 446.472 521.343C420.134 480.704 420.049 454.909 431.404 437.382Z" stroke="white"/>
            </g>
        </g>
        <path d="M379.316 500.497C369.043 472.237 365.495 442.951 376.029 416.716C367.774 441.164 371.273 467.53 380.45 492.809C391.698 523.79 411.499 553.215 428.795 575.633C471.758 631.433 524.788 677.994 578.433 723.123L578.439 723.127L578.445 723.132C651.492 780.992 729.936 832.26 818.036 864.237C839.869 872.163 880.401 886.15 919.492 891.196C939.037 893.719 958.256 894.012 974.612 890.175C984.094 887.95 992.627 884.334 999.7 878.952C993.531 884.122 986.062 887.86 977.692 890.441C962.68 895.072 944.799 895.97 926.41 894.731C889.633 892.254 850.965 881.24 829.465 874.648L829.319 875.126L829.465 874.648C739.705 847.214 656.424 797.168 583.687 738.755L583.377 739.141L583.687 738.755C528.709 694.639 476.041 646.305 432.59 590.629L432.587 590.626C413.787 566.991 391.689 534.535 379.316 500.497Z" stroke="white"/>
        <path d="M92.6219 1209.56L98.9692 1228.45H86.2745L92.6219 1209.56ZM77.3167 1242.57H81.5141L85.046 1231.99H100.146L103.73 1242.57H108.132L95.7443 1205.86H89.9089L77.3167 1242.57Z" fill="white"/>
        <path d="M132.88 1242.93C134.62 1242.93 135.644 1242.67 136.514 1242.36V1238.77C135.593 1239.13 134.569 1239.33 133.238 1239.33C131.088 1239.33 129.911 1238.05 129.911 1235.43V1219.31H136.156V1215.72H129.911V1209.61H125.662V1215.72H121.823V1219.31H125.662V1235.84C125.662 1240.05 128.017 1242.93 132.88 1242.93Z" fill="white"/>
        <path d="M152.509 1243.03C160.136 1243.03 165.715 1237.43 165.715 1229.32V1228.91C165.715 1220.85 160.136 1215.26 152.56 1215.26C144.984 1215.26 139.405 1220.9 139.405 1228.96V1229.37C139.405 1237.23 144.882 1243.03 152.509 1243.03ZM152.56 1239.49C147.134 1239.49 143.807 1235.48 143.807 1229.37V1228.96C143.807 1222.8 147.185 1218.8 152.56 1218.8C157.884 1218.8 161.313 1222.8 161.313 1229.01V1229.37C161.313 1235.43 157.935 1239.49 152.56 1239.49Z" fill="white"/>
        <path d="M181.866 1243.03C189.493 1243.03 195.073 1237.43 195.073 1229.32V1228.91C195.073 1220.85 189.493 1215.26 181.917 1215.26C174.341 1215.26 168.762 1220.9 168.762 1228.96V1229.37C168.762 1237.23 174.239 1243.03 181.866 1243.03ZM181.917 1239.49C176.491 1239.49 173.164 1235.48 173.164 1229.37V1228.96C173.164 1222.8 176.543 1218.8 181.917 1218.8C187.241 1218.8 190.67 1222.8 190.67 1229.01V1229.37C190.67 1235.43 187.292 1239.49 181.917 1239.49Z" fill="white"/>
        <path d="M200.218 1242.57H204.518V1202.88H200.218V1242.57Z" fill="white"/>
        <path d="M211.677 1242.57H215.925V1228.66L227.801 1242.57H232.971L220.532 1228.19L231.998 1215.72H227.033L215.925 1228.09V1202.88H211.677V1242.57Z" fill="white"/>
        <path d="M238.685 1210.12C240.22 1210.12 241.5 1208.84 241.5 1207.3C241.5 1205.76 240.22 1204.48 238.685 1204.48C237.149 1204.48 235.869 1205.76 235.869 1207.3C235.869 1208.84 237.149 1210.12 238.685 1210.12ZM236.637 1242.57H240.886V1215.72H236.637V1242.57Z" fill="white"/>
        <path d="M256.185 1242.93C257.925 1242.93 258.949 1242.67 259.819 1242.36V1238.77C258.898 1239.13 257.874 1239.33 256.543 1239.33C254.393 1239.33 253.216 1238.05 253.216 1235.43V1219.31H259.461V1215.72H253.216V1209.61H248.968V1215.72H245.128V1219.31H248.968V1235.84C248.968 1240.05 251.322 1242.93 256.185 1242.93Z" fill="white"/>
        <path d="M277.639 1242.57H281.887V1219.31H288.439V1215.72H281.887V1210.89C281.887 1208.17 283.014 1206.27 285.778 1206.27C286.955 1206.27 288.03 1206.53 288.798 1206.84V1203.24C287.723 1202.88 287.006 1202.73 285.624 1202.73C280.301 1202.73 277.639 1205.91 277.639 1211.35V1215.72H273.8V1219.31H277.639V1242.57Z" fill="white"/>
        <path d="M302.686 1243.03C310.313 1243.03 315.892 1237.43 315.892 1229.32V1228.91C315.892 1220.85 310.313 1215.26 302.737 1215.26C295.161 1215.26 289.582 1220.9 289.582 1228.96V1229.37C289.582 1237.23 295.059 1243.03 302.686 1243.03ZM302.737 1239.49C297.311 1239.49 293.984 1235.48 293.984 1229.37V1228.96C293.984 1222.8 297.362 1218.8 302.737 1218.8C308.06 1218.8 311.49 1222.8 311.49 1229.01V1229.37C311.49 1235.43 308.112 1239.49 302.737 1239.49Z" fill="white"/>
        <path d="M320.935 1242.57H325.184V1227.83C325.184 1221.21 328.613 1219.52 333.988 1219.26V1215.26C329.176 1215.41 326.873 1217.52 325.184 1220.54V1215.72H320.935V1242.57Z" fill="white"/>
        <path d="M350.656 1242.57H354.905V1226.14C354.905 1221.31 358.488 1218.95 361.969 1218.95C365.654 1218.95 367.65 1220.9 367.65 1225.63V1242.57H371.899V1226.14C371.899 1221.31 375.482 1218.95 378.963 1218.95C382.649 1218.95 384.645 1220.9 384.645 1225.63V1242.57H388.893V1225.93C388.893 1218.13 384.696 1215.26 379.884 1215.26C376.557 1215.26 372.565 1216.8 370.722 1220.29C369.34 1216.69 366.32 1215.26 362.89 1215.26C359.051 1215.26 356.133 1217.31 354.905 1219.83V1215.72H350.656V1242.57Z" fill="white"/>
        <path d="M402.825 1239.64C399.088 1239.64 397.757 1237.9 397.757 1235.12C397.757 1231.17 401.698 1229.84 407.073 1229.84H410.759V1233.17C410.759 1237.33 407.329 1239.64 402.825 1239.64ZM402.415 1243.03C406.357 1243.03 408.762 1241.7 410.759 1239.18V1242.57H415.007V1224.86C415.007 1217.36 410.349 1215.26 405.23 1215.26C400.06 1215.26 395.198 1217.52 394.635 1223.62H398.883C399.293 1220.34 401.34 1218.8 405.026 1218.8C409.121 1218.8 410.759 1220.6 410.759 1224.86V1226.81H406.92C400.06 1226.81 393.508 1228.91 393.508 1235.12C393.508 1240.62 397.45 1243.03 402.415 1243.03Z" fill="white"/>
        <path d="M421.817 1242.57H426.066V1228.66L437.942 1242.57H443.112L430.673 1228.19L442.139 1215.72H437.174L426.066 1228.09V1202.88H421.817V1242.57Z" fill="white"/>
        <path d="M456.63 1243.03C462.67 1243.03 467.124 1240.21 468.045 1234.82H463.796C463.233 1237.95 460.827 1239.49 456.681 1239.49C451.204 1239.49 448.286 1236.1 448.082 1229.99H468.25V1228.6C468.25 1219 462.414 1215.26 456.22 1215.26C448.849 1215.26 443.679 1220.9 443.679 1229.01V1229.43C443.679 1237.69 449.054 1243.03 456.63 1243.03ZM448.235 1226.55C448.952 1221.78 451.869 1218.8 456.22 1218.8C460.623 1218.8 463.489 1221.01 463.899 1226.55H448.235Z" fill="white"/>
        <path d="M473.233 1242.57H477.482V1227.83C477.482 1221.21 480.911 1219.52 486.286 1219.26V1215.26C481.475 1215.41 479.171 1217.52 477.482 1220.54V1215.72H473.233V1242.57Z" fill="white"/>
        <path d="M498.986 1243.03C505.487 1243.03 508.814 1239.74 508.814 1234.87C508.814 1229.17 504.923 1227.94 499.395 1226.91C494.481 1226.04 493.15 1225.06 493.15 1222.65C493.15 1220.34 495.147 1218.8 498.218 1218.8C501.596 1218.8 503.234 1220.08 503.848 1223.01H507.944C507.227 1217.21 503.081 1215.26 498.269 1215.26C494.072 1215.26 489.209 1217.82 489.209 1222.8C489.209 1227.47 491.563 1229.43 498.525 1230.71C502.671 1231.48 504.77 1232.4 504.77 1235.23C504.77 1238.1 502.978 1239.49 498.934 1239.49C494.635 1239.49 492.945 1237.49 492.638 1234.3H488.492C488.748 1239.8 492.587 1243.03 498.986 1243.03Z" fill="white"/>
        <path d="M533.902 1242.93C535.642 1242.93 536.666 1242.67 537.536 1242.36V1238.77C536.615 1239.13 535.591 1239.33 534.26 1239.33C532.11 1239.33 530.933 1238.05 530.933 1235.43V1219.31H537.178V1215.72H530.933V1209.61H526.684V1215.72H522.845V1219.31H526.684V1235.84C526.684 1240.05 529.039 1242.93 533.902 1242.93Z" fill="white"/>
        <path d="M553.531 1243.03C561.158 1243.03 566.737 1237.43 566.737 1229.32V1228.91C566.737 1220.85 561.158 1215.26 553.582 1215.26C546.006 1215.26 540.427 1220.9 540.427 1228.96V1229.37C540.427 1237.23 545.904 1243.03 553.531 1243.03ZM553.582 1239.49C548.156 1239.49 544.829 1235.48 544.829 1229.37V1228.96C544.829 1222.8 548.207 1218.8 553.582 1218.8C558.906 1218.8 562.335 1222.8 562.335 1229.01V1229.37C562.335 1235.43 558.957 1239.49 553.582 1239.49Z" fill="white"/>
        <path d="M592.084 1243.03C598.585 1243.03 601.912 1239.74 601.912 1234.87C601.912 1229.17 598.022 1227.94 592.493 1226.91C587.579 1226.04 586.248 1225.06 586.248 1222.65C586.248 1220.34 588.245 1218.8 591.316 1218.8C594.694 1218.8 596.332 1220.08 596.947 1223.01H601.042C600.325 1217.21 596.179 1215.26 591.367 1215.26C587.17 1215.26 582.307 1217.82 582.307 1222.8C582.307 1227.47 584.662 1229.43 591.623 1230.71C595.769 1231.48 597.868 1232.4 597.868 1235.23C597.868 1238.1 596.076 1239.49 592.033 1239.49C587.733 1239.49 586.044 1237.49 585.737 1234.3H581.59C581.846 1239.8 585.685 1243.03 592.084 1243.03Z" fill="white"/>
        <path d="M606.85 1242.57H611.099V1226.29C611.099 1221.47 614.63 1218.95 618.572 1218.95C622.872 1218.95 624.868 1221.06 624.868 1225.78V1242.57H629.117V1226.09C629.117 1218.29 625.226 1215.26 619.698 1215.26C615.296 1215.26 612.327 1217.46 611.099 1219.98V1202.88H606.85V1242.57Z" fill="white"/>
        <path d="M638.057 1210.12C639.593 1210.12 640.872 1208.84 640.872 1207.3C640.872 1205.76 639.593 1204.48 638.057 1204.48C636.521 1204.48 635.242 1205.76 635.242 1207.3C635.242 1208.84 636.521 1210.12 638.057 1210.12ZM636.009 1242.57H640.258V1215.72H636.009V1242.57Z" fill="white"/>
        <path d="M660.318 1239.49C655.097 1239.49 651.513 1236.25 651.513 1229.37V1228.96C651.513 1222.08 655.301 1218.8 660.267 1218.8C664.771 1218.8 668.508 1222.19 668.508 1228.96V1229.37C668.508 1235.89 665.641 1239.49 660.318 1239.49ZM647.418 1251.91H651.667V1238.15C653.203 1240.82 656.325 1243.03 660.727 1243.03C668.098 1243.03 672.91 1237.38 672.91 1229.17V1228.76C672.91 1220.39 667.74 1215.26 660.727 1215.26C656.837 1215.26 653.203 1217.62 651.667 1220.24V1215.72H647.418V1251.91Z" fill="white"/>
        <path d="M93.0825 1314.81C100.454 1314.81 105.265 1309.16 105.265 1300.95V1300.54C105.265 1292.17 100.095 1287.03 93.0825 1287.03C89.1923 1287.03 85.5579 1289.4 84.0223 1292.01V1274.66H79.7737V1314.35H84.0223V1309.93C85.5579 1312.6 88.7316 1314.81 93.0825 1314.81ZM92.673 1311.27C87.4519 1311.27 83.8687 1308.03 83.8687 1301.15V1300.74C83.8687 1293.86 87.6566 1290.58 92.6219 1290.58C97.1264 1290.58 100.863 1293.96 100.863 1300.74V1301.15C100.863 1307.67 97.9966 1311.27 92.673 1311.27Z" fill="white"/>
        <path d="M121.285 1314.81C127.325 1314.81 131.778 1311.98 132.7 1306.59H128.451C127.888 1309.73 125.482 1311.27 121.336 1311.27C115.859 1311.27 112.941 1307.88 112.736 1301.77H132.904V1300.38C132.904 1290.78 127.069 1287.03 120.875 1287.03C113.504 1287.03 108.334 1292.68 108.334 1300.79V1301.2C108.334 1309.47 113.709 1314.81 121.285 1314.81ZM112.89 1298.33C113.607 1293.55 116.524 1290.58 120.875 1290.58C125.277 1290.58 128.144 1292.78 128.553 1298.33H112.89Z" fill="white"/>
        <path d="M146.027 1314.71C147.767 1314.71 148.791 1314.45 149.661 1314.14V1310.55C148.74 1310.91 147.716 1311.11 146.385 1311.11C144.235 1311.11 143.058 1309.83 143.058 1307.21V1291.09H149.303V1287.5H143.058V1281.39H138.809V1287.5H134.97V1291.09H138.809V1307.62C138.809 1311.83 141.164 1314.71 146.027 1314.71Z" fill="white"/>
        <path d="M162.687 1314.71C164.427 1314.71 165.451 1314.45 166.321 1314.14V1310.55C165.4 1310.91 164.376 1311.11 163.045 1311.11C160.895 1311.11 159.718 1309.83 159.718 1307.21V1291.09H165.963V1287.5H159.718V1281.39H155.47V1287.5H151.63V1291.09H155.47V1307.62C155.47 1311.83 157.824 1314.71 162.687 1314.71Z" fill="white"/>
        <path d="M182.162 1314.81C188.203 1314.81 192.656 1311.98 193.577 1306.59H189.329C188.766 1309.73 186.36 1311.27 182.214 1311.27C176.737 1311.27 173.819 1307.88 173.614 1301.77H193.782V1300.38C193.782 1290.78 187.947 1287.03 181.753 1287.03C174.382 1287.03 169.212 1292.68 169.212 1300.79V1301.2C169.212 1309.47 174.587 1314.81 182.162 1314.81ZM173.768 1298.33C174.484 1293.55 177.402 1290.58 181.753 1290.58C186.155 1290.58 189.022 1292.78 189.431 1298.33H173.768Z" fill="white"/>
        <path d="M198.766 1314.35H203.014V1299.61C203.014 1292.99 206.444 1291.3 211.819 1291.04V1287.03C207.007 1287.19 204.704 1289.29 203.014 1292.32V1287.5H198.766V1314.35Z" fill="white"/>
        <path d="M241.386 1311.27C236.165 1311.27 232.582 1308.03 232.582 1301.15V1300.74C232.582 1293.86 236.37 1290.58 241.335 1290.58C245.839 1290.58 249.576 1293.96 249.576 1300.74V1301.15C249.576 1307.67 246.71 1311.27 241.386 1311.27ZM228.487 1323.69H232.735V1309.93C234.271 1312.6 237.393 1314.81 241.796 1314.81C249.167 1314.81 253.978 1309.16 253.978 1300.95V1300.54C253.978 1292.17 248.808 1287.03 241.796 1287.03C237.905 1287.03 234.271 1289.4 232.735 1292.01V1287.5H228.487V1323.69Z" fill="white"/>
        <path d="M259.044 1314.35H263.292V1299.61C263.292 1292.99 266.722 1291.3 272.097 1291.04V1287.03C267.285 1287.19 264.981 1289.29 263.292 1292.32V1287.5H259.044V1314.35Z" fill="white"/>
        <path d="M287.111 1314.81C294.738 1314.81 300.318 1309.21 300.318 1301.1V1300.69C300.318 1292.63 294.738 1287.03 287.163 1287.03C279.587 1287.03 274.007 1292.68 274.007 1300.74V1301.15C274.007 1309.01 279.484 1314.81 287.111 1314.81ZM287.163 1311.27C281.737 1311.27 278.409 1307.26 278.409 1301.15V1300.74C278.409 1294.58 281.788 1290.58 287.163 1290.58C292.486 1290.58 295.916 1294.58 295.916 1300.79V1301.15C295.916 1307.21 292.537 1311.27 287.163 1311.27Z" fill="white"/>
        <path d="M315.905 1311.27C311.401 1311.27 307.767 1308.03 307.767 1301.25V1300.84C307.767 1294.32 310.94 1290.58 316.264 1290.58C321.485 1290.58 324.761 1293.81 324.761 1300.69V1301.1C324.761 1307.98 320.871 1311.27 315.905 1311.27ZM315.445 1314.81C319.335 1314.81 323.072 1312.34 324.607 1309.73V1314.35H328.856V1274.66H324.607V1291.81C323.072 1289.19 320.308 1287.03 315.854 1287.03C308.483 1287.03 303.364 1292.84 303.364 1301.05V1301.46C303.364 1309.83 308.432 1314.81 315.445 1314.81Z" fill="white"/>
        <path d="M344.978 1314.81C349.278 1314.81 352.247 1312.6 353.475 1310.08V1314.35H357.724V1287.5H353.475V1303.77C353.475 1308.6 349.892 1311.11 346.104 1311.11C341.907 1311.11 339.91 1309.01 339.91 1304.28V1287.5H335.662V1304.49C335.662 1311.88 339.654 1314.81 344.978 1314.81Z" fill="white"/>
        <path d="M375.883 1314.81C382.332 1314.81 386.99 1310.5 387.553 1304.69H383.612C383.151 1309.06 379.722 1311.27 375.934 1311.27C370.764 1311.27 367.181 1307.77 367.181 1301.2V1300.79C367.181 1294.48 370.917 1290.58 375.78 1290.58C379.466 1290.58 382.537 1292.17 383.202 1296.43H387.4C386.581 1289.6 381.36 1287.03 375.78 1287.03C368.614 1287.03 362.778 1292.58 362.778 1300.79V1301.2C362.778 1309.52 368.409 1314.81 375.883 1314.81Z" fill="white"/>
        <path d="M400.571 1314.71C402.312 1314.71 403.335 1314.45 404.205 1314.14V1310.55C403.284 1310.91 402.26 1311.11 400.929 1311.11C398.78 1311.11 397.602 1309.83 397.602 1307.21V1291.09H403.847V1287.5H397.602V1281.39H393.354V1287.5H389.515V1291.09H393.354V1307.62C393.354 1311.83 395.708 1314.71 400.571 1314.71Z" fill="white"/>
        <path d="M417.385 1314.81C423.886 1314.81 427.213 1311.52 427.213 1306.65C427.213 1300.95 423.323 1299.71 417.794 1298.69C412.88 1297.82 411.549 1296.84 411.549 1294.43C411.549 1292.12 413.546 1290.58 416.617 1290.58C419.995 1290.58 421.633 1291.86 422.248 1294.79H426.343C425.626 1288.99 421.48 1287.03 416.668 1287.03C412.471 1287.03 407.608 1289.6 407.608 1294.58C407.608 1299.25 409.963 1301.2 416.924 1302.49C421.07 1303.26 423.169 1304.18 423.169 1307C423.169 1309.88 421.377 1311.27 417.334 1311.27C413.034 1311.27 411.345 1309.26 411.038 1306.08H406.891C407.147 1311.57 410.986 1314.81 417.385 1314.81Z" fill="white"/>
        <path d="M445.083 1314.35H449.332V1291.09H455.884V1287.5H449.332V1282.67C449.332 1279.95 450.458 1278.05 453.222 1278.05C454.4 1278.05 455.475 1278.31 456.242 1278.61V1275.02C455.168 1274.66 454.451 1274.51 453.069 1274.51C447.745 1274.51 445.083 1277.69 445.083 1283.13V1287.5H441.244V1291.09H445.083V1314.35Z" fill="white"/>
        <path d="M466.938 1311.42C463.201 1311.42 461.87 1309.67 461.87 1306.9C461.87 1302.95 465.811 1301.61 471.186 1301.61H474.872V1304.95C474.872 1309.11 471.442 1311.42 466.938 1311.42ZM466.528 1314.81C470.47 1314.81 472.875 1313.47 474.872 1310.96V1314.35H479.12V1296.63C479.12 1289.14 474.462 1287.03 469.343 1287.03C464.173 1287.03 459.311 1289.29 458.747 1295.4H462.996C463.406 1292.12 465.453 1290.58 469.139 1290.58C473.234 1290.58 474.872 1292.37 474.872 1296.63V1298.59H471.033C464.173 1298.59 457.621 1300.69 457.621 1306.9C457.621 1312.4 461.563 1314.81 466.528 1314.81Z" fill="white"/>
        <path d="M494.223 1314.81C500.724 1314.81 504.051 1311.52 504.051 1306.65C504.051 1300.95 500.161 1299.71 494.632 1298.69C489.718 1297.82 488.387 1296.84 488.387 1294.43C488.387 1292.12 490.384 1290.58 493.455 1290.58C496.833 1290.58 498.471 1291.86 499.086 1294.79H503.181C502.464 1288.99 498.318 1287.03 493.506 1287.03C489.309 1287.03 484.446 1289.6 484.446 1294.58C484.446 1299.25 486.8 1301.2 493.762 1302.49C497.908 1303.26 500.007 1304.18 500.007 1307C500.007 1309.88 498.215 1311.27 494.172 1311.27C489.872 1311.27 488.183 1309.26 487.875 1306.08H483.729C483.985 1311.57 487.824 1314.81 494.223 1314.81Z" fill="white"/>
        <path d="M517.128 1314.71C518.868 1314.71 519.892 1314.45 520.762 1314.14V1310.55C519.841 1310.91 518.817 1311.11 517.486 1311.11C515.336 1311.11 514.159 1309.83 514.159 1307.21V1291.09H520.404V1287.5H514.159V1281.39H509.91V1287.5H506.071V1291.09H509.91V1307.62C509.91 1311.83 512.265 1314.71 517.128 1314.71Z" fill="white"/>
        <path d="M536.603 1314.81C542.643 1314.81 547.097 1311.98 548.018 1306.59H543.77C543.206 1309.73 540.801 1311.27 536.654 1311.27C531.177 1311.27 528.26 1307.88 528.055 1301.77H548.223V1300.38C548.223 1290.78 542.387 1287.03 536.194 1287.03C528.823 1287.03 523.653 1292.68 523.653 1300.79V1301.2C523.653 1309.47 529.027 1314.81 536.603 1314.81ZM528.208 1298.33C528.925 1293.55 531.843 1290.58 536.194 1290.58C540.596 1290.58 543.462 1292.78 543.872 1298.33H528.208Z" fill="white"/>
        <path d="M553.207 1314.35H557.455V1299.61C557.455 1292.99 560.885 1291.3 566.259 1291.04V1287.03C561.448 1287.19 559.144 1289.29 557.455 1292.32V1287.5H553.207V1314.35Z" fill="white"/>
        <path d="M570.785 1314.6C572.576 1314.6 574.061 1313.17 574.061 1311.32C574.061 1309.47 572.576 1308.03 570.785 1308.03C568.993 1308.03 567.509 1309.47 567.509 1311.32C567.509 1313.17 568.993 1314.6 570.785 1314.6Z" fill="white"/>
        <path d="M154.981 1106.82C202.699 1106.82 232.975 1088.44 232.975 1047.72C232.975 1010.95 209.939 998.47 162.221 992.56C141.16 989.933 133.261 986.65 133.261 978.441C133.261 970.561 139.843 964.979 152.678 964.979C166.17 964.979 172.423 970.561 174.727 982.053H228.039C224.09 941.011 194.472 926.564 152.02 926.564C112.2 926.564 78.3036 944.951 78.3036 983.038C78.3036 1018.83 97.7199 1032.29 143.792 1038.2C167.487 1041.48 175.714 1045.42 175.714 1053.63C175.714 1062.17 169.132 1067.75 154.652 1067.75C137.869 1067.75 132.274 1060.86 130.3 1048.38H76C77.3164 1086.47 105.947 1106.82 154.981 1106.82Z" fill="white"/>
        <path d="M244.219 1102.88H303.126V1006.68C303.126 984.68 314.973 974.173 332.415 974.173C349.527 974.173 357.096 983.695 357.096 1003.07V1102.88H416.003V991.247C416.003 947.249 392.967 926.564 359.729 926.564C331.098 926.564 312.34 941.011 303.126 958.741V855.642H244.219V1102.88Z" fill="white"/>
        <path d="M460.268 914.743C478.697 914.743 492.847 901.938 492.847 884.536C492.847 867.134 478.697 854 460.268 854C441.839 854 428.017 867.134 428.017 884.536C428.017 901.938 441.839 914.743 460.268 914.743ZM430.979 1102.88H489.886V931.16H430.979V1102.88Z" fill="white"/>
        <path d="M596.21 1061.84C574.819 1061.84 561.984 1047.06 561.984 1017.84V1015.22C561.984 986.322 574.819 970.89 596.21 970.89C616.942 970.89 630.106 985.337 630.106 1015.54V1018.17C630.106 1046.41 618.259 1061.84 596.21 1061.84ZM504.723 1160.34H563.63V1077.6C572.186 1094.67 590.944 1106.82 616.942 1106.82C657.42 1106.82 690 1077.27 690 1018.17V1015.54C690 956.771 657.42 926.564 617.271 926.564C591.273 926.564 573.502 940.354 563.63 956.771V931.16H504.723V1160.34Z" fill="white"/>
    </g>
    <defs>
        <clipPath id="clip0_3515_7446">
            <rect width="1400" height="1400" fill="white"/>
        </clipPath>
    </defs>
</svg>
