<svg width="24" height="24" viewBox="0 0 24 24" fill="none" xmlns="http://www.w3.org/2000/svg">
    <path fill-rule="evenodd" clip-rule="evenodd" d="M12 23C18.0751 23 23 18.0751 23 12C23 5.92487 18.0751 1 12 1C5.92487 1 1 5.92487 1 12C1 18.0751 5.92487 23 12 23ZM10.7 6.8C10.7 6.08203 11.282 5.5 12 5.5C12.7179 5.5 13.3 6.08203 13.3 6.8V13.2C13.3 13.918 12.7179 14.5 12 14.5C11.282 14.5 10.7 13.918 10.7 13.2V6.8ZM13.3 17C13.3 17.7179 12.7179 18.3 12 18.3C11.282 18.3 10.7 17.7179 10.7 17C10.7 16.282 11.282 15.7 12 15.7C12.7179 15.7 13.3 16.282 13.3 17Z" fill="currentColor"/>
</svg>
