<svg width="24" height="24" viewBox="0 0 24 24" fill="none" xmlns="http://www.w3.org/2000/svg">
  <path d="M6.25069 6.24985C6.58538 5.91672 7.12825 5.91672 7.46294 6.24984L11.8405 10.607L16.218 6.2499C16.5527 5.91677 17.0956 5.91678 17.4303 6.24991C17.7646 6.58259 17.7646 7.12176 17.4303 7.45451L13.0518 11.8125L17.4303 16.1705C17.7646 16.5033 17.7646 17.0424 17.4303 17.3752C17.0956 17.7083 16.5527 17.7083 16.218 17.3752L11.8405 13.0181L7.46294 17.3752C7.12825 17.7083 6.58538 17.7083 6.25069 17.3752C5.91645 17.0425 5.91644 16.5033 6.2507 16.1705L10.6292 11.8125L6.25069 7.45445C5.91645 7.12177 5.91643 6.58259 6.25069 6.24985Z" fill="currentColor"/>
</svg>
