<svg width="48" height="48" fill="none" xmlns="http://www.w3.org/2000/svg">
  <path fill-rule="evenodd" clip-rule="evenodd" d="M6.545 2.618a3.927 3.927 0 00-3.927 3.927v34.91a3.927 3.927 0 003.927 3.927h27.928a3.927 3.927 0 003.927-3.927v-.873a1.31 1.31 0 112.618 0v.873A6.545 6.545 0 0134.473 48H6.545A6.545 6.545 0 010 41.455V6.545A6.545 6.545 0 016.545 0h20.399c1.826 0 3.57.763 4.81 2.106l7.528 8.156a6.546 6.546 0 011.736 4.44v4.062a1.31 1.31 0 11-2.618 0v-3.491H27.927a1.31 1.31 0 01-1.309-1.31V2.619H6.545zm30.814 9.42c.176.191.331.398.465.617h-8.588V3.357c.214.153.412.329.593.525l7.53 8.156z" fill="currentColor"/>
  <path d="M38.783 21.765l-6.585 6.586a1.31 1.31 0 001.851 1.851l4.351-4.35v10.802a1.31 1.31 0 102.618 0V25.851l4.351 4.351a1.309 1.309 0 101.851-1.851l-6.585-6.586a1.31 1.31 0 00-1.852 0z" fill="currentColor"/>
</svg>
