<svg xmlns="http://www.w3.org/2000/svg" width="64" height="32" viewBox="0 0 64 32" fill="none">
    <path d="M8.23258 26.4094C13.2064 26.4094 16.3623 24.4887 16.3623 20.2358C16.3623 16.3944 13.9611 15.0911 8.98723 14.4737C6.79188 14.1994 5.96862 13.8564 5.96862 12.9989C5.96862 12.1758 6.65467 11.5927 7.99246 11.5927C9.39886 11.5927 10.0506 12.1758 10.2907 13.3762H15.8477C15.4361 9.08896 12.3489 7.57985 7.92386 7.57985C3.77327 7.57985 0.240117 9.50053 0.240117 13.4791C0.240117 17.2176 2.26396 18.6238 7.0663 19.2412C9.53607 19.5841 10.3936 19.9957 10.3936 20.8532C10.3936 21.7449 9.70758 22.328 8.19828 22.328C6.44885 22.328 5.86571 21.6077 5.6599 20.3044H0C0.13721 24.283 3.12152 26.4094 8.23258 26.4094Z" fill="black"/>
    <path d="M17.5342 25.9979H23.6743V15.9486C23.6743 13.6506 24.9092 12.5531 26.7273 12.5531C28.511 12.5531 29.2999 13.5477 29.2999 15.5713V25.9979H35.4401V14.3365C35.4401 9.74062 33.0389 7.57985 29.5744 7.57985C26.59 7.57985 24.6348 9.08896 23.6743 10.9411V0.17149H17.5342V25.9979Z" fill="black"/>
    <path d="M40.054 6.34512C41.9749 6.34512 43.4499 5.0075 43.4499 3.18971C43.4499 1.37192 41.9749 0 40.054 0C38.133 0 36.6923 1.37192 36.6923 3.18971C36.6923 5.0075 38.133 6.34512 40.054 6.34512ZM37.0011 25.9979H43.1412V8.06002H37.0011V25.9979Z" fill="black"/>
    <path d="M54.2238 21.7106C51.9942 21.7106 50.6564 20.1672 50.6564 17.1147V16.8403C50.6564 13.8221 51.9942 12.2101 54.2238 12.2101C56.3849 12.2101 57.757 13.7192 57.757 16.8746V17.149C57.757 20.0986 56.5221 21.7106 54.2238 21.7106ZM44.6877 32H50.8279V23.3569C51.7197 25.1404 53.675 26.4094 56.3849 26.4094C60.6041 26.4094 64 23.3226 64 17.149V16.8746C64 10.7353 60.6041 7.57985 56.4192 7.57985C53.7093 7.57985 51.8569 9.02036 50.8279 10.7353V8.06002H44.6877V32Z" fill="black"/>
</svg>
