<svg width="25" height="24" viewBox="0 0 25 24" fill="none" xmlns="http://www.w3.org/2000/svg">
<path d="M21.3089 12.2025C21.3089 11.61 21.2564 11.0475 21.1664 10.5H12.6914V13.8825H17.5439C17.3264 14.9925 16.6889 15.93 15.7439 16.5675V18.8175H18.6389C20.3339 17.25 21.3089 14.94 21.3089 12.2025Z" fill="#4285F4"/>
<path d="M12.6917 21C15.1217 21 17.1542 20.19 18.6392 18.8175L15.7442 16.5675C14.9342 17.1075 13.9067 17.4375 12.6917 17.4375C10.3442 17.4375 8.35668 15.855 7.64418 13.7175H4.65918V16.035C6.13668 18.975 9.17418 21 12.6917 21Z" fill="#34A853"/>
<path d="M7.64391 13.7175C7.45641 13.1775 7.35891 12.6 7.35891 12C7.35891 11.4 7.46391 10.8225 7.64391 10.2825V7.965H4.65891C4.04391 9.18 3.69141 10.545 3.69141 12C3.69141 13.455 4.04391 14.82 4.65891 16.035L7.64391 13.7175Z" fill="#FBBC05"/>
<path d="M12.6917 6.5625C14.0192 6.5625 15.2042 7.02 16.1417 7.9125L18.7067 5.3475C17.1542 3.8925 15.1217 3 12.6917 3C9.17418 3 6.13668 5.025 4.65918 7.965L7.64418 10.2825C8.35668 8.145 10.3442 6.5625 12.6917 6.5625Z" fill="#EA4335"/>
</svg>
