<svg width="24" height="24" viewBox="0 0 24 24" fill="none" xmlns="http://www.w3.org/2000/svg">
  <path d="M18.5471 7.10713C18.9377 6.71661 18.9377 6.08344 18.5471 5.69292C18.1566 5.30239 17.5234 5.30239 17.1329 5.69292L5.54714 17.2787C5.15661 17.6692 5.15661 18.3024 5.54714 18.6929C5.93766 19.0834 6.57082 19.0834 6.96135 18.6929L18.5471 7.10713Z" fill="currentColor"/>
  <path d="M3.89006 14.3797C4.25397 14.7713 5.24351 14.7539 5.62147 14.3759L12.5104 7.487C13.0651 6.93226 12.7853 5.80558 12.0009 5.79C11.9474 5.78894 11.8938 5.79 11.8401 5.79C6.64697 5.92259 2.54001 10.6078 2.54001 12C2.54001 12.5021 2.98698 13.4082 3.89006 14.3797Z" fill="currentColor"/>
  <path d="M11.478 17.0047C11.1108 17.3719 11.3208 18.27 11.8401 18.27C17.3401 18.27 21.2401 13.2969 21.2401 11.9858C21.2401 11.2969 20.4813 10.3759 19.8488 9.6C19.4994 9.17139 18.8593 9.62341 18.4683 10.0144L11.478 17.0047Z" fill="currentColor"/>
</svg>
