<svg width="24" height="24" viewBox="0 0 24 24" fill="none" xmlns="http://www.w3.org/2000/svg">
  <path fill-rule="evenodd" clip-rule="evenodd" d="M17.8694 4.31314C16.7564 3.20014 14.9519 3.20015 13.8389 4.31314L5.12263 13.0294C4.69323 13.4588 4.41221 14.0141 4.32054 14.6144L3.96661 16.9322C3.67634 18.8331 5.31327 20.47 7.21417 20.1797L9.5319 19.8258C10.1322 19.7341 10.6875 19.4531 11.1169 19.0237L19.8332 10.3075C20.9462 9.19446 20.9462 7.38994 19.8332 6.27694L17.8694 4.31314ZM15.041 5.51522C15.4901 5.06612 16.2182 5.06612 16.6673 5.51522L18.6311 7.47902C19.0802 7.92813 19.0802 8.65627 18.6311 9.10537L17.2371 10.4994L13.6469 6.9093L15.041 5.51522ZM12.4448 8.11138L6.32471 14.2315C6.15144 14.4048 6.03805 14.6288 6.00106 14.8711L5.64713 17.1888C5.53 17.9558 6.19052 18.6163 6.95755 18.4992L9.27528 18.1453C9.51751 18.1083 9.74159 17.9949 9.91486 17.8216L16.035 11.7015L12.4448 8.11138Z" fill="currentColor"/>
</svg>
