<svg width="24" height="24" viewBox="0 0 24 24" fill="none" xmlns="http://www.w3.org/2000/svg">
  <path d="M11.86 9.98005C13.0088 9.98005 13.94 10.9113 13.94 12.06C13.94 13.2088 13.0088 14.14 11.86 14.14C10.7112 14.14 9.78 13.2088 9.78 12.06C9.78 10.9113 10.7112 9.98005 11.86 9.98005Z" fill="currentColor"/>
  <path fill-rule="evenodd" clip-rule="evenodd" d="M21.22 12.06C21.22 10.842 17.2838 5.82005 11.86 5.82005C6.68901 5.82005 2.5 10.6122 2.5 12.06C2.5 13.5079 6.45919 18.1622 11.86 18.3C16.962 18.3 21.22 13.6458 21.22 12.06ZM16.02 12.06C16.02 9.76254 14.1575 7.90005 11.86 7.90005C9.5625 7.90005 7.7 9.76254 7.7 12.06C7.7 14.3576 9.5625 16.22 11.86 16.22C14.1575 16.22 16.02 14.3576 16.02 12.06Z" fill="currentColor"/>
</svg>
