<svg width="24" height="24" viewBox="0 0 24 24" fill="none" xmlns="http://www.w3.org/2000/svg">
    <path d="M10.4699 10C10.9117 10 11.2699 10.3582 11.2699 10.8L11.2699 15.2C11.2699 15.6418 10.9117 16 10.4699 16C10.0281 16 9.66992 15.6418 9.66992 15.2V10.8C9.66992 10.3582 10.0281 10 10.4699 10Z" fill="currentColor"/>
    <path d="M13.4699 10C13.9117 10 14.2699 10.3582 14.2699 10.8V15.2C14.2699 15.6418 13.9117 16 13.4699 16C13.0281 16 12.6699 15.6418 12.6699 15.2V10.8C12.6699 10.3582 13.0281 10 13.4699 10Z" fill="currentColor"/>
    <path fill-rule="evenodd" clip-rule="evenodd" d="M8.75 5.67142C8.75 4.97494 9.25218 4.34998 9.93752 4.34998H14.0625C14.7479 4.34998 15.2501 4.97493 15.25 5.67138V6.81433H17.9428C18.421 6.81433 18.75 7.24881 18.75 7.70719C18.75 8.16556 18.421 8.60006 17.9429 8.60006H17.399V18.4974L17.3978 18.5098C17.33 19.1855 16.7538 19.7071 16.08 19.7071L7.96821 19.7071C7.29527 19.7071 6.71828 19.1864 6.65127 18.5175L6.65002 18.5051L6.65008 8.60006H6.05715C5.57895 8.60006 5.25 8.16556 5.25 7.70719C5.25 7.24883 5.57895 6.81433 6.05715 6.81433H8.75V5.67142ZM13.625 6.13567V6.81433H10.375V6.13567H13.625ZM8.41234 8.60006H15.6358V17.9214L8.41234 17.9214V8.60006Z" fill="currentColor"/>
</svg>
