<svg width="956" height="781" viewBox="0 0 956 781" fill="none" xmlns="http://www.w3.org/2000/svg">
<path d="M91.0256 106.366L161.701 4.67131L602.319 10.2361L479.558 213.928L93.5428 117.65L91.0256 106.366Z" stroke="#CED4DA"/>
<path d="M588.45 34.1419L361.707 19.142L352.638 7.08226L602.335 10.2362L588.45 34.1419Z" stroke="#CED4DA"/>
<path d="M591.419 21.77C592.036 20.894 592.351 19.841 592.317 18.77L598.123 18.3473L549.822 101.655L371.041 78.3694L326.077 6.23673L332.966 6.30437C334.086 8.18839 335.188 9.97882 336.374 11.776L335.923 11.756L374.347 73.3782L547.076 95.776" stroke="#CED4DA"/>
<path d="M297.56 91.2209L297.684 91.4204L297.916 91.4526L496.551 119.033L488.211 137.247L257.961 105.051L280.109 63.0836L297.56 91.2209Z" stroke="#CED4DA"/>
<path d="M493.661 125.38L294.911 97.6259L276.937 68.2896L280.073 62.0784L297.985 90.9572" stroke="#CED4DA"/>
<g style="mix-blend-mode:multiply" opacity="0.6">
<path d="M91.8503 105.649L91.8503 105.649L91.8603 105.648C113.002 102.869 134.624 103.708 156.258 105.742C167.074 106.758 177.887 108.073 188.644 109.381L188.743 109.393C199.464 110.697 210.128 111.994 220.668 112.981C263.536 117.022 306.586 119.528 349.667 117.534C384.953 115.941 418.478 109.08 447.151 87.127C471.237 68.6902 487.337 42.469 503.18 16.6658C504.755 14.1004 506.327 11.5391 507.905 8.99L602.288 10.1087L479.526 213.8L93.5845 117.553L91.0668 106.267L91.4743 105.672C91.5999 105.671 91.7254 105.663 91.8503 105.649Z" stroke="#CED4DA"/>
</g>
<g style="mix-blend-mode:multiply" opacity="0.6">
<path d="M217.092 117.599L217.093 117.599C228.334 118.632 242.555 120.227 258.206 121.981C272.426 123.576 287.826 125.303 303.245 126.861C335.604 130.132 368.021 132.658 389.585 131.63C424.842 129.99 469.147 124.455 497.806 102.5C511.105 92.3117 527.367 72.564 533.455 53.4445C536.501 43.8788 537.021 34.4042 533.268 26.355C529.83 18.98 522.848 12.8926 511.161 9.02859L602.288 10.1087L479.526 213.8L93.5845 117.553L91.0681 106.272L91.4454 105.743C91.5324 105.74 91.6196 105.742 91.7066 105.747C119.184 109.089 147.567 111.525 176.143 113.977C189.775 115.147 203.45 116.321 217.092 117.599Z" stroke="#CED4DA"/>
</g>
<path d="M93.1222 118.061L90.49 106.26L514.597 154.773" stroke="#CED4DA"/>
<path d="M343.917 180.61L338.699 161.277L496.168 186.41" stroke="#CED4DA"/>
<g style="mix-blend-mode:multiply">
<path d="M93.1222 118.061L90.49 106.26L514.597 154.773" stroke="#CED4DA"/>
</g>
<g style="mix-blend-mode:multiply" opacity="0.6">
<path d="M132.048 110.506L91.3782 105.859L161.701 4.67143L235.874 5.58521L132.048 110.506Z" stroke="#CED4DA"/>
</g>
<path d="M285.492 6.24531L223.595 120.963L221.074 120.692L282.912 6.20398L285.492 6.24531Z" stroke="#CED4DA"/>
<g style="mix-blend-mode:multiply" opacity="0.5">
<path d="M264.575 24.6404L264.828 24.7483C264.463 25.0607 264.018 25.2735 263.538 25.3593C262.862 25.48 262.166 25.3407 261.589 24.9705C261.139 24.4568 260.903 23.7896 260.931 23.1062C260.959 22.4028 261.264 21.7392 261.78 21.2598L261.848 21.1959L261.889 21.1115C262.048 20.7823 262.281 20.4943 262.57 20.2699C262.859 20.0455 263.196 19.8907 263.554 19.8176C263.912 19.7444 264.283 19.7549 264.636 19.8482C264.99 19.9415 265.317 20.1152 265.593 20.3556C265.869 20.596 266.085 20.8968 266.225 21.2345C266.366 21.5722 266.427 21.9377 266.403 22.3026C266.379 22.6675 266.271 23.022 266.088 23.3385C265.905 23.655 265.651 23.925 265.347 24.1275L264.575 24.6404Z" stroke="#CED4DA"/>
</g>
<g style="mix-blend-mode:multiply" opacity="0.5">
<path d="M238.087 64.5346L238.198 64.4605L238.257 64.3408C238.42 64.0142 238.655 63.7293 238.944 63.508C239.234 63.2868 239.571 63.1351 239.929 63.0648C240.287 62.9945 240.656 63.0074 241.008 63.1025C241.36 63.1976 241.685 63.3723 241.959 63.6133C242.233 63.8542 242.447 64.1548 242.586 64.4919C242.725 64.829 242.785 65.1936 242.76 65.5574C242.736 65.9212 242.628 66.2745 242.445 66.59C242.263 66.9055 242.01 67.1748 241.706 67.3769L241.984 67.793L241.536 67.5707C241.374 67.8973 241.139 68.1823 240.849 68.4035C240.559 68.6248 240.222 68.7764 239.864 68.8467C239.507 68.9171 239.138 68.9042 238.785 68.8091C238.433 68.714 238.108 68.5392 237.834 68.2983C237.561 68.0574 237.346 67.7567 237.207 67.4195C237.068 67.0824 237.008 66.7179 237.033 66.3541C237.057 65.9903 237.165 65.637 237.348 65.3215C237.531 65.006 237.783 64.7368 238.087 64.5346Z" stroke="#CED4DA"/>
</g>
<g style="mix-blend-mode:multiply" opacity="0.5">
<path d="M223.545 104.372C223.521 105.068 223.229 105.726 222.731 106.211C222.377 106.471 221.958 106.628 221.519 106.665C221.072 106.702 220.623 106.612 220.224 106.405C219.825 106.198 219.494 105.882 219.267 105.494C219.041 105.106 218.929 104.662 218.944 104.213C218.96 103.764 219.102 103.329 219.355 102.957C219.608 102.586 219.961 102.294 220.373 102.115C220.785 101.936 221.239 101.877 221.683 101.945C222.117 102.012 222.525 102.198 222.86 102.482C223.323 103 223.569 103.677 223.545 104.372Z" stroke="#CED4DA"/>
</g>
<path d="M1226.03 -41.5302C1226.03 -41.4829 1226.03 -41.4415 1226.03 -41.4059L1084.48 121.79L708.544 -178.706L824.422 -368.37C824.454 -368.371 824.488 -368.372 824.524 -368.373C824.77 -368.38 825.138 -368.389 825.623 -368.397C826.594 -368.412 828.037 -368.421 829.918 -368.396C833.68 -368.347 839.196 -368.163 846.206 -367.625C860.226 -366.548 880.217 -364.054 904.089 -358.381C951.834 -347.036 1015.1 -322.982 1077.17 -272.14C1155.89 -207.637 1193.09 -149.87 1210.62 -108.26C1219.38 -87.4542 1223.23 -70.6833 1224.89 -59.1233C1225.72 -53.3431 1226 -48.8653 1226.07 -45.8367C1226.11 -44.3225 1226.09 -43.1705 1226.07 -42.3993C1226.06 -42.0136 1226.04 -41.7231 1226.03 -41.5302Z" stroke="#CED4DA"/>
<g style="mix-blend-mode:screen" opacity="0.4">
<path d="M979.084 -84.4565L979.083 -84.4554C958.44 -60.2972 937.63 -36.2746 916.016 -13.0215L839.522 -74.0555C850.293 -85.7983 886.724 -129.738 925.209 -178.131C963.961 -226.86 1004.83 -280.146 1023.71 -309.664C1042.43 -298.498 1060.3 -285.956 1077.17 -272.14C1091.17 -260.657 1103.79 -249.427 1115.33 -238.513C1104.83 -224.879 1076.66 -193.195 1048.19 -161.534C1039.89 -152.311 1031.58 -143.091 1023.67 -134.322C1004.19 -112.736 987.189 -93.885 979.084 -84.4565Z" stroke="#CED4DA"/>
</g>
<path d="M1011.5 -158.705L1011.49 -158.708C1009.83 -159.441 1008.26 -160.339 1006.78 -161.388L1006.78 -161.391C994.976 -169.974 993.039 -187.343 1002.31 -200.141L1002.31 -200.141C1010.21 -210.999 1024.25 -215.403 1035.74 -210.506C1035.74 -210.505 1035.74 -210.505 1035.74 -210.505L1035.54 -210.045C1037.18 -209.35 1038.73 -208.467 1040.16 -207.415L1011.5 -158.705ZM1011.5 -158.705C1022.96 -153.818 1037 -158.222 1044.91 -169.104C1054.2 -181.867 1052.23 -199.246 1040.46 -207.819L1011.5 -158.705ZM1175.63 -11.109L1175.38 -10.873L1175.51 -10.555C1178.45 -3.43202 1180.48 2.3046 1181.96 6.47399C1182.21 7.18249 1182.45 7.84574 1182.67 8.46284L1179.29 12.3541C1178.18 8.75795 1175.92 1.99948 1172.12 -7.20828L1171.88 -7.79752L1171.36 -7.42138C1165.95 -3.46532 1159.42 -1.34982 1152.71 -1.38596C1146.01 -1.42209 1139.5 -3.60714 1134.13 -7.61969C1132.4 -8.95859 1130.83 -10.4971 1129.46 -12.2033L1129.46 -12.2046C1120.34 -23.4854 1120.65 -40.589 1130.28 -52.8807C1133.54 -57.0321 1137.68 -60.4002 1142.41 -62.7366L1142.92 -62.985L1142.61 -63.4562C1117.23 -102.756 1086.37 -138.228 1050.96 -168.799L1050.52 -169.175L1050.21 -168.692C1050.08 -168.488 1049.95 -168.286 1049.82 -168.086C1049.45 -167.497 1049.09 -166.923 1048.68 -166.361C1039.43 -153.79 1023.07 -148.801 1009.7 -154.501C1007.69 -155.368 1005.78 -156.449 1003.99 -157.726C990.208 -167.779 987.723 -188.008 998.522 -202.835C999.492 -204.163 1000.55 -205.424 1001.69 -206.609L1002.09 -207.027L1001.62 -207.363C966.407 -232.306 928.12 -252.593 887.708 -267.721L887.29 -267.877L887.087 -267.479C886.268 -265.867 885.325 -264.321 884.267 -262.855C875.013 -250.259 858.622 -245.28 845.281 -250.969L845.279 -250.97C843.262 -251.823 841.348 -252.904 839.575 -254.191C835.023 -257.613 831.51 -262.232 829.428 -267.532C827.345 -272.834 826.775 -278.61 827.781 -284.216L827.868 -284.699L827.387 -284.795C810.667 -288.137 793.686 -290.003 776.64 -290.372L779.296 -294.735C795.815 -294.168 812.261 -292.262 828.472 -289.037L828.91 -288.95L829.046 -289.375C830.183 -292.935 831.881 -296.289 834.076 -299.313C843.304 -311.919 859.695 -316.899 873.061 -311.199C875.067 -310.338 876.969 -309.253 878.731 -307.964C884.039 -303.935 887.916 -298.313 889.795 -291.92C891.675 -285.526 891.457 -278.698 889.173 -272.437L889.002 -271.968L889.47 -271.796C896.239 -269.311 903.076 -266.654 910.353 -263.55C943.733 -249.12 975.518 -231.25 1005.19 -210.229L1005.5 -210.014L1005.79 -210.244C1010.21 -213.716 1015.46 -215.964 1021.02 -216.763C1026.58 -217.561 1032.25 -216.884 1037.46 -214.797C1039.47 -213.947 1041.37 -212.871 1043.13 -211.59C1048.76 -207.254 1052.76 -201.15 1054.48 -194.263C1056.21 -187.374 1055.57 -180.103 1052.65 -173.626L1052.5 -173.285L1052.78 -173.041C1089.21 -141.781 1120.9 -105.394 1146.86 -65.0209L1147.07 -64.6975L1147.43 -64.8154C1152.1 -66.3186 1157.06 -66.668 1161.88 -65.8335C1166.71 -64.9992 1171.26 -63.0065 1175.15 -60.0264C1176.87 -58.6745 1178.42 -57.139 1179.8 -55.4474C1188.95 -44.1567 1188.63 -27.055 1179 -14.764C1177.97 -13.4688 1176.84 -12.2476 1175.63 -11.109ZM847.144 -255.144L847.147 -255.143C858.607 -250.255 872.653 -254.66 880.558 -265.541C889.848 -278.305 887.874 -295.659 876.099 -304.231C874.639 -305.312 873.06 -306.221 871.392 -306.942L871.39 -306.943C859.905 -311.84 845.86 -307.436 837.944 -296.53C828.664 -283.79 830.628 -266.411 842.429 -257.828L842.431 -257.827C843.901 -256.766 845.481 -255.867 847.144 -255.144ZM1132.97 -15.0883L1132.97 -15.0856C1134.13 -13.6647 1135.44 -12.3699 1136.88 -11.2226L1137.19 -11.6132L1136.88 -11.2191C1148.39 -2.23329 1165.64 -5.09069 1175.37 -17.5211C1183.67 -28.0906 1184.07 -42.8042 1176.22 -52.5129C1175.06 -53.9456 1173.74 -55.2363 1172.29 -56.358C1160.77 -65.4036 1143.54 -62.5092 1133.82 -50.1042C1125.51 -39.5108 1125.12 -24.7972 1132.97 -15.0883Z" stroke="#CED4DA"/>
<g style="mix-blend-mode:multiply" opacity="0.6">
<g style="mix-blend-mode:multiply" opacity="0.6">
<path d="M1226.03 -41.4321C1226.03 -41.4229 1226.03 -41.414 1226.03 -41.4054L1084.48 121.791L961.185 23.2586C982.484 -2.40756 1002.45 -29.2612 1022.23 -56.0933L1022.23 -56.0935C1041.52 -82.2814 1063.29 -106.358 1085.31 -130.26C1087.52 -132.653 1089.72 -135.044 1091.93 -137.435C1111.63 -158.777 1131.34 -180.135 1149.43 -202.867C1190.49 -155.762 1209.63 -115.379 1218.51 -86.7658C1222.97 -72.4128 1224.84 -61.0188 1225.6 -53.2203C1225.98 -49.3209 1226.09 -46.3203 1226.09 -44.298C1226.1 -43.2868 1226.08 -42.5202 1226.06 -42.0081C1226.05 -41.7521 1226.03 -41.5597 1226.03 -41.4321Z" stroke="#CED4DA"/>
</g>
</g>
<path d="M981.23 -145.331L981.23 -145.33C996.677 -134.867 1031.85 -102.59 1067.22 -60.9527C1102.51 -19.3974 1137.94 31.4144 1154.1 79.0804L1113.24 125.228L691.453 -195.764L721.849 -244.484C721.86 -244.486 721.872 -244.489 721.885 -244.491C722.046 -244.523 722.291 -244.57 722.62 -244.625C723.277 -244.737 724.268 -244.886 725.593 -245.034C728.243 -245.33 732.233 -245.623 737.57 -245.605C748.245 -245.569 764.314 -244.29 785.848 -239.311C828.916 -229.351 893.854 -204.583 981.23 -145.331Z" stroke="#CED4DA"/>
<path d="M1058.87 275.394L1058.87 275.394C1064.39 268.282 1067.09 254.771 1065.4 236.527C1063.72 218.253 1057.63 195.135 1045.46 168.708C1021.12 115.852 972.448 49.7296 885.947 -17.3876C800.44 -83.7533 728.771 -109.43 676.612 -116.817C650.534 -120.51 629.334 -119.631 613.722 -116.979C605.917 -115.654 599.504 -113.884 594.575 -112.018C590.606 -110.517 587.576 -108.944 585.554 -107.475C585.681 -107.885 585.817 -108.285 585.984 -108.681L641.243 -190.261C641.245 -190.263 641.247 -190.264 641.249 -190.266C641.294 -190.3 641.362 -190.352 641.454 -190.42C641.639 -190.556 641.918 -190.758 642.292 -191.014C643.042 -191.527 644.175 -192.262 645.698 -193.138C648.744 -194.891 653.353 -197.215 659.585 -199.481C672.047 -204.013 691.007 -208.319 716.951 -207.374C768.84 -205.483 848.712 -182.586 960.444 -98.4013C1057.31 -25.4097 1103.29 45.3373 1125.05 97.8059C1135.94 124.042 1140.77 145.714 1142.88 160.818C1143.94 168.371 1144.31 174.282 1144.42 178.301C1144.48 180.31 1144.47 181.847 1144.45 182.879C1144.44 183.008 1144.44 183.129 1144.44 183.242C1144.43 183.582 1144.42 183.85 1144.41 184.045C1144.4 184.131 1144.4 184.203 1144.4 184.261L1061.76 275.295C1060.21 276.558 1058.45 277.55 1056.58 278.234C1057.36 277.289 1058.13 276.341 1058.87 275.394Z" stroke="#CED4DA"/>
<g style="mix-blend-mode:screen" opacity="0.4">
<path d="M980.478 20.4127L980.477 20.4142C977.285 25.0355 974.155 29.7082 971.023 34.3833L970.471 35.2065C967.267 39.9891 964.057 44.7715 960.77 49.5073C937.45 25.4113 912.411 3.04014 885.85 -17.4294C867.134 -32.0283 847.632 -45.5912 827.432 -58.0571C829.44 -61.0849 831.483 -64.073 833.571 -67.0423L833.572 -67.0439C842.913 -80.4453 853.223 -93.1225 863.589 -105.785C864.07 -106.372 864.55 -106.959 865.031 -107.546C874.819 -119.498 884.62 -131.466 893.647 -144.027C914.484 -131.328 936.61 -116.32 960.347 -98.4429L960.349 -98.4421C983.879 -80.8183 1006.23 -61.6689 1027.25 -41.1175C1021.65 -33.7005 1015.93 -26.3855 1010.2 -19.0704C1000.05 -6.0997 989.904 6.87147 980.478 20.4127Z" stroke="#CED4DA"/>
</g>
<g style="mix-blend-mode:multiply" opacity="0.5">
<g style="mix-blend-mode:multiply" opacity="0.5">
<path d="M743.861 68.1801C744.492 69.2982 745.448 70.1936 746.6 70.7495C746.269 78.9636 745.856 87.2473 745.361 95.6006C711.601 72.4727 666.542 38.6951 632.378 2.45509C615.172 -15.7963 600.749 -34.6521 591.92 -53.0682C583.113 -71.4356 579.893 -89.3168 584.962 -105.717C587.494 -107.969 593.011 -110.755 601.351 -113.125C609.782 -115.521 621.045 -117.475 634.901 -118.032C662.55 -119.142 700.512 -114.682 746.871 -97.0563C749.38 -43.2618 749.471 10.6022 743.118 64.1659C742.912 65.5492 743.173 66.962 743.861 68.1801Z" stroke="#CED4DA"/>
</g>
</g>
<g style="mix-blend-mode:multiply" opacity="0.5">
<g style="mix-blend-mode:multiply" opacity="0.5">
<path d="M611.477 -22.2634C589.473 -51.1244 577.284 -80.222 585.174 -105.746C586.821 -107.259 589.808 -109.015 594.106 -110.727C598.477 -112.469 604.17 -114.151 611.111 -115.484C624.911 -118.135 643.627 -119.401 666.666 -117.016C670.473 -77.6155 677.639 -38.6423 684.803 0.323888C688.369 19.7175 691.935 39.1094 695.086 58.5514C664.554 34.5067 633.257 6.30511 611.477 -22.2634Z" stroke="#CED4DA"/>
</g>
</g>
<g style="mix-blend-mode:multiply" opacity="0.5">
<g style="mix-blend-mode:multiply" opacity="0.5">
<path d="M967.467 122.584C947.839 125.738 928.301 129.359 908.77 132.979C902.09 134.217 895.41 135.455 888.729 136.674C888.728 136.674 888.728 136.675 888.728 136.675L888.638 136.183C864.806 140.58 840.977 144.64 817.028 147.474L967.467 122.584ZM967.467 122.584C978.021 120.894 988.664 119.838 999.328 118.78C1004.52 118.265 1009.72 117.75 1014.91 117.16C1041.34 156.141 1055.62 191.057 1061.56 218.488C1064.53 232.233 1065.41 244.089 1064.67 253.629C1063.93 263.18 1061.58 270.363 1058.15 274.812C1057.11 276.146 1056.01 277.485 1054.89 278.816C1045.43 281.755 1025.29 283.294 987.93 266.984C950.522 250.653 895.897 216.445 817.535 147.917L967.467 122.584Z" stroke="#CED4DA"/>
</g>
</g>
<g style="mix-blend-mode:multiply" opacity="0.5">
<g style="mix-blend-mode:multiply" opacity="0.5">
<path d="M986.878 192.587L986.878 192.587C1006.7 190.407 1026.84 189.531 1047.11 188.65C1048.97 188.569 1050.83 188.488 1052.69 188.406C1060.67 209.825 1064.37 228.412 1064.92 243.154C1065.47 257.996 1062.82 268.862 1058.2 274.831C1057.16 276.166 1056.06 277.505 1054.94 278.837C1039.28 283.78 993.84 284.684 888.771 205.97C921.426 201.036 954.155 196.182 986.878 192.587Z" stroke="#CED4DA"/>
</g>
</g>
<path d="M867.363 32.7336C1000.89 132.529 1017.69 206.403 1018.42 234.927L959.534 300.576M425.519 285.876L466.585 211.254M759.478 528.755L827.708 450.618" stroke="#CED4DA"/>
<path d="M447.85 245.456C475.154 241.944 539.305 245.191 634.622 319.537C751.233 410.456 777.364 474.586 777.009 508.132" stroke="#CED4DA"/>
<g style="mix-blend-mode:multiply" opacity="0.6">
<g style="mix-blend-mode:multiply" opacity="0.6">
<path d="M680.641 469.905C685.025 463.193 689.444 456.667 694.13 450.055C699.428 442.612 704.938 435.347 710.594 428.143C716.551 432.095 723.344 434.612 730.438 435.496C737.532 436.38 744.735 435.606 751.48 433.237C771.684 426.583 790.028 407.195 804.966 392.899C821.875 376.334 837.88 358.87 852.911 340.583C867.683 322.973 881.928 305.052 896.534 287.429C911.801 268.996 928.11 251.553 942.238 232.291C965.389 200.688 973.745 166.621 970.619 129.122C1010.83 179.623 1017.96 216.619 1018.42 234.927" stroke="#CED4DA"/>
</g>
</g>
<path d="M1063.92 48.8516L1049.12 113.177C1022.79 67.9315 987.104 25.1834 942.668 -13.8437L973.232 -55.4658C1008.32 -25.2374 1038.87 9.89714 1063.92 48.8516Z" stroke="#CED4DA"/>
<path d="M974.349 -48.6523L973.94 -49.0128L973.616 -48.5732L948.819 -14.8593L949.221 -14.563L948.892 -14.1872C986.852 19.1253 1019.78 57.7616 1046.66 100.517L1047.31 101.536L1047.58 100.363L1059.18 49.9171L1059.23 49.7107L1059.12 49.533C1035.49 13.0817 1006.96 -19.9549 974.349 -48.6523ZM1051.25 128.018C1027.77 84.2389 990.986 35.021 935.384 -13.0502L972.333 -63.3185C1010.25 -31.4173 1043.07 6.09218 1069.66 47.9108L1051.25 128.018Z" stroke="#CED4DA"/>
<g style="mix-blend-mode:multiply" opacity="0.6">
<g style="mix-blend-mode:multiply" opacity="0.6">
<path d="M894.087 -10.3875L960.817 -98.07L965.903 -93.576L899.37 -6.66161L867.282 32.0478L863.544 29.2444L894.085 -10.3851L894.087 -10.3875Z" stroke="#CED4DA"/>
</g>
</g>
<path d="M873.156 5.96368L873.15 5.97859L873.146 5.99379C872.865 7.00286 872.282 7.90219 871.477 8.57169C870.671 9.24119 869.68 9.64904 868.637 9.74089C867.593 9.83274 866.546 9.60421 865.636 9.08573C864.725 8.56724 863.995 7.78346 863.541 6.83903C863.088 5.89462 862.933 4.83442 863.098 3.79991C863.263 2.76539 863.739 1.8058 864.464 1.04909C865.188 0.29238 866.126 -0.225419 867.153 -0.435244C868.179 -0.64507 869.245 -0.536941 870.209 -0.125246L870.223 -0.119045L870.238 -0.113771C871.429 0.3084 872.404 1.18452 872.95 2.32328C873.497 3.46204 873.571 4.77081 873.156 5.96368Z" stroke="#CED4DA"/>
<path d="M899.506 25.3528L899.501 25.3677L899.497 25.3829C899.216 26.3919 898.633 27.2912 897.827 27.9607C897.022 28.6302 896.031 29.038 894.987 29.1299C893.944 29.2217 892.897 28.9932 891.986 28.4747C891.076 27.9562 890.345 27.1725 889.892 26.228C889.439 25.2836 889.284 24.2234 889.449 23.1889C889.614 22.1544 890.09 21.1948 890.815 20.4381C891.539 19.6814 892.477 19.1636 893.503 18.9538C894.53 18.7439 895.596 18.8521 896.559 19.2638L896.574 19.27L896.589 19.2752C897.779 19.6974 898.754 20.5735 899.301 21.7123C899.848 22.851 899.921 24.1599 899.506 25.3528Z" stroke="#CED4DA"/>
<g style="mix-blend-mode:multiply" opacity="0.6">
<g style="mix-blend-mode:multiply" opacity="0.6">
<path d="M637.138 -74.8944L641.218 -39.1845L641.258 -38.8341L641.601 -38.7543L641.715 -39.2413C641.601 -38.7543 641.601 -38.7543 641.602 -38.7542L641.604 -38.7538L641.612 -38.7519L641.645 -38.7438C641.658 -38.7409 641.673 -38.7373 641.691 -38.733C641.716 -38.7269 641.747 -38.7194 641.783 -38.7105C641.906 -38.6805 642.09 -38.6345 642.336 -38.5711C642.828 -38.4445 643.564 -38.2485 644.539 -37.9723C646.488 -37.4198 649.391 -36.5461 653.198 -35.263C660.811 -32.697 672.04 -28.4936 686.486 -21.9478C715.377 -8.85628 757.138 13.6052 808.58 51.0775C860.011 88.5419 896.381 126.273 919.891 154.633C931.645 168.813 940.185 180.65 945.784 188.94C948.584 193.085 950.648 196.343 952.012 198.563C952.694 199.673 953.201 200.524 953.537 201.096C953.622 201.242 953.696 201.369 953.76 201.478C953.821 201.584 953.872 201.673 953.913 201.744C953.94 201.791 953.962 201.83 953.98 201.861L954.006 201.907L954.029 201.948L954.035 201.957L954.036 201.96C954.036 201.96 954.036 201.96 954.472 201.716L954.036 201.96L954.226 202.299L954.602 202.199L1006.52 188.271L1008.69 193.621L950.9 209.508C950.888 209.485 950.875 209.46 950.862 209.435C950.803 209.321 950.732 209.185 950.65 209.028C950.357 208.471 949.914 207.645 949.312 206.568C948.108 204.413 946.268 201.249 943.721 197.208C938.627 189.127 930.704 177.535 919.38 163.484C896.731 135.38 860.48 97.4355 806.054 58.0396C751.638 18.6508 708.33 -3.92793 678.615 -16.6612C663.757 -23.0278 652.298 -26.9329 644.549 -29.2471C640.675 -30.4043 637.728 -31.1637 635.747 -31.6342C634.757 -31.8695 634.008 -32.0325 633.506 -32.137C633.358 -32.1676 633.232 -32.1931 633.128 -32.214L630.286 -74.0959L637.138 -74.8944Z" stroke="#CED4DA"/>
</g>
</g>
<g style="mix-blend-mode:multiply" opacity="0.6">
<g style="mix-blend-mode:multiply" opacity="0.6">
<path d="M917.233 348.684C917.173 348.557 917.104 348.414 917.027 348.254C916.671 347.513 916.132 346.416 915.397 344.987C913.929 342.128 911.682 337.94 908.562 332.617C902.323 321.972 892.595 306.784 878.635 288.604C850.713 252.242 805.861 203.91 738.124 155.994C670.387 108.079 620.285 89.5761 587.087 83.062C570.488 79.805 558.118 79.5458 549.886 80.1049C545.77 80.3844 542.689 80.8685 540.633 81.2844C539.839 81.4448 539.199 81.595 538.71 81.7194L545.508 69.5647C545.627 69.536 545.8 69.496 546.026 69.4481C546.514 69.3448 547.252 69.2043 548.241 69.0582C550.219 68.766 553.202 68.4512 557.204 68.3666C565.208 68.1974 577.288 68.9487 593.549 72.6437C626.07 80.0338 675.321 99.2004 742.129 146.337C808.933 193.47 854.407 242.262 883.177 279.266C897.562 297.767 907.771 313.322 914.382 324.248C917.688 329.71 920.094 334.016 921.673 336.954C922.463 338.424 923.045 339.551 923.43 340.31C923.62 340.684 923.761 340.969 923.856 341.161L917.233 348.684Z" stroke="#CED4DA"/>
</g>
</g>
<path d="M898.18 87.7753L898.183 87.7771C901.484 89.7583 902.215 94.9559 899.487 99.518L899.479 99.5314L899.472 99.5453C898.59 101.255 897.193 102.643 895.478 103.514C893.763 104.385 891.817 104.694 889.917 104.398L889.63 104.353L889.449 104.58L799.7 217.026L799.547 217.218L799.605 217.456C799.999 219.077 799.975 220.772 799.537 222.381C799.1 223.99 798.261 225.463 797.1 226.661L797.093 226.668L797.087 226.675C793.573 230.605 788.506 231.396 785.508 228.883C784.017 227.634 783.353 225.732 783.51 223.608C783.668 221.479 784.652 219.151 786.427 217.135L786.435 217.126L786.442 217.117C787.548 215.732 789.018 214.683 790.688 214.089C792.358 213.496 794.161 213.381 795.893 213.757L796.197 213.823L796.391 213.579L885.851 100.867L886.009 100.668L885.942 100.423C885.556 99.0236 885.471 97.5587 885.691 96.1241C885.911 94.6895 886.432 93.3177 887.219 92.0986L887.223 92.0925L887.227 92.0862C888.583 89.8462 890.51 88.2553 892.507 87.486C894.503 86.7168 896.541 86.7752 898.18 87.7753Z" stroke="#CED4DA"/>
<path d="M750.165 -7.22446L750.166 -7.22437L750.172 -7.23518C752.911 -11.7595 757.858 -13.5405 761.161 -11.5591C764.431 -9.5638 765.158 -4.36435 762.419 0.159651L762.412 0.172492L762.405 0.185777C761.549 1.81231 760.233 3.1505 758.62 4.03306C757.008 4.91562 755.172 5.30343 753.34 5.1479L753.053 5.12351L752.888 5.35989L670.274 123.691L670.104 123.935L670.237 124.201C671.106 125.939 671.398 127.91 671.071 129.825C670.743 131.741 669.813 133.503 668.416 134.854L668.402 134.867L668.389 134.882C664.895 138.827 659.781 139.664 656.831 137.071C653.891 134.488 654.201 129.288 657.728 125.343L657.734 125.336L657.74 125.329C658.706 124.163 659.923 123.231 661.3 122.601C662.676 121.972 664.177 121.661 665.69 121.691L665.958 121.697L666.111 121.477L749.094 2.01143L749.24 1.8009L749.154 1.55928C748.643 0.114786 748.468 -1.42738 748.643 -2.94965C748.818 -4.47192 749.339 -5.93406 750.165 -7.22446Z" stroke="#CED4DA"/>
<path d="M586.512 22.6676L586.512 22.6677L586.517 22.6595C589.256 18.1351 594.203 16.354 597.507 18.3357C599.157 19.3407 600.151 21.149 600.4 23.2942C600.65 25.44 600.147 27.8882 598.836 30.0884L598.829 30.0998L598.823 30.1115C597.967 31.738 596.651 33.0762 595.039 33.9588C593.426 34.8413 591.59 35.2291 589.758 35.0735L589.448 35.0472L589.288 35.314L526.398 139.84L526.256 140.074L526.378 140.32C527.239 142.056 527.527 144.02 527.202 145.931C526.876 147.841 525.954 149.599 524.566 150.951L524.554 150.964L524.542 150.977C521.018 154.931 515.951 155.721 512.953 153.208C511.462 151.959 510.799 150.057 510.956 147.933C511.114 145.804 512.098 143.476 513.872 141.46L513.872 141.46L513.88 141.451C514.85 140.295 516.065 139.368 517.437 138.737C518.808 138.106 520.303 137.786 521.813 137.802L522.1 137.805L522.247 137.558L585.457 31.8775L585.577 31.6772L585.501 31.4568C584.998 30.0098 584.828 28.4682 585.003 26.9466C585.178 25.425 585.694 23.9625 586.512 22.6676Z" stroke="#CED4DA"/>
<path d="M906.902 244.125L906.909 244.118L906.915 244.111C910.338 240.074 915.481 239.119 918.416 241.595C921.343 244.098 921.245 249.342 917.779 253.232L917.764 253.248L917.751 253.266C916.661 254.73 915.164 255.841 913.447 256.46C911.73 257.079 909.868 257.179 908.094 256.747L907.796 256.674L907.597 256.907L837.232 338.842L837.052 339.052L837.134 339.316C837.708 341.165 837.678 343.148 837.049 344.979C836.42 346.809 835.225 348.392 833.635 349.497L833.621 349.508L833.606 349.519C829.471 352.864 824.25 352.856 821.821 349.864C819.389 346.867 820.394 341.687 824.576 338.406L824.586 338.398L824.595 338.39C825.736 337.402 827.085 336.682 828.542 336.286C829.998 335.889 831.526 335.826 833.01 336.1L833.294 336.152L833.481 335.933L904.295 253.013L904.447 252.835L904.407 252.604C904.15 251.094 904.241 249.545 904.674 248.076C905.106 246.606 905.868 245.255 906.902 244.125Z" stroke="#CED4DA"/>
<g style="mix-blend-mode:multiply" opacity="0.6">
<path d="M717.226 315.059L717.226 315.059L717.223 315.066C715.631 318.794 712.962 321.962 709.559 324.164C706.155 326.365 702.172 327.501 698.119 327.425C694.066 327.349 690.128 326.065 686.809 323.738C683.49 321.41 680.941 318.145 679.489 314.36C678.038 310.575 677.749 306.443 678.66 302.493C679.571 298.544 681.641 294.956 684.603 292.19C687.566 289.423 691.288 287.604 695.291 286.966C699.294 286.328 703.397 286.899 707.073 288.606L707.284 288.153L707.081 288.609C709.485 289.679 711.655 291.211 713.466 293.12C715.278 295.028 716.695 297.275 717.637 299.731C718.58 302.188 719.028 304.806 718.958 307.436C718.887 310.066 718.299 312.657 717.226 315.059ZM683.567 316.559C685.597 319.265 688.395 321.297 691.596 322.39C695.612 323.893 700.059 323.758 703.976 322.012C707.893 320.266 710.967 317.051 712.535 313.06C713.862 309.948 714.221 306.51 713.566 303.191C712.91 299.87 711.269 296.823 708.857 294.449C706.444 292.074 703.372 290.481 700.041 289.878C696.71 289.274 693.275 289.689 690.183 291.067C687.091 292.444 684.486 294.722 682.707 297.602C680.929 300.482 680.06 303.832 680.213 307.213C680.366 310.595 681.535 313.852 683.567 316.559Z" stroke="#CED4DA"/>
</g>
<g style="mix-blend-mode:multiply" opacity="0.6">
<path d="M815.813 440.932C810.07 449.289 800.393 452.244 794.232 448.009C791.188 445.89 789.482 442.3 789.26 438.166C789.038 434.032 790.305 429.386 793.172 425.235C796.04 421.084 799.934 418.233 803.867 416.967C807.801 415.7 811.742 416.026 814.774 418.165C820.838 422.443 821.554 432.575 815.813 440.932ZM814.304 439.9C816.63 436.514 817.737 432.74 817.629 429.36C817.52 425.981 816.19 422.958 813.603 421.165C811.014 419.372 807.728 419.207 804.543 420.313C801.357 421.419 798.235 423.804 795.898 427.184C793.559 430.566 792.438 434.355 792.539 437.743C792.641 441.13 793.97 444.157 796.579 445.914C799.18 447.665 802.474 447.838 805.665 446.745C808.856 445.653 811.977 443.288 814.304 439.9Z" stroke="#CED4DA"/>
</g>
<g style="mix-blend-mode:multiply" opacity="0.6">
<path d="M623.663 252.483L623.663 252.483L623.66 252.491C622.072 256.222 619.407 259.393 616.005 261.6C612.603 263.806 608.619 264.946 604.565 264.874C600.511 264.802 596.571 263.521 593.249 261.195C589.927 258.869 587.376 255.605 585.921 251.82C584.467 248.035 584.175 243.902 585.085 239.951C585.994 236 588.063 232.41 591.026 229.642C593.989 226.874 597.711 225.054 601.715 224.415C605.719 223.776 609.823 224.347 613.5 226.054L613.711 225.601L613.508 226.058C615.91 227.126 618.078 228.657 619.889 230.563C621.699 232.469 623.117 234.714 624.06 237.168C625.003 239.621 625.453 242.237 625.385 244.865C625.317 247.493 624.732 250.082 623.663 252.483ZM598.03 259.814L598.04 259.818L598.051 259.822C602.068 261.32 606.512 261.179 610.426 259.431C614.338 257.684 617.407 254.471 618.972 250.483C620.299 247.372 620.658 243.934 620.003 240.615C619.348 237.294 617.707 234.247 615.294 231.873C612.882 229.498 609.81 227.905 606.479 227.302C603.148 226.698 599.712 227.113 596.62 228.491C593.528 229.868 590.923 232.146 589.145 235.026C587.366 237.906 586.497 241.256 586.651 244.637C586.804 248.019 587.973 251.276 590.004 253.983C592.032 256.686 594.826 258.716 598.022 259.811L598.03 259.814Z" stroke="#CED4DA"/>
</g>
<g style="mix-blend-mode:multiply" opacity="0.6">
<g style="mix-blend-mode:multiply" opacity="0.6">
<path d="M670.627 233.539L602.905 330.322L599.463 328.021L665.039 231.157L670.627 233.539Z" stroke="#CED4DA"/>
</g>
</g>
<path d="M549.771 230.687C543.25 234.552 536.982 235.416 531.349 233.129L531.346 233.073L531.062 232.952L530.161 232.568C528.826 231.837 527.65 230.848 526.7 229.658C525.748 228.465 525.043 227.093 524.627 225.625C522.939 218.589 524.079 211.173 527.803 204.969L527.81 204.958L527.816 204.946C535.5 190.423 614.6 58.3071 645.449 6.78275C646.654 4.7703 647.785 2.88079 648.836 1.12603C648.836 1.12598 648.836 1.12592 648.836 1.12587L655.507 -10.0074L655.507 -10.0076C659.267 -16.2885 664.584 -22.2498 670.667 -26.261C676.749 -30.2717 683.555 -32.3091 690.331 -30.8336C693.558 -30.1175 696.528 -28.5364 698.923 -26.2598C701.319 -23.9831 703.05 -21.0969 703.929 -17.911L703.931 -17.9036L703.933 -17.8962C704.965 -14.5616 705.264 -11.043 704.807 -7.58235C704.351 -4.12167 703.151 -0.800822 701.29 2.15212L701.289 2.15205L701.284 2.16177C689.234 22.274 589.633 180.31 569.898 209.83C563.277 219.72 556.411 226.751 549.771 230.687Z" stroke="#CED4DA"/>
<path d="M737.977 343.839L737.976 343.84C729.754 355.333 726.421 363.561 725.659 369.657C724.901 375.719 726.682 379.715 728.817 382.782C730.026 384.475 731.694 385.786 733.625 386.56L737.977 343.839ZM737.977 343.839C753.971 321.402 878.631 163.094 892.358 146.185L892.359 146.185M737.977 343.839L892.359 146.185M892.359 146.185C899.78 137.035 910.211 133.411 918.339 136.878M892.359 146.185L918.339 136.878M918.339 136.878C920.352 137.739 922.179 138.982 923.72 140.538L918.339 136.878ZM751.408 383.642C751.404 383.646 751.401 383.65 751.397 383.653L751.747 384.01L751.421 383.631C751.417 383.635 751.413 383.638 751.408 383.642Z" stroke="#CED4DA"/>
<g style="mix-blend-mode:multiply" opacity="0.5">
<g style="mix-blend-mode:multiply" opacity="0.5">
<path d="M696.216 -36.5218C694.807 -37.1251 693.344 -37.595 691.848 -37.9251C674.596 -41.6946 658.144 -28.5609 649.271 -13.7452C629.634 18.8398 530.153 184.801 521.408 201.537C512.663 218.273 516.558 233.912 526.958 239.007L528.245 239.556C538.835 244.073 556.546 242.727 575.895 213.78C596.071 183.634 696.382 24.3425 707.467 5.82027C717.515 -11.0776 710.619 -30.3795 696.216 -36.5218ZM696.013 -1.04484C686.117 15.4298 585.191 175.895 564.787 206.373C553.66 223.041 542.007 230.844 533.604 227.26L533.045 227.022C531.874 226.247 531.027 225.069 530.667 223.712C529.315 219.547 530.351 213.617 533.385 207.85C541.304 192.914 626.319 50.9802 654.283 4.32236L660.909 -6.7729C667.065 -17.0353 678.512 -27.0504 689.064 -24.7322C689.738 -24.5827 690.397 -24.3691 691.031 -24.0943C692.72 -23.3109 694.225 -22.1788 695.446 -20.7727C696.667 -19.3665 697.576 -17.7179 698.115 -15.9353C698.853 -13.4478 699.048 -10.8305 698.685 -8.26124C698.322 -5.69195 697.411 -3.23075 696.013 -1.04484V-1.04484Z" stroke="#CED4DA" stroke-miterlimit="10"/>
</g>
</g>
<g style="mix-blend-mode:multiply" opacity="0.5">
<g style="mix-blend-mode:multiply" opacity="0.5">
<path d="M928.841 135.474C926.665 133.227 924.058 131.442 921.176 130.225C910.319 125.595 896.562 129.516 886.734 141.657C874.492 156.901 748.466 316.651 732.091 339.634C715.716 362.617 715.648 376.509 722.892 386.917C724.892 389.707 727.64 391.874 730.819 393.168C735.076 394.925 739.744 395.443 744.283 394.662C748.822 393.88 753.047 391.831 756.471 388.751C765.293 380.114 913.327 202.682 926.626 184.961C939.924 167.239 944.923 151.747 928.841 135.474ZM916.022 176.908C902.45 194.8 755.575 370.659 747.044 379.22C745.512 380.414 743.697 381.191 741.775 381.473C739.853 381.755 737.891 381.534 736.08 380.831C735.21 380.51 734.455 379.939 733.91 379.188C732.134 376.622 727.226 369.621 743.023 347.453C758.821 325.286 883.48 166.991 897.147 150.087C902.751 143.206 910.269 140.183 915.88 142.576C917.142 143.13 918.286 143.92 919.251 144.903C926.233 151.957 930.041 158.374 916.022 176.908Z" stroke="#CED4DA" stroke-miterlimit="10"/>
</g>
</g>
<path d="M480.681 257.426C480.904 258.122 480.845 258.878 480.519 259.531C480.263 259.941 479.896 260.271 479.46 260.481C479.019 260.695 478.525 260.777 478.038 260.718C477.551 260.659 477.091 260.462 476.713 260.149C476.334 259.837 476.054 259.422 475.904 258.955C475.755 258.488 475.742 257.988 475.869 257.514C475.995 257.04 476.255 256.612 476.617 256.281C476.979 255.95 477.429 255.731 477.913 255.648C478.39 255.566 478.88 255.621 479.327 255.807C479.972 256.149 480.458 256.73 480.681 257.426Z" stroke="#CED4DA"/>
<path d="M532.977 273.708C533.2 274.403 533.145 275.156 532.825 275.811C532.569 276.221 532.202 276.55 531.767 276.76C531.325 276.973 530.832 277.056 530.344 276.997C529.857 276.938 529.397 276.741 529.019 276.428C528.641 276.115 528.36 275.701 528.211 275.234C528.061 274.767 528.049 274.266 528.175 273.792C528.302 273.318 528.561 272.89 528.924 272.56C529.286 272.229 529.736 272.009 530.219 271.926C530.696 271.845 531.185 271.9 531.632 272.085C532.273 272.432 532.755 273.013 532.977 273.708Z" stroke="#CED4DA"/>
<path d="M588.26 304.208C588.001 304.616 587.632 304.942 587.195 305.149C586.753 305.359 586.26 305.438 585.774 305.376C585.288 305.314 584.83 305.115 584.455 304.801C584.079 304.487 583.801 304.073 583.653 303.606C583.506 303.139 583.495 302.64 583.622 302.167C583.749 301.695 584.009 301.268 584.371 300.939C584.733 300.609 585.182 300.39 585.664 300.308C586.141 300.226 586.631 300.281 587.077 300.466C587.398 300.632 587.683 300.86 587.917 301.136C588.154 301.416 588.333 301.741 588.444 302.092C588.555 302.442 588.595 302.811 588.562 303.177C588.529 303.537 588.427 303.888 588.26 304.208Z" stroke="#CED4DA"/>
<path d="M648.699 347.871L648.655 347.939L648.636 348.018C648.547 348.379 648.381 348.716 648.149 349.005C647.916 349.295 647.624 349.531 647.292 349.697C646.96 349.863 646.595 349.954 646.224 349.965C645.853 349.976 645.484 349.907 645.142 349.761C644.801 349.615 644.495 349.397 644.246 349.122C643.997 348.846 643.811 348.52 643.701 348.165C643.59 347.811 643.558 347.437 643.607 347.069C643.655 346.7 643.783 346.347 643.982 346.034L644.025 345.965L644.045 345.886C644.134 345.526 644.3 345.189 644.532 344.899C644.764 344.609 645.056 344.373 645.389 344.207C645.721 344.042 646.085 343.95 646.456 343.939C646.827 343.928 647.197 343.998 647.538 344.143C647.88 344.289 648.186 344.507 648.434 344.783C648.683 345.058 648.87 345.385 648.98 345.739C649.09 346.094 649.122 346.468 649.074 346.836C649.025 347.204 648.897 347.557 648.699 347.871Z" stroke="#CED4DA"/>
<path d="M689.106 383.431C689.328 384.126 689.273 384.879 688.953 385.534C688.697 385.943 688.331 386.272 687.896 386.483C687.454 386.696 686.96 386.778 686.473 386.72C685.986 386.661 685.526 386.463 685.148 386.151C684.769 385.838 684.489 385.424 684.339 384.957C684.19 384.489 684.177 383.989 684.304 383.515C684.43 383.041 684.69 382.613 685.052 382.282C685.414 381.952 685.864 381.732 686.348 381.649C686.824 381.568 687.314 381.623 687.76 381.807C688.401 382.155 688.883 382.736 689.106 383.431Z" stroke="#CED4DA"/>
<path d="M720.89 422.891L720.934 422.823L720.953 422.744C721.042 422.383 721.208 422.046 721.441 421.757C721.673 421.467 721.965 421.231 722.297 421.065C722.629 420.899 722.994 420.808 723.365 420.797C723.736 420.786 724.105 420.855 724.447 421.001C724.788 421.147 725.094 421.365 725.343 421.64C725.592 421.916 725.778 422.242 725.888 422.597C725.999 422.951 726.031 423.325 725.982 423.694C725.934 424.062 725.806 424.415 725.607 424.728L726.03 424.996L725.544 424.876C725.455 425.236 725.289 425.573 725.057 425.863C724.825 426.153 724.533 426.389 724.201 426.555C723.868 426.72 723.504 426.812 723.133 426.823C722.762 426.834 722.393 426.764 722.051 426.619C721.709 426.473 721.403 426.255 721.155 425.979C720.906 425.704 720.72 425.378 720.609 425.023C720.499 424.668 720.467 424.294 720.515 423.926C720.564 423.558 720.692 423.205 720.89 422.891Z" stroke="#CED4DA"/>
<path d="M756.241 467.812C756.462 468.511 756.403 469.269 756.076 469.924C755.817 470.331 755.449 470.656 755.013 470.862C754.571 471.072 754.077 471.151 753.592 471.089C753.106 471.027 752.648 470.828 752.273 470.514C751.897 470.201 751.618 469.786 751.471 469.319C751.323 468.852 751.313 468.353 751.44 467.88C751.567 467.408 751.827 466.982 752.189 466.652C752.551 466.322 753 466.103 753.482 466.021C753.957 465.939 754.446 465.994 754.891 466.177C755.536 466.526 756.02 467.112 756.241 467.812Z" stroke="#CED4DA"/>
<g style="mix-blend-mode:screen">
<g style="mix-blend-mode:screen">
<path d="M982.586 -138.328C1008.75 -118.972 1072.82 -59.6387 1112.17 9.42566C1108.78 4.53566 1104.07 -2.02869 1098.02 -9.89366C1084.24 -27.81 1063.51 -52.4768 1035.71 -79.4755C981.276 -132.357 899.736 -194.193 790.211 -231.765C792.504 -231.275 795.319 -230.634 798.619 -229.811C808.685 -227.301 823.264 -223.103 841.301 -216.354C877.374 -202.856 927.28 -179.15 982.586 -138.328Z" stroke="#CED4DA"/>
</g>
</g>
<path d="M1043.23 93.2837C1017.19 53.2326 985.791 16.9204 949.896 -14.6361L970.952 -43.2629C965.756 -33.2117 959.793 -23.5728 953.114 -14.4322L952.834 -14.0491L953.202 -13.7495C988.036 14.6228 1011.4 43.1825 1026.05 64.6441C1033.37 75.375 1038.52 84.3309 1041.83 90.6011C1042.34 91.5591 1042.8 92.4544 1043.23 93.2837Z" stroke="#CED4DA"/>
<g style="mix-blend-mode:multiply" opacity="0.6">
<g style="mix-blend-mode:multiply" opacity="0.6">
<path d="M664.912 327.876C649.893 313.522 628.279 297.975 610.372 285.986C601.331 279.934 593.228 274.784 587.386 271.147C584.464 269.328 582.108 267.888 580.481 266.902C579.668 266.409 579.037 266.03 578.61 265.774C578.546 265.735 578.486 265.7 578.431 265.667L692.787 110.331L753.27 42.1462L824.964 99.4271L707.278 267.601L707.278 267.601L664.912 327.876Z" stroke="#CED4DA"/>
</g>
</g>
<path d="M630.998 209.521L753.567 41.7991L803.431 15.5285L678.586 183.906L630.998 209.521Z" stroke="#CED4DA"/>
<path d="M679.198 184.059C686.488 187.205 693.11 191.714 698.707 197.345L704.487 263.961C672.46 236.411 629.57 210.772 629.57 210.772" stroke="#CED4DA"/>
<path d="M698.431 197.579L820.218 23.3345L825.81 99.343L704.283 264.226" stroke="#CED4DA"/>
<path d="M839.34 375.883L939.515 257.34L1129.38 673.791L1058.05 760.692L1051.03 765.913L828.255 450.59L839.34 375.883Z" stroke="#CED4DA"/>
<path d="M993.407 576.649L993.517 576.847L993.738 576.895L1034.83 585.733L996.348 625.958L851.312 361.691L864.829 345.688L993.407 576.649Z" stroke="#CED4DA"/>
<g style="mix-blend-mode:multiply">
<g style="mix-blend-mode:multiply">
<path d="M864.83 345.688L993.407 576.649L993.517 576.847L993.739 576.895L1034.83 585.734L996.346 625.96L993.545 620.902L1025.8 587.211L1026.42 586.565L1025.54 586.377L983.775 577.387L858.797 352.826L864.83 345.688Z" stroke="#CED4DA"/>
</g>
</g>
<path d="M887.037 319.417C887.038 319.419 887.039 319.421 887.04 319.423C887.275 319.827 887.62 320.433 888.07 321.229C888.97 322.82 890.282 325.163 891.948 328.152C895.28 334.128 900.025 342.682 905.712 352.955C917.086 373.502 932.227 400.924 947.359 428.356C962.492 455.788 977.616 483.228 988.957 503.811C994.627 514.103 999.352 522.679 1002.66 528.683L1006.5 535.653L1007.51 537.489L1007.77 537.96L1007.83 538.079L1007.85 538.109L1007.85 538.116C1007.85 538.118 1007.86 538.119 1008.29 537.878L1007.86 538.119L1007.99 538.359L1008.26 538.377L1069.44 542.275L1070.87 545.443L1006.9 544.758L882.21 325.12L887.037 319.417Z" stroke="#CED4DA"/>
<path d="M1041.26 513.485L925.323 274.155L939.515 257.341L1057.64 516.375L1041.26 513.485Z" stroke="#CED4DA"/>
<g style="mix-blend-mode:multiply" opacity="0.6">
<path d="M948.282 437.025L948.282 437.025C938.458 468.985 943.346 506.102 953.33 537.297C968.706 585.364 1002.74 630.948 1045.5 657.815C1068.69 672.399 1095.24 680.756 1122.59 682.088L1058 760.812L1051.03 765.916L828.255 450.59L839.34 375.883L939.515 257.34L1002.9 396.352C990.341 396.033 978.941 399.165 969.58 405.801C960.019 412.579 952.622 422.988 948.282 437.025Z" stroke="#CED4DA"/>
</g>
<g style="mix-blend-mode:multiply" opacity="0.6">
<path d="M1019.42 657.764L1019.42 657.765C1022.29 661.502 1025.13 665.546 1028.05 669.692C1029.28 671.441 1030.53 673.208 1031.79 674.977C1036.04 680.932 1040.5 686.901 1045.4 692.236C1055.2 702.906 1066.81 711.091 1082.06 711.55L1082.08 711.05L1082.06 711.55C1088.07 711.698 1094.06 711.031 1099.89 709.571L1057.93 760.698L1050.96 765.802L828.19 450.476L839.274 375.768L939.449 257.225L958.447 298.827C943.969 296.776 931.239 306.381 921.581 319.67C911.702 333.264 904.914 350.87 902.619 364.406L902.619 364.406C897.13 396.878 905.697 432.506 916.902 462.823L916.902 462.823C930.12 498.532 945.425 533.434 962.739 567.347C978.858 599.139 997.829 629.402 1019.42 657.764Z" stroke="#CED4DA"/>
</g>
<path d="M1051.03 765.913L828.256 450.59L839.149 377.174L1057.74 760.919L1051.03 765.913Z" stroke="#CED4DA"/>
<path d="M918.098 577.764L828.256 450.59L833.273 416.554C843.645 433.365 866.374 468.61 886.713 499.963C897.126 516.014 906.913 531.047 914.098 542.067C917.69 547.577 920.631 552.084 922.674 555.214C923.696 556.778 924.493 557.999 925.035 558.828L925.652 559.772L925.716 559.869L925.582 560.175C925.427 560.532 925.203 561.049 924.926 561.689C924.371 562.97 923.605 564.743 922.758 566.717C921.209 570.327 919.387 574.61 918.098 577.764Z" stroke="#CED4DA"/>
<g style="mix-blend-mode:multiply">
<path d="M1051.03 765.913L828.256 450.59L839.149 377.174L1057.74 760.919L1051.03 765.913Z" stroke="#CED4DA"/>
</g>
<path d="M584.05 408.66L584.05 408.66C665.325 470.948 708.887 477.873 726.148 477.236C729.819 484.348 732.431 490.794 733.748 496.29C735.086 501.872 735.072 506.4 733.563 509.651L733.562 509.652C730.963 515.279 724.575 518.737 714.713 519.416C704.863 520.094 691.667 517.983 675.692 512.601C643.748 501.838 600.811 478.038 551.528 437.601C502.225 397.148 474.477 367.896 460.575 346.436C446.67 324.975 446.693 311.447 452.623 302.293L452.624 302.292C457.931 294.058 468.773 291.127 483.178 292.29C485.319 307.925 500.819 344.702 584.05 408.66Z" stroke="#CED4DA"/>
<path d="M598.35 398.345L598.349 398.345C543.572 358.819 519.045 314.85 511.22 298.207C546.049 308.95 588.836 332.759 621.686 358.29C655.241 385.038 684.946 416.283 709.963 451.14C692.921 447.805 650.94 436.325 598.35 398.345Z" stroke="#CED4DA"/>
<path d="M711.097 451.866C716.749 459.796 721.883 468.083 726.467 476.676M510.196 297.36C501.561 294.589 492.662 292.718 483.642 291.776" stroke="#CED4DA"/>
<path d="M568.69 323.107L519.584 311.697L549.835 336.529" stroke="#CED4DA"/>
<path d="M514.682 298.979C516.761 302.248 522.713 308.467 528.184 312.264L563.577 320.39" stroke="#CED4DA"/>
<path d="M627.812 363.054L600.794 399.603C608.488 401.826 617.892 403.166 625.894 403.481" stroke="#CED4DA"/>
<path d="M620.781 357.142L577.41 381.335C578.791 382.068 581.328 383.322 584.583 384.71L584.534 384.689C591.265 387.697 599.886 389.932 607.199 390.858" stroke="#CED4DA"/>
<path d="M610.235 349.312L553.629 358.076C562.24 363.021 571.097 367.527 580.166 371.574L580.19 371.584C582.716 372.662 586.968 374.06 588.983 374.719" stroke="#CED4DA"/>
<path d="M595.215 339.086L535.497 335.705L568.211 355.864" stroke="#CED4DA"/>
<path d="M635.482 369.446L622.872 414.27C629.651 415.308 637.764 415.334 644.59 414.666" stroke="#CED4DA"/>
<path d="M645.868 378.553L644.289 426.446C651.55 427.234 658.884 427.041 666.093 425.87" stroke="#CED4DA"/>
<path d="M658.172 390.218L669.215 438.138C675.207 438.815 680.976 438.693 686.774 437.036" stroke="#CED4DA"/>
<path d="M673.991 406.676L690.656 445.817C695.301 443.596 697.857 442.717 700.996 438.634" stroke="#CED4DA"/>
<g style="mix-blend-mode:multiply" opacity="0.6">
<g style="mix-blend-mode:multiply" opacity="0.6">
<path d="M598.406 337.864L586.158 337.222L523.237 312.375L584.86 326.43L598.406 337.864Z" stroke="#CED4DA"/>
</g>
<g style="mix-blend-mode:multiply" opacity="0.6">
<path d="M629.186 358.687L621.399 366.539C617.778 366.322 613.171 367.098 608.316 368.367C603.347 369.666 598.074 371.494 593.257 373.351C590.407 374.45 587.714 375.56 585.334 376.579L623.544 354.657L629.186 358.687Z" stroke="#CED4DA"/>
</g>
<g style="mix-blend-mode:multiply" opacity="0.6">
<path d="M622.261 353.747L610.95 355.642C607.411 354.507 601.964 354.046 595.826 353.977C589.602 353.907 582.609 354.242 576.058 354.718C574.546 354.828 573.058 354.945 571.608 355.067L614.727 348.315L622.261 353.747Z" stroke="#CED4DA"/>
</g>
<g style="mix-blend-mode:multiply" opacity="0.6">
<path d="M646.032 374.079L655.238 381.898L657.012 388.991C656.725 389.056 656.363 389.181 655.94 389.413C654.939 389.962 653.618 391.099 652.16 393.43C649.712 397.343 646.835 404.686 644.429 418.489L646.032 374.079Z" stroke="#CED4DA"/>
</g>
<g style="mix-blend-mode:multiply" opacity="0.6">
<path d="M657.372 386.395L668.991 394.427L672.165 401.911C671.914 401.977 671.619 402.092 671.298 402.286C670.409 402.825 669.375 403.944 668.523 406.211C667.109 409.974 666.154 417.016 667.27 430.235L657.372 386.395Z" stroke="#CED4DA"/>
</g>
<g style="mix-blend-mode:multiply" opacity="0.6">
<path d="M688.722 419.774C688.597 419.877 688.462 420.009 688.324 420.176C687.835 420.772 687.318 421.806 687.016 423.605C686.525 426.53 686.589 431.561 688.362 440.249L673.579 402.711C674.613 403.798 676.042 405.313 677.688 407.1C680.972 410.664 685.116 415.304 688.722 419.774Z" stroke="#CED4DA"/>
</g>
</g>
<g style="mix-blend-mode:multiply" opacity="0.6">
<g style="mix-blend-mode:multiply" opacity="0.6">
<path d="M443.708 367.039L475.388 367.29L475.689 367.292L475.832 367.028L498.217 325.577L500.226 328.768L478.57 370.309L446.469 371.033L443.708 367.039Z" stroke="#CED4DA"/>
</g>
<g style="mix-blend-mode:multiply" opacity="0.6">
<path d="M560.652 445.919L560.808 445.865L560.902 445.729L585.576 409.82L588.67 412.143L564.152 448.203L535.199 459.684L530.826 456.188L560.652 445.919Z" stroke="#CED4DA"/>
</g>
<g style="mix-blend-mode:multiply" opacity="0.6">
<path d="M587.629 465.631L587.555 465.748L587.552 465.886L586.869 495.744L581.911 492.698L584.139 463.124L608.091 426.265L611.104 428.364L587.629 465.631Z" stroke="#CED4DA"/>
</g>
<g style="mix-blend-mode:multiply" opacity="0.6">
<path d="M686.901 515.498L686.746 515.728L686.858 515.981L697.385 539.695L692.523 538.841L683.321 515.42L710.528 475.905L713.348 476.243L686.901 515.498Z" stroke="#CED4DA"/>
</g>
</g>
<g style="mix-blend-mode:multiply">
<g style="mix-blend-mode:multiply">
<path d="M452.623 302.293L452.624 302.292C457.362 294.959 466.491 291.813 478.632 292.039C490.761 292.265 505.765 295.857 522.041 301.842C554.587 313.809 592.088 335.29 621.591 358.25C651.091 381.207 681.801 413.307 703.777 442.595C714.766 457.24 723.559 471.165 728.926 482.88C731.609 488.737 733.429 494.026 734.243 498.564C735.059 503.108 734.857 506.849 733.562 509.652C730.963 515.278 724.572 518.736 714.707 519.413C704.852 520.09 691.652 517.977 675.674 512.593C643.724 501.828 600.786 478.028 551.529 437.601C502.25 397.158 474.502 367.906 460.593 346.444C446.682 324.98 446.693 311.446 452.623 302.293Z" stroke="#CED4DA"/>
</g>
</g>
<path d="M532.803 461.768C571.292 492.677 615.369 519.167 662.884 533.689C683.266 539.938 732.887 553.724 753.632 535.518M532.803 461.768L753.632 535.518M532.803 461.768C503.717 438.428 475.843 412.85 452.845 383.38L532.803 461.768ZM753.632 535.518C756.039 533.406 758.056 530.864 759.595 527.83C757.92 530.739 755.798 533.153 753.312 535.134C750.399 537.693 746.899 539.614 742.969 541.008C746.957 539.756 750.564 537.964 753.632 535.518ZM450.86 375.431L451.254 375.126L450.859 375.43C450.859 375.43 450.86 375.43 450.86 375.431ZM423.086 290.663C422.065 293.574 421.361 296.536 420.937 299.532C421.516 296.578 422.377 293.676 423.553 290.843C424.511 288.107 425.752 285.418 427.307 282.792C425.599 285.344 424.202 287.973 423.086 290.663Z" stroke="#CED4DA"/>
</svg>
