<svg viewBox="0 0 720 444" version="1.1" xmlns="http://www.w3.org/2000/svg" xmlns:xlink="http://www.w3.org/1999/xlink">
  <g id="Canvas" transform="translate(-291 335)">
    <use xlink:href="#ship-rocket_polygon" transform="matrix(1, 0, 0, 1, 291, -335)" fill="#FFFFFF"></use>
    <use xlink:href="#ship-rocket0_fill" transform="matrix(0.999391 -0.0348995 0.0348995 0.999391 693.612 -281.384)" fill="#FF8383"></use>
    <use xlink:href="#ship-rocket2_fill" transform="matrix(0.999391 -0.0348995 0.0348995 0.999391 605.385 -232.018)" fill="#FFC000"></use>
    <use xlink:href="#ship-rocket3_stroke" transform="matrix(0.999391 -0.0348995 0.0348995 0.999391 620.448 -175.779)" fill="#FFFFFF"></use>
    <use xlink:href="#ship-rocket4_fill" transform="matrix(0.999391 -0.0348995 0.0348995 0.999391 517.127 -183.524)" fill="#00B47D"></use>
    <use xlink:href="#ship-rocket5_stroke" transform="matrix(0.999391 -0.0348995 0.0348995 0.999391 532.221 -126.412)" fill="#FFFFFF"></use>
    <use xlink:href="#ship-rocket6_fill" transform="matrix(0.999391 -0.0348995 0.0348995 0.999391 429.741 -135.06)" fill="#00CDE0"></use>
    <use xlink:href="#ship-rocket7_stroke" transform="matrix(0.999391 -0.0348995 0.0348995 0.999391 444.836 -77.9482)" fill="#FFFFFF"></use>
    <use xlink:href="#ship-rocket8_stroke" transform="matrix(0.999391 -0.0348995 0.0348995 0.999391 455.463 -123.732)" fill="#3D3736"></use>
    <use xlink:href="#ship-rocket9_stroke" transform="matrix(0.999391 -0.0348995 0.0348995 0.999391 399.684 -295.573)" fill="#3D3736"></use>
    <use xlink:href="#ship-rocket10_stroke" transform="matrix(0.999391 -0.0348995 0.0348995 0.999391 364.204 -61.1595)" fill="#3D3736"></use>
    <use xlink:href="#ship-rocket11_stroke" transform="matrix(0.999391 -0.0348995 0.0348995 0.999391 370.459 -132.116)" fill="#3D3736"></use>
    <use xlink:href="#ship-rocket12_stroke" transform="matrix(0.999391 -0.0348995 0.0348995 0.999391 494.122 -242.105)" fill="#3D3736"></use>
    <use xlink:href="#ship-rocket13_stroke" transform="matrix(0.999391 -0.0348995 0.0348995 0.999391 794.596 -324.059)" fill="#3D3736"></use>
    <use xlink:href="#ship-rocket14_stroke" transform="matrix(0.999391 -0.0348995 0.0348995 0.999391 795.906 -321.805)" fill="#3D3736"></use>
    <use xlink:href="#ship-rocket15_stroke" transform="matrix(0.999391 -0.0348995 0.0348995 0.999391 883.275 -327.156)" fill="#3D3736"></use>
    <use xlink:href="#ship-rocket16_stroke" transform="matrix(0.999391 -0.0348995 0.0348995 0.999391 368.388 -191.429)" fill="#3D3736"></use>
    <use xlink:href="#ship-rocket17_stroke" transform="matrix(0.999391 -0.0348995 0.0348995 0.999391 455.081 -34.6403)" fill="#3D3736"></use>
    <use xlink:href="#ship-rocket18_stroke" transform="matrix(0.999391 -0.0348995 0.0348995 0.999391 366.245 -2.71876)" fill="#3D3736"></use>
    <use xlink:href="#ship-rocket19_stroke" transform="matrix(0.999391 -0.0348995 0.0348995 0.999391 436.534 59.4518)" fill="#E3E3E3"></use>
    <use xlink:href="#ship-rocket20_stroke" transform="matrix(0.999391 -0.0348995 0.0348995 0.999391 375.881 23.1441)" fill="#E3E3E3"></use>
    <use xlink:href="#ship-rocket21_stroke" transform="matrix(0.999391 -0.0348995 0.0348995 0.999391 368.629 15.5376)" fill="#E3E3E3"></use>
    <use xlink:href="#ship-rocket22_stroke" transform="matrix(0.999391 -0.0348995 0.0348995 0.999391 366.101 -56.8591)" fill="#E3E3E3"></use>
    <use xlink:href="#ship-rocket23_stroke" transform="matrix(0.999391 -0.0348995 0.0348995 0.999391 369.315 -64.8312)" fill="#E3E3E3"></use>
    <use xlink:href="#ship-rocket20_stroke" transform="matrix(0.999391 -0.0348995 0.0348995 0.999391 379.996 -59.091)" fill="#E3E3E3"></use>
    <use xlink:href="#ship-rocket24_stroke" transform="matrix(0.999391 -0.0348995 0.0348995 0.999391 437.16 -22.6614)" fill="#E3E3E3"></use>
    <use xlink:href="#ship-rocket22_stroke" transform="matrix(0.999391 -0.0348995 0.0348995 0.999391 437.647 -8.70544)" fill="#E3E3E3"></use>
    <use xlink:href="#ship-rocket25_stroke" transform="matrix(0.999391 -0.0348995 0.0348995 0.999391 401.411 79.0179)" fill="#E3E3E3"></use>
    <use xlink:href="#ship-rocket20_stroke" transform="matrix(0.999391 -0.0348995 0.0348995 0.999391 339.916 43.6129)" fill="#E3E3E3"></use>
    <use xlink:href="#ship-rocket21_stroke" transform="matrix(0.999391 -0.0348995 0.0348995 0.999391 332.634 35.1341)" fill="#E3E3E3"></use>
    <use xlink:href="#ship-rocket22_stroke" transform="matrix(0.999391 -0.0348995 0.0348995 0.999391 330.136 -36.3903)" fill="#E3E3E3"></use>
    <use xlink:href="#ship-rocket26_stroke" transform="matrix(0.999391 -0.0348995 0.0348995 0.999391 332.448 -45.2042)" fill="#E3E3E3"></use>
    <use xlink:href="#ship-rocket20_stroke" transform="matrix(0.999391 -0.0348995 0.0348995 0.999391 343.159 -38.5917)" fill="#E3E3E3"></use>
    <use xlink:href="#ship-rocket24_stroke" transform="matrix(0.999391 -0.0348995 0.0348995 0.999391 402.037 -3.09536)" fill="#E3E3E3"></use>
    <use xlink:href="#ship-rocket22_stroke" transform="matrix(0.999391 -0.0348995 0.0348995 0.999391 402.555 11.7329)" fill="#E3E3E3"></use>
    <use xlink:href="#ship-rocket25_stroke" transform="matrix(0.999391 -0.0348995 0.0348995 0.999391 364.544 98.6449)" fill="#E3E3E3"></use>
    <use xlink:href="#ship-rocket20_stroke" transform="matrix(0.999391 -0.0348995 0.0348995 0.999391 303.922 63.2094)" fill="#E3E3E3"></use>
    <use xlink:href="#ship-rocket27_stroke" transform="matrix(0.999391 -0.0348995 0.0348995 0.999391 296.696 55.1094)" fill="#E3E3E3"></use>
    <use xlink:href="#ship-rocket28_stroke" transform="matrix(0.999391 -0.0348995 0.0348995 0.999391 294.676 -17.0139)" fill="#E3E3E3"></use>
    <use xlink:href="#ship-rocket29_stroke" transform="matrix(0.999391 -0.0348995 0.0348995 0.999391 297.106 -25.3116)" fill="#E3E3E3"></use>
    <use xlink:href="#ship-rocket20_stroke" transform="matrix(0.999391 -0.0348995 0.0348995 0.999391 308.067 -18.1534)" fill="#E3E3E3"></use>
    <use xlink:href="#ship-rocket24_stroke" transform="matrix(0.999391 -0.0348995 0.0348995 0.999391 366.073 17.3734)" fill="#E3E3E3"></use>
    <use xlink:href="#ship-rocket22_stroke" transform="matrix(0.999391 -0.0348995 0.0348995 0.999391 366.56 31.3294)" fill="#E3E3E3"></use>
  </g>
  <defs>
    <path id="ship-rocket_polygon" fill-rule="evenodd" d="M 713 0.5L 502.5 10.2L 501.9 41.4L 479.6 29L 273 142.2L 79.4 202.4L 119.2 272.7L 77.6 352.4L 166 359.9L 207.2 432.4L 377.5 286.9L 568.6 184.1L 569.3 156.6L 592.8 170.8Z"></path>
    <path id="ship-rocket0_fill" fill-rule="evenodd" d="M 76.1943 0L 4.18993 36.7376L 0 117.469L 67.8145 161.464L 139.82 124.727L 144.009 43.995L 76.1943 0Z"></path>
    <path id="ship-rocket1_stroke" d="M 44.0543 82.9142L 40.1567 88.7286L 50.5333 95.6845L 51.0484 83.2028L 44.0543 82.9142ZM 0 53.3828L -6.99405 53.0942L -7.15578 57.0132L -3.89768 59.1973L 0 53.3828ZM 2.20305 0L 6.10072 -5.81448L -4.2759 -12.7703L -4.791 -0.288636L 2.20305 0ZM 46.2574 29.5314L 53.2514 29.82L 53.4132 25.9009L 50.1551 23.7169L 46.2574 29.5314ZM 47.952 77.0997L 3.89768 47.5683L -3.89768 59.1973L 40.1567 88.7286L 47.952 77.0997ZM 6.99405 53.6714L 9.19709 0.288636L -4.791 -0.288636L -6.99405 53.0942L 6.99405 53.6714ZM -1.69463 5.81448L 42.3597 35.3458L 50.1551 23.7169L 6.10072 -5.81448L -1.69463 5.81448ZM 39.2633 29.2427L 37.0603 82.6255L 51.0484 83.2028L 53.2514 29.82L 39.2633 29.2427Z"></path>
    <path id="ship-rocket2_fill" fill-rule="evenodd" d="M 76.1946 0L 4.19057 36.7376L 0 117.469L 67.8148 161.464L 139.82 124.727L 144.009 43.995L 76.1946 0Z"></path>
    <path id="ship-rocket3_stroke" d="M 44.0543 82.9142L 40.1567 88.7287L 50.5333 95.6845L 51.0484 83.2028L 44.0543 82.9142ZM 0 53.383L -6.99405 53.0945L -7.15574 57.0135L -3.89765 59.1975L 0 53.383ZM 2.20239 0L 6.1 -5.81452L -4.27671 -12.7703L -4.79166 -0.288549L 2.20239 0ZM 46.2574 29.5311L 53.2514 29.8198L 53.4132 25.9007L 50.155 23.7166L 46.2574 29.5311ZM 47.952 77.0997L 3.89765 47.5685L -3.89765 59.1975L 40.1567 88.7287L 47.952 77.0997ZM 6.99405 53.6716L 9.19644 0.288549L -4.79166 -0.288549L -6.99405 53.0945L 6.99405 53.6716ZM -1.69523 5.81452L 42.3598 35.3457L 50.155 23.7166L 6.1 -5.81452L -1.69523 5.81452ZM 39.2633 29.2425L 37.0603 82.6255L 51.0484 83.2028L 53.2514 29.8198L 39.2633 29.2425Z"></path>
    <path id="ship-rocket4_fill" fill-rule="evenodd" d="M 76.1946 0L 4.18991 36.7369L 0 117.469L 67.8148 161.464L 139.82 124.727L 144.009 43.995L 76.1946 0Z"></path>
    <path id="ship-rocket5_stroke" d="M 44.0543 82.9142L 40.1567 88.7287L 50.5333 95.6844L 51.0484 83.2028L 44.0543 82.9142ZM 0 53.383L -6.99405 53.0945L -7.15574 57.0135L -3.89765 59.1975L 0 53.383ZM 2.20239 0L 6.10006 -5.81448L -4.27671 -12.7704L -4.79166 -0.288549L 2.20239 0ZM 46.2574 29.5318L 53.2514 29.8204L 53.4132 25.9014L 50.1551 23.7173L 46.2574 29.5318ZM 47.952 77.0997L 3.89765 47.5685L -3.89765 59.1975L 40.1567 88.7287L 47.952 77.0997ZM 6.99405 53.6716L 9.19644 0.288549L -4.79166 -0.288549L -6.99405 53.0945L 6.99405 53.6716ZM -1.69529 5.81448L 42.3597 35.3463L 50.1551 23.7173L 6.10006 -5.81448L -1.69529 5.81448ZM 39.2633 29.2432L 37.0603 82.6255L 51.0484 83.2028L 53.2514 29.8204L 39.2633 29.2432Z"></path>
    <path id="ship-rocket6_fill" fill-rule="evenodd" d="M 76.1946 0L 4.19057 36.7369L 0 117.469L 67.8148 161.464L 139.82 124.727L 144.009 43.995L 76.1946 0Z"></path>
    <path id="ship-rocket7_stroke" d="M 44.0543 82.9142L 40.1567 88.7287L 50.5333 95.6845L 51.0484 83.2028L 44.0543 82.9142ZM 0 53.383L -6.99405 53.0944L -7.15578 57.0135L -3.89765 59.1975L 0 53.383ZM 2.20305 0L 6.1007 -5.81449L -4.2759 -12.7703L -4.791 -0.288635L 2.20305 0ZM 46.2574 29.5311L 53.2514 29.8198L 53.4132 25.9007L 50.155 23.7166L 46.2574 29.5311ZM 47.952 77.0997L 3.89765 47.5685L -3.89765 59.1975L 40.1567 88.7287L 47.952 77.0997ZM 6.99405 53.6717L 9.19709 0.288635L -4.791 -0.288635L -6.99405 53.0944L 6.99405 53.6717ZM -1.69461 5.81449L 42.3597 35.3456L 50.155 23.7166L 6.1007 -5.81449L -1.69461 5.81449ZM 39.2633 29.2425L 37.0603 82.6255L 51.0484 83.2028L 53.2514 29.8198L 39.2633 29.2425Z"></path>
    <path id="ship-rocket8_stroke" d="M 0 43.6441L -0.707688 40.7288L -4.39286 41.6234L -2.67422 45.0037L 0 43.6441ZM 179.793 0L 181.743 2.27934L 179.085 -2.91533L 179.793 0ZM 39.0461 120.444L 36.3719 121.803L 38.0998 125.202L 40.9966 122.723L 39.0461 120.444ZM 0.707688 46.5595L 180.501 2.91533L 179.085 -2.91533L -0.707688 40.7288L 0.707688 46.5595ZM 177.842 -2.27934L 37.0955 118.164L 40.9966 122.723L 181.743 2.27934L 177.842 -2.27934ZM 41.7203 119.084L 2.67422 42.2845L -2.67422 45.0037L 36.3719 121.803L 41.7203 119.084Z"></path>
    <path id="ship-rocket9_stroke" d="M 87.2497 348.24L 85.6157 350.755L 87.07 351.7L 88.6142 350.911L 87.2497 348.24ZM 159.112 311.537L 160.477 314.209L 159.112 311.537ZM 454.565 160.639L 455.929 163.311L 457.471 162.524L 457.561 160.795L 454.565 160.639ZM 459.955 56.6623L 462.951 56.8176L 463.041 55.089L 461.589 54.1463L 459.955 56.6623ZM 372.705 0L 374.339 -2.516L 372.885 -3.46041L 371.341 -2.67171L 372.705 0ZM 5.39056 187.6L 4.02602 184.928L 2.48421 185.716L 2.39458 187.445L 5.39056 187.6ZM 0 291.577L -2.99598 291.422L -3.08559 293.15L -1.63395 294.093L 0 291.577ZM 88.6142 350.911L 160.477 314.209L 157.748 308.865L 85.8852 345.568L 88.6142 350.911ZM 160.477 314.209L 455.929 163.311L 453.2 157.968L 157.748 308.865L 160.477 314.209ZM 457.561 160.795L 462.951 56.8176L 456.959 56.507L 451.569 160.484L 457.561 160.795ZM 461.589 54.1463L 374.339 -2.516L 371.071 2.516L 458.322 59.1783L 461.589 54.1463ZM 371.341 -2.67171L 4.02602 184.928L 6.75509 190.272L 374.07 2.67171L 371.341 -2.67171ZM 2.39458 187.445L -2.99598 291.422L 2.99598 291.733L 8.38653 187.755L 2.39458 187.445ZM -1.63395 294.093L 85.6157 350.755L 88.8836 345.724L 1.63395 289.061L -1.63395 294.093Z"></path>
    <path id="ship-rocket10_stroke" d="M 0 79.9276L -2.61228 78.4525L -4.87213 82.4544L -0.299134 82.9126L 0 79.9276ZM 42.5222 -1.47513L -2.61228 78.4525L 2.61228 81.4027L 47.7467 1.47513L 42.5222 -1.47513ZM -0.299134 82.9126L 90.4701 92.0087L 91.0683 86.0386L 0.299134 76.9426L -0.299134 82.9126Z"></path>
    <path id="ship-rocket11_stroke" d="M 127.426 82.4702L 130.422 82.6155L 130.506 80.8902L 129.056 79.9516L 127.426 82.4702ZM 123.036 234.923L 130.422 82.6155L 124.43 82.3248L 117.043 234.633L 123.036 234.923ZM 129.056 79.9516L 1.63001 -2.51855L -1.63001 2.51855L 125.796 84.9887L 129.056 79.9516Z"></path>
    <path id="ship-rocket12_stroke" d="M 1.36444 190.32L 368.805 2.67176L 366.076 -2.67176L -1.36444 184.976L 1.36444 190.32Z"></path>
    <path id="ship-rocket13_stroke" d="M 83.5598 162.893L 81.9287 165.411L 84.2907 166.942L 85.9685 164.682L 83.5598 162.893ZM 204.509 0L 206.917 1.78842L 210.521 -3.06472L 204.476 -2.99983L 204.509 0ZM 1.46417 2.17988L 1.43197 -0.81995L -1.38554 -0.789701L -1.53178 2.02417L 1.46417 2.17988ZM 58.2313 150.059L 81.9287 165.411L 85.191 160.376L 61.4936 145.023L 58.2313 150.059ZM 85.9685 164.682L 206.917 1.78842L 202.1 -1.78842L 81.1512 161.105L 85.9685 164.682ZM 204.476 -2.99983L 1.43197 -0.81995L 1.49638 5.1797L 204.541 2.99983L 204.476 -2.99983ZM -1.53178 2.02417L -2.99596 30.1961L 2.99596 30.5075L 4.46013 2.33559L -1.53178 2.02417Z"></path>
    <path id="ship-rocket14_stroke" d="M 87.5018 56.6887L 90.4977 56.8444L 90.5877 55.1134L 89.1329 54.1709L 87.5018 56.6887ZM 85.0916 160.87L 90.4977 56.8444L 84.5058 56.533L 79.0997 160.559L 85.0916 160.87ZM 89.1329 54.1709L 1.63117 -2.51779L -1.63117 2.51779L 85.8706 59.2065L 89.1329 54.1709Z"></path>
    <path id="ship-rocket15_stroke" d="M 1.36191 61.6606L 117.138 2.67305L 114.414 -2.67305L -1.36191 56.3145L 1.36191 61.6606Z"></path>
    <path id="ship-rocket16_stroke" d="M 0 58.877L -0.818097 55.9907L -4.32742 56.9854L -2.67414 60.2368L 0 58.877ZM 40.6369 132.176L 2.67414 57.5172L -2.67414 60.2368L 35.2887 134.895L 40.6369 132.176ZM 0.818097 61.7633L 208.54 2.8863L 206.904 -2.8863L -0.818097 55.9907L 0.818097 61.7633Z"></path>
    <path id="ship-rocket17_stroke" d="M 38.0215 134.408L 35.3473 135.768L 37.0092 139.037L 39.8842 136.76L 38.0215 134.408ZM -2.67428 60.975L 35.3473 135.768L 40.6958 133.049L 2.67428 58.256L -2.67428 60.975ZM 39.8842 136.76L 209.584 2.35172L 205.859 -2.35172L 36.1589 132.057L 39.8842 136.76Z"></path>
    <path id="ship-rocket18_stroke" d="M 1.36341 24.4918L 44.1297 2.67229L 41.4028 -2.67229L -1.36341 19.1472L 1.36341 24.4918Z"></path>
    <path id="ship-rocket19_stroke" d="M 3.32488 4.3639L 1.56207 6.79135L 6.1088 10.0932L 6.3227 4.47811L 3.32488 4.3639ZM 0.493297 -0.114203L 0.327053 4.2497L 6.3227 4.47811L 6.48895 0.114203L 0.493297 -0.114203ZM 5.08769 1.93646L 1.76281 -0.478067L -1.76281 4.37683L 1.56207 6.79135L 5.08769 1.93646Z"></path>
    <path id="ship-rocket20_stroke" d="M -1.64507 2.50873L 5.00988 6.87264L 8.30002 1.85517L 1.64507 -2.50873L -1.64507 2.50873ZM 18.3198 15.6004L 31.6297 24.3283L 34.9198 19.3108L 21.6099 10.583L 18.3198 15.6004ZM 44.9396 33.0561L 51.5946 37.42L 54.8847 32.4025L 48.2297 28.0386L 44.9396 33.0561Z"></path>
    <path id="ship-rocket21_stroke" d="M 0 3.93365L -2.99705 3.80066L -3.07478 5.55227L -1.58678 6.47966L 0 3.93365ZM 5.0779 3.56346L 1.58678 1.38765L -1.58678 6.47966L 1.90435 8.65547L 5.0779 3.56346ZM 2.99705 4.06665L 3.17161 0.132994L -2.82249 -0.132994L -2.99705 3.80066L 2.99705 4.06665Z"></path>
    <path id="ship-rocket22_stroke" d="M 2.99747 63.8362L 3.32476 55.8721L -2.67018 55.6257L -2.99747 63.5898L 2.99747 63.8362ZM 3.97935 39.9438L 4.63393 24.0156L -1.36101 23.7692L -2.01559 39.6974L 3.97935 39.9438ZM 5.28852 8.08731L 5.61581 0.123184L -0.379128 -0.123184L -0.70642 7.84094L 5.28852 8.08731Z"></path>
    <path id="ship-rocket23_stroke" d="M 0.166244 0L 1.92871 -2.4277L -2.61771 -5.72831L -2.83158 -0.114203L 0.166244 0ZM 2.99783 4.47811L 3.16407 0.114203L -2.83158 -0.114203L -2.99783 4.2497L 2.99783 4.47811ZM -1.59622 2.4277L 1.72866 4.8415L 5.25358 -0.0139048L 1.92871 -2.4277L -1.59622 2.4277Z"></path>
    <path id="ship-rocket24_stroke" d="M 3.49112 2.17581L 6.48817 2.30881L 6.5659 0.557192L 5.0779 -0.370193L 3.49112 2.17581ZM -1.58678 2.54601L 1.90435 4.72182L 5.0779 -0.370193L 1.58678 -2.54601L -1.58678 2.54601ZM 0.494072 2.04282L 0.319516 5.97647L 6.31362 6.24246L 6.48817 2.30881L 0.494072 2.04282Z"></path>
    <path id="ship-rocket25_stroke" d="M 3.32488 4.3639L 1.56242 6.7916L 6.10883 10.0922L 6.3227 4.47811L 3.32488 4.3639ZM 0.493297 -0.114203L 0.327053 4.2497L 6.3227 4.47811L 6.48895 0.114203L 0.493297 -0.114203ZM 5.08734 1.9362L 1.76246 -0.477592L -1.76246 4.37781L 1.56242 6.7916L 5.08734 1.9362Z"></path>
    <path id="ship-rocket26_stroke" d="M 0.166244 0L 1.92905 -2.42745L -2.61767 -5.72928L -2.83158 -0.114203L 0.166244 0ZM 2.99783 4.47811L 3.16407 0.114203L -2.83158 -0.114203L -2.99783 4.2497L 2.99783 4.47811ZM -1.59657 2.42745L 1.72831 4.84197L 5.25393 -0.0129239L 1.92905 -2.42745L -1.59657 2.42745Z"></path>
    <path id="ship-rocket27_stroke" d="M 0 3.96388L -2.9976 3.84388L -3.06365 5.49368L -1.70517 6.43216L 0 3.96388ZM 4.87892 3.68813L 1.70517 1.4956L -1.70517 6.43216L 1.46858 8.62469L 4.87892 3.68813ZM 2.9976 4.08388L 3.15629 0.120004L -2.83891 -0.120004L -2.9976 3.84388L 2.9976 4.08388Z"></path>
    <path id="ship-rocket28_stroke" d="M 2.9976 63.7814L 3.31624 55.8238L -2.67895 55.5837L -2.9976 63.5414L 2.9976 63.7814ZM 3.95353 39.9084L 4.59082 23.9931L -1.40438 23.753L -2.04166 39.6684L 3.95353 39.9084ZM 5.22811 8.07771L 5.54675 0.120031L -0.448443 -0.120031L -0.767088 7.83765L 5.22811 8.07771Z"></path>
    <path id="ship-rocket29_stroke" d="M 0.158687 0L 1.86386 -2.46828L -2.62087 -5.56648L -2.83891 -0.120004L 0.158687 0ZM 2.9976 4.08388L 3.15629 0.120004L -2.83891 -0.120004L -2.9976 3.84388L 2.9976 4.08388ZM -1.54648 2.46828L 1.62727 4.66081L 5.0376 -0.275748L 1.86386 -2.46828L -1.54648 2.46828Z"></path>
  </defs>
</svg>
