<svg width="322" height="246" viewBox="0 0 322 246" fill="none" xmlns="http://www.w3.org/2000/svg">
<path d="M7.99189 186.556L11.3063 196.396H4.67753L7.99189 186.556ZM0 203.749H2.19176L4.03604 198.241H11.921L13.792 203.749H16.0907L9.62235 184.631H6.57527L0 203.749Z" fill="#CED4DA"/>
<path d="M29.0134 203.936C29.9222 203.936 30.4568 203.803 30.9112 203.642V201.77C30.43 201.958 29.8955 202.065 29.2005 202.065C28.0779 202.065 27.4632 201.396 27.4632 200.032V191.637H30.7241V189.765H27.4632V186.583H25.2447V189.765H23.24V191.637H25.2447V200.246C25.2447 202.439 26.4742 203.936 29.0134 203.936Z" fill="#CED4DA"/>
<path d="M39.2631 203.99C43.2456 203.99 46.1591 201.075 46.1591 196.851V196.637C46.1591 192.439 43.2456 189.524 39.2898 189.524C35.3339 189.524 32.4205 192.465 32.4205 196.663V196.877C32.4205 200.968 35.2805 203.99 39.2631 203.99ZM39.2898 202.145C36.4565 202.145 34.7192 200.059 34.7192 196.877V196.663C34.7192 193.455 36.4833 191.369 39.2898 191.369C42.0696 191.369 43.8604 193.455 43.8604 196.69V196.877C43.8604 200.032 42.0963 202.145 39.2898 202.145Z" fill="#CED4DA"/>
<path d="M54.5924 203.99C58.575 203.99 61.4884 201.075 61.4884 196.851V196.637C61.4884 192.439 58.575 189.524 54.6191 189.524C50.6633 189.524 47.7499 192.465 47.7499 196.663V196.877C47.7499 200.968 50.6098 203.99 54.5924 203.99ZM54.6191 202.145C51.7859 202.145 50.0485 200.059 50.0485 196.877V196.663C50.0485 193.455 51.8126 191.369 54.6191 191.369C57.3989 191.369 59.1898 193.455 59.1898 196.69V196.877C59.1898 200.032 57.4257 202.145 54.6191 202.145Z" fill="#CED4DA"/>
<path d="M64.1751 203.749H66.4203V183.08H64.1751V203.749Z" fill="#CED4DA"/>
<path d="M70.1586 203.749H72.3771V196.503L78.5781 203.749H81.2777L74.7826 196.262L80.7699 189.765H78.1772L72.3771 196.209V183.08H70.1586V203.749Z" fill="#CED4DA"/>
<path d="M84.2613 186.85C85.0632 186.85 85.7314 186.182 85.7314 185.38C85.7314 184.578 85.0632 183.909 84.2613 183.909C83.4595 183.909 82.7912 184.578 82.7912 185.38C82.7912 186.182 83.4595 186.85 84.2613 186.85ZM83.1922 203.749H85.4107V189.765H83.1922V203.749Z" fill="#CED4DA"/>
<path d="M93.3994 203.936C94.3082 203.936 94.8428 203.803 95.2971 203.642V201.77C94.816 201.958 94.2815 202.065 93.5865 202.065C92.4639 202.065 91.8492 201.396 91.8492 200.032V191.637H95.1101V189.765H91.8492V186.583H89.6307V189.765H87.626V191.637H89.6307V200.246C89.6307 202.439 90.8602 203.936 93.3994 203.936Z" fill="#CED4DA"/>
<path d="M104.602 203.749H106.82V191.637H110.242V189.765H106.82V187.251C106.82 185.834 107.408 184.845 108.852 184.845C109.467 184.845 110.028 184.979 110.429 185.139V183.267C109.867 183.08 109.493 183 108.772 183C105.992 183 104.602 184.658 104.602 187.492V189.765H102.597V191.637H104.602V203.749Z" fill="#CED4DA"/>
<path d="M117.681 203.99C121.663 203.99 124.577 201.075 124.577 196.851V196.637C124.577 192.439 121.663 189.524 117.707 189.524C113.751 189.524 110.838 192.465 110.838 196.663V196.877C110.838 200.968 113.698 203.99 117.681 203.99ZM117.707 202.145C114.874 202.145 113.137 200.059 113.137 196.877V196.663C113.137 193.455 114.901 191.369 117.707 191.369C120.487 191.369 122.278 193.455 122.278 196.69V196.877C122.278 200.032 120.514 202.145 117.707 202.145Z" fill="#CED4DA"/>
<path d="M127.21 203.749H129.428V196.075C129.428 192.626 131.219 191.744 134.026 191.61V189.524C131.513 189.604 130.31 190.701 129.428 192.278V189.765H127.21V203.749Z" fill="#CED4DA"/>
<path d="M142.729 203.749H144.948V195.193C144.948 192.679 146.819 191.449 148.636 191.449C150.561 191.449 151.603 192.465 151.603 194.925V203.749H153.822V195.193C153.822 192.679 155.693 191.449 157.51 191.449C159.435 191.449 160.477 192.465 160.477 194.925V203.749H162.696V195.086C162.696 191.022 160.504 189.524 157.991 189.524C156.254 189.524 154.169 190.326 153.207 192.145C152.485 190.273 150.908 189.524 149.117 189.524C147.113 189.524 145.589 190.594 144.948 191.904V189.765H142.729V203.749Z" fill="#CED4DA"/>
<path d="M169.97 202.225C168.019 202.225 167.324 201.316 167.324 199.872C167.324 197.813 169.382 197.118 172.188 197.118H174.113V198.856C174.113 201.022 172.322 202.225 169.97 202.225ZM169.756 203.99C171.814 203.99 173.07 203.295 174.113 201.984V203.749H176.331V194.524C176.331 190.62 173.899 189.524 171.226 189.524C168.527 189.524 165.987 190.701 165.693 193.883H167.912C168.126 192.171 169.195 191.369 171.119 191.369C173.258 191.369 174.113 192.305 174.113 194.524V195.54H172.108C168.527 195.54 165.105 196.637 165.105 199.872C165.105 202.733 167.163 203.99 169.756 203.99Z" fill="#CED4DA"/>
<path d="M179.887 203.749H182.106V196.503L188.307 203.749H191.007L184.511 196.262L190.499 189.765H187.906L182.106 196.209V183.08H179.887V203.749Z" fill="#CED4DA"/>
<path d="M198.065 203.99C201.219 203.99 203.545 202.519 204.026 199.712H201.807C201.513 201.343 200.257 202.145 198.092 202.145C195.232 202.145 193.709 200.38 193.602 197.198H204.133V196.476C204.133 191.476 201.086 189.524 197.852 189.524C194.003 189.524 191.303 192.465 191.303 196.69V196.904C191.303 201.209 194.11 203.99 198.065 203.99ZM193.682 195.407C194.056 192.92 195.58 191.369 197.852 191.369C200.15 191.369 201.647 192.519 201.861 195.407H193.682Z" fill="#CED4DA"/>
<path d="M206.735 203.749H208.954V196.075C208.954 192.626 210.744 191.744 213.551 191.61V189.524C211.038 189.604 209.836 190.701 208.954 192.278V189.765H206.735V203.749Z" fill="#CED4DA"/>
<path d="M220.182 203.99C223.577 203.99 225.314 202.278 225.314 199.738C225.314 196.77 223.283 196.129 220.396 195.594C217.83 195.139 217.135 194.631 217.135 193.375C217.135 192.171 218.178 191.369 219.781 191.369C221.545 191.369 222.401 192.038 222.721 193.562H224.86C224.486 190.54 222.321 189.524 219.808 189.524C217.616 189.524 215.077 190.861 215.077 193.455C215.077 195.888 216.307 196.904 219.942 197.573C222.107 197.974 223.203 198.455 223.203 199.926C223.203 201.423 222.267 202.145 220.155 202.145C217.91 202.145 217.028 201.102 216.868 199.444H214.703C214.836 202.305 216.841 203.99 220.182 203.99Z" fill="#CED4DA"/>
<path d="M238.414 203.936C239.323 203.936 239.858 203.803 240.312 203.642V201.77C239.831 201.958 239.296 202.065 238.601 202.065C237.479 202.065 236.864 201.396 236.864 200.032V191.637H240.125V189.765H236.864V186.583H234.646V189.765H232.641V191.637H234.646V200.246C234.646 202.439 235.875 203.936 238.414 203.936Z" fill="#CED4DA"/>
<path d="M248.664 203.99C252.647 203.99 255.56 201.075 255.56 196.851V196.637C255.56 192.439 252.647 189.524 248.691 189.524C244.735 189.524 241.821 192.465 241.821 196.663V196.877C241.821 200.968 244.681 203.99 248.664 203.99ZM248.691 202.145C245.857 202.145 244.12 200.059 244.12 196.877V196.663C244.12 193.455 245.884 191.369 248.691 191.369C251.47 191.369 253.261 193.455 253.261 196.69V196.877C253.261 200.032 251.497 202.145 248.691 202.145Z" fill="#CED4DA"/>
<path d="M268.795 203.99C272.19 203.99 273.927 202.278 273.927 199.738C273.927 196.77 271.896 196.129 269.009 195.594C266.443 195.139 265.748 194.631 265.748 193.375C265.748 192.171 266.79 191.369 268.394 191.369C270.158 191.369 271.014 192.038 271.334 193.562H273.473C273.098 190.54 270.933 189.524 268.421 189.524C266.229 189.524 263.69 190.861 263.69 193.455C263.69 195.888 264.919 196.904 268.555 197.573C270.72 197.974 271.815 198.455 271.815 199.926C271.815 201.423 270.88 202.145 268.768 202.145C266.523 202.145 265.641 201.102 265.481 199.444H263.316C263.449 202.305 265.454 203.99 268.795 203.99Z" fill="#CED4DA"/>
<path d="M276.506 203.749H278.724V195.273C278.724 192.76 280.568 191.449 282.626 191.449C284.872 191.449 285.914 192.546 285.914 195.006V203.749H288.133V195.166C288.133 191.102 286.101 189.524 283.214 189.524C280.916 189.524 279.365 190.674 278.724 191.984V183.08H276.506V203.749Z" fill="#CED4DA"/>
<path d="M292.801 186.85C293.603 186.85 294.271 186.182 294.271 185.38C294.271 184.578 293.603 183.909 292.801 183.909C291.999 183.909 291.331 184.578 291.331 185.38C291.331 186.182 291.999 186.85 292.801 186.85ZM291.732 203.749H293.95V189.765H291.732V203.749Z" fill="#CED4DA"/>
<path d="M304.425 202.145C301.698 202.145 299.827 200.46 299.827 196.877V196.663C299.827 193.08 301.805 191.369 304.398 191.369C306.75 191.369 308.701 193.134 308.701 196.663V196.877C308.701 200.273 307.205 202.145 304.425 202.145ZM297.689 208.616H299.908V201.45C300.709 202.84 302.34 203.99 304.639 203.99C308.488 203.99 311 201.049 311 196.77V196.556C311 192.198 308.3 189.524 304.639 189.524C302.607 189.524 300.709 190.754 299.908 192.118V189.765H297.689V208.616Z" fill="#CED4DA"/>
<path d="M8.23245 241.374C12.0814 241.374 14.5939 238.433 14.5939 234.155V233.941C14.5939 229.583 11.8943 226.909 8.23245 226.909C6.20107 226.909 4.30333 228.139 3.50147 229.502V220.465H1.28298V241.134H3.50147V238.834C4.30333 240.224 5.96051 241.374 8.23245 241.374ZM8.01862 239.529C5.29229 239.529 3.42128 237.845 3.42128 234.262V234.048C3.42128 230.465 5.39921 228.754 7.99189 228.754C10.344 228.754 12.2952 230.518 12.2952 234.048V234.262C12.2952 237.658 10.7984 239.529 8.01862 239.529Z" fill="#CED4DA"/>
<path d="M22.9587 241.374C26.1127 241.374 28.4381 239.904 28.9192 237.096H26.7008C26.4067 238.727 25.1505 239.529 22.9855 239.529C20.1255 239.529 18.602 237.765 18.495 234.583H29.0262V233.861C29.0262 228.861 25.9791 226.909 22.7449 226.909C18.896 226.909 16.1964 229.85 16.1964 234.075V234.289C16.1964 238.593 19.0029 241.374 22.9587 241.374ZM18.5752 232.791C18.9494 230.304 20.473 228.754 22.7449 228.754C25.0436 228.754 26.5404 229.903 26.7542 232.791H18.5752Z" fill="#CED4DA"/>
<path d="M35.8783 241.321C36.7871 241.321 37.3217 241.187 37.7761 241.027V239.155C37.2949 239.342 36.7604 239.449 36.0654 239.449C34.9428 239.449 34.3281 238.781 34.3281 237.417V229.021H37.589V227.149H34.3281V223.967H32.1096V227.149H30.1049V229.021H32.1096V237.631C32.1096 239.823 33.3391 241.321 35.8783 241.321Z" fill="#CED4DA"/>
<path d="M44.5777 241.321C45.4865 241.321 46.021 241.187 46.4754 241.027V239.155C45.9943 239.342 45.4597 239.449 44.7648 239.449C43.6422 239.449 43.0274 238.781 43.0274 237.417V229.021H46.2883V227.149H43.0274V223.967H40.8089V227.149H38.8043V229.021H40.8089V237.631C40.8089 239.823 42.0385 241.321 44.5777 241.321Z" fill="#CED4DA"/>
<path d="M54.7471 241.374C57.9011 241.374 60.2265 239.904 60.7077 237.096H58.4892C58.1952 238.727 56.9389 239.529 54.7739 239.529C51.9139 239.529 50.3904 237.765 50.2834 234.583H60.8146V233.861C60.8146 228.861 57.7675 226.909 54.5333 226.909C50.6844 226.909 47.9848 229.85 47.9848 234.075V234.289C47.9848 238.593 50.7913 241.374 54.7471 241.374ZM50.3636 232.791C50.7378 230.304 52.2614 228.754 54.5333 228.754C56.832 228.754 58.3288 229.903 58.5426 232.791H50.3636Z" fill="#CED4DA"/>
<path d="M63.4169 241.134H65.6354V233.46C65.6354 230.01 67.4262 229.128 70.2327 228.994V226.909C67.7202 226.989 66.5174 228.085 65.6354 229.663V227.149H63.4169V241.134Z" fill="#CED4DA"/>
<path d="M85.6719 239.529C82.9456 239.529 81.0745 237.845 81.0745 234.262V234.048C81.0745 230.465 83.0525 228.754 85.6452 228.754C87.9973 228.754 89.9485 230.518 89.9485 234.048V234.262C89.9485 237.658 88.4517 239.529 85.6719 239.529ZM78.9362 246H81.1547V238.834C81.9566 240.224 83.587 241.374 85.8857 241.374C89.7347 241.374 92.2472 238.433 92.2472 234.155V233.941C92.2472 229.583 89.5476 226.909 85.8857 226.909C83.8543 226.909 81.9566 228.139 81.1547 229.502V227.149H78.9362V246Z" fill="#CED4DA"/>
<path d="M94.892 241.134H97.1105V233.46C97.1105 230.01 98.9014 229.128 101.708 228.994V226.909C99.1954 226.989 97.9926 228.085 97.1105 229.663V227.149H94.892V241.134Z" fill="#CED4DA"/>
<path d="M109.548 241.374C113.531 241.374 116.444 238.46 116.444 234.235V234.021C116.444 229.823 113.531 226.909 109.575 226.909C105.619 226.909 102.706 229.85 102.706 234.048V234.262C102.706 238.353 105.566 241.374 109.548 241.374ZM109.575 239.529C106.742 239.529 105.004 237.444 105.004 234.262V234.048C105.004 230.839 106.768 228.754 109.575 228.754C112.355 228.754 114.146 230.839 114.146 234.075V234.262C114.146 237.417 112.381 239.529 109.575 239.529Z" fill="#CED4DA"/>
<path d="M124.584 239.529C122.231 239.529 120.334 237.845 120.334 234.315V234.101C120.334 230.706 121.991 228.754 124.771 228.754C127.497 228.754 129.208 230.438 129.208 234.021V234.235C129.208 237.818 127.176 239.529 124.584 239.529ZM124.343 241.374C126.374 241.374 128.326 240.091 129.127 238.727V241.134H131.346V220.465H129.127V229.395C128.326 228.032 126.882 226.909 124.557 226.909C120.708 226.909 118.035 229.93 118.035 234.208V234.422C118.035 238.781 120.681 241.374 124.343 241.374Z" fill="#CED4DA"/>
<path d="M139.764 241.374C142.009 241.374 143.56 240.224 144.201 238.914V241.134H146.42V227.149H144.201V235.625C144.201 238.139 142.33 239.449 140.352 239.449C138.16 239.449 137.118 238.353 137.118 235.893V227.149H134.9V236C134.9 239.85 136.984 241.374 139.764 241.374Z" fill="#CED4DA"/>
<path d="M155.902 241.374C159.269 241.374 161.702 239.128 161.996 236.107H159.938C159.697 238.38 157.906 239.529 155.928 239.529C153.229 239.529 151.358 237.711 151.358 234.289V234.075C151.358 230.786 153.309 228.754 155.848 228.754C157.773 228.754 159.376 229.583 159.724 231.802H161.916C161.488 228.246 158.762 226.909 155.848 226.909C152.106 226.909 149.059 229.796 149.059 234.075V234.289C149.059 238.62 151.999 241.374 155.902 241.374Z" fill="#CED4DA"/>
<path d="M168.793 241.321C169.702 241.321 170.237 241.187 170.691 241.027V239.155C170.21 239.342 169.675 239.449 168.98 239.449C167.858 239.449 167.243 238.781 167.243 237.417V229.021H170.504V227.149H167.243V223.967H165.025V227.149H163.02V229.021H165.025V237.631C165.025 239.823 166.254 241.321 168.793 241.321Z" fill="#CED4DA"/>
<path d="M177.573 241.374C180.967 241.374 182.705 239.663 182.705 237.123C182.705 234.155 180.673 233.513 177.787 232.978C175.221 232.524 174.526 232.016 174.526 230.759C174.526 229.556 175.568 228.754 177.172 228.754C178.936 228.754 179.791 229.422 180.112 230.946H182.25C181.876 227.925 179.711 226.909 177.199 226.909C175.007 226.909 172.468 228.246 172.468 230.839C172.468 233.272 173.697 234.289 177.332 234.957C179.497 235.358 180.593 235.839 180.593 237.31C180.593 238.807 179.658 239.529 177.546 239.529C175.301 239.529 174.419 238.486 174.258 236.829H172.093C172.227 239.69 174.232 241.374 177.573 241.374Z" fill="#CED4DA"/>
<path d="M192.036 241.134H194.255V229.021H197.676V227.149H194.255V224.636C194.255 223.219 194.843 222.229 196.286 222.229C196.901 222.229 197.462 222.363 197.863 222.524V220.652C197.302 220.465 196.928 220.384 196.206 220.384C193.426 220.384 192.036 222.042 192.036 224.877V227.149H190.032V229.021H192.036V241.134Z" fill="#CED4DA"/>
<path d="M203.448 239.609C201.497 239.609 200.802 238.7 200.802 237.256C200.802 235.198 202.86 234.502 205.666 234.502H207.591V236.24C207.591 238.406 205.8 239.609 203.448 239.609ZM203.234 241.374C205.292 241.374 206.548 240.679 207.591 239.369V241.134H209.809V231.909C209.809 228.005 207.377 226.909 204.704 226.909C202.004 226.909 199.465 228.085 199.171 231.267H201.39C201.603 229.556 202.673 228.754 204.597 228.754C206.735 228.754 207.591 229.689 207.591 231.909V232.925H205.586C202.004 232.925 198.583 234.021 198.583 237.256C198.583 240.118 200.641 241.374 203.234 241.374Z" fill="#CED4DA"/>
<path d="M217.695 241.374C221.09 241.374 222.827 239.663 222.827 237.123C222.827 234.155 220.796 233.513 217.909 232.978C215.343 232.524 214.648 232.016 214.648 230.759C214.648 229.556 215.691 228.754 217.294 228.754C219.058 228.754 219.914 229.422 220.234 230.946H222.373C221.999 227.925 219.833 226.909 217.321 226.909C215.129 226.909 212.59 228.246 212.59 230.839C212.59 233.272 213.82 234.289 217.455 234.957C219.62 235.358 220.716 235.839 220.716 237.31C220.716 238.807 219.78 239.529 217.668 239.529C215.423 239.529 214.541 238.486 214.381 236.829H212.216C212.349 239.69 214.354 241.374 217.695 241.374Z" fill="#CED4DA"/>
<path d="M229.655 241.321C230.564 241.321 231.099 241.187 231.553 241.027V239.155C231.072 239.342 230.538 239.449 229.843 239.449C228.72 239.449 228.105 238.781 228.105 237.417V229.021H231.366V227.149H228.105V223.967H225.887V227.149H223.882V229.021H225.887V237.631C225.887 239.823 227.116 241.321 229.655 241.321Z" fill="#CED4DA"/>
<path d="M239.825 241.374C242.979 241.374 245.304 239.904 245.785 237.096H243.567C243.273 238.727 242.017 239.529 239.852 239.529C236.992 239.529 235.468 237.765 235.361 234.583H245.892V233.861C245.892 228.861 242.845 226.909 239.611 226.909C235.762 226.909 233.063 229.85 233.063 234.075V234.289C233.063 238.593 235.869 241.374 239.825 241.374ZM235.441 232.791C235.816 230.304 237.339 228.754 239.611 228.754C241.91 228.754 243.407 229.903 243.62 232.791H235.441Z" fill="#CED4DA"/>
<path d="M248.495 241.134H250.713V233.46C250.713 230.01 252.504 229.128 255.31 228.994V226.909C252.798 226.989 251.595 228.085 250.713 229.663V227.149H248.495V241.134Z" fill="#CED4DA"/>
<path d="M257.673 241.267C258.609 241.267 259.384 240.519 259.384 239.556C259.384 238.593 258.609 237.845 257.673 237.845C256.738 237.845 255.963 238.593 255.963 239.556C255.963 240.519 256.738 241.267 257.673 241.267Z" fill="#CED4DA"/>
<path d="M41.4202 132.872C66.4449 132.872 82.3226 123.209 82.3226 101.811C82.3226 82.4845 70.2417 75.9271 45.217 72.821C34.1716 71.4405 30.0296 69.7149 30.0296 65.4009C30.0296 61.2594 33.4813 58.3258 40.2121 58.3258C47.288 58.3258 50.5671 61.2594 51.7752 67.299H79.7338C77.6628 45.7288 62.1303 38.1361 39.8669 38.1361C18.9842 38.1361 1.20809 47.7996 1.20809 67.8167C1.20809 86.6259 11.3905 93.701 35.5523 96.8071C47.9784 98.5327 52.293 100.603 52.293 104.917C52.293 109.404 48.8413 112.338 41.2476 112.338C32.4458 112.338 29.5119 108.714 28.4764 102.156H0C0.690336 122.174 15.7051 132.872 41.4202 132.872Z" fill="#CED4DA"/>
<path d="M88.219 130.802H119.112V80.2412C119.112 68.6795 125.325 63.1576 134.472 63.1576C143.446 63.1576 147.415 68.1618 147.415 78.343V130.802H178.308V72.1308C178.308 49.0075 166.227 38.1361 148.796 38.1361C133.781 38.1361 123.944 45.7288 119.112 55.0472V0.862808H88.219V130.802Z" fill="#CED4DA"/>
<path d="M201.522 31.9239C211.186 31.9239 218.607 25.194 218.607 16.0482C218.607 6.90246 211.186 0 201.522 0C191.857 0 184.608 6.90246 184.608 16.0482C184.608 25.194 191.857 31.9239 201.522 31.9239ZM186.162 130.802H217.054V40.552H186.162V130.802Z" fill="#CED4DA"/>
<path d="M272.814 109.232C261.596 109.232 254.865 101.466 254.865 86.1082V84.7278C254.865 69.5423 261.596 61.4319 272.814 61.4319C283.686 61.4319 290.59 69.0247 290.59 84.9003V86.2808C290.59 101.121 284.377 109.232 272.814 109.232ZM224.835 161H255.728V117.514C260.215 126.488 270.052 132.872 283.686 132.872C304.914 132.872 322 117.342 322 86.2808V84.9003C322 54.0118 304.914 38.1361 283.859 38.1361C270.225 38.1361 260.905 45.3837 255.728 54.0118V40.552H224.835V161Z" fill="#CED4DA"/>
</svg>
