<svg width="16" height="16" viewBox="0 0 16 16" fill="none" xmlns="http://www.w3.org/2000/svg">
    <path d="M9.05975 4.94687L5.78429 8.44025C5.58382 8.65406 5.47119 8.94405 5.47119 9.24642C5.47119 9.54879 5.58382 9.83877 5.78429 10.0526C5.98476 10.2664 6.25665 10.3865 6.54016 10.3865C6.82367 10.3865 7.09557 10.2664 7.29604 10.0526L10.5715 6.5592C10.9724 6.13158 11.1977 5.55161 11.1977 4.94687C11.1977 4.34213 10.9724 3.76215 10.5715 3.33454C10.1706 2.90692 9.62677 2.66669 9.05975 2.66669C8.49273 2.66669 7.94894 2.90692 7.548 3.33454L4.27253 6.82792C3.67112 7.46934 3.33325 8.3393 3.33325 9.24642C3.33325 10.1535 3.67112 11.0235 4.27253 11.6649C4.87395 12.3063 5.68964 12.6667 6.54016 12.6667C7.39069 12.6667 8.20638 12.3063 8.80779 11.6649L12.0833 8.17153" stroke="currentColor" stroke-linecap="round" stroke-linejoin="round"/>
</svg>
