<svg width="24" height="24" fill="none" xmlns="http://www.w3.org/2000/svg">
  <path fill-rule="evenodd" clip-rule="evenodd" d="M12 23c6.075 0 11-4.925 11-11S18.075 1 12 1 1 5.925 1 12s4.925 11 11 11zM9.787 7.89a1.343 1.343 0 00-1.894 0 1.334 1.334 0 000 1.892l2.21 2.195-2.21 2.194a1.334 1.334 0 000 1.892c.524.52 1.371.52 1.894 0L12 13.865l2.213 2.198c.523.52 1.37.52 1.894 0a1.334 1.334 0 000-1.892l-2.21-2.194 2.21-2.195a1.334 1.334 0 000-1.891 1.343 1.343 0 00-1.894 0L12 10.088 9.787 7.891z" fill="currentColor"/>
</svg>
