<svg width="18" height="18" viewBox="0 0 18 18" fill="none" xmlns="http://www.w3.org/2000/svg">
<path fill-rule="evenodd" clip-rule="evenodd" d="M6.00002 2.4V1.2H12V2.4H6.00002ZM5.70002 0C5.20297 0 4.80002 0.402943 4.80002 0.9V1.2H4.20002C3.20591 1.2 2.40002 2.00588 2.40002 3V15C2.40002 15.9941 3.20591 16.8 4.20002 16.8H13.8C14.7941 16.8 15.6 15.9941 15.6 15V3C15.6 2.00588 14.7941 1.2 13.8 1.2H13.2V0.9C13.2 0.402943 12.7971 0 12.3 0H5.70002ZM13.2 2.4V2.7C13.2 3.19705 12.7971 3.6 12.3 3.6H5.70002C5.20297 3.6 4.80002 3.19705 4.80002 2.7V2.4H4.20002C3.86866 2.4 3.60002 2.66863 3.60002 3V15C3.60002 15.3313 3.86866 15.6 4.20002 15.6H13.8C14.1313 15.6 14.4 15.3313 14.4 15V3C14.4 2.66863 14.1313 2.4 13.8 2.4H13.2Z" fill="#6D747B"/>
</svg>
