<svg viewBox="0 0 170 130" version="1.1" xmlns:xlink="http://www.w3.org/1999/xlink">
  <g id="Canvas" transform="translate(0 0)">
    <use xlink:href="#ship-huge-rocket10_fill" transform="translate(0 0)" fill="#00B784"></use>
    <use xlink:href="#ship-huge-rocket27_stroke" transform="translate(56 31)" fill="#FFFFFF"></use>
  </g>
  <defs>
    <path id="ship-huge-rocket10_fill" fill-rule="evenodd" d="M 0.0519778 48.7284L 0 73.1479L 82.9517 122L 165.948 73.2724L 166 48.8529L 83.0475 0L 0.0519778 48.7284Z"></path>
    <path id="ship-huge-rocket27_stroke" d="M 23.7444 50.9679C 24.9709 53.1295 27.7174 53.8876 29.879 52.6611C 32.0406 51.4347 32.7987 48.6881 31.5722 46.5266L 23.7444 50.9679ZM 0 0L 1.20608 -4.33536C -0.549007 -4.82362 -2.42533 -4.20553 -3.54661 -2.76975C -4.6679 -1.33397 -4.8129 0.636209 -3.9139 2.22068L 0 0ZM 69.7109 19.3933L 70.0513 23.8805C 72.2306 23.7151 73.9759 22.0079 74.1894 19.8328C 74.4028 17.6577 73.0225 15.6437 70.917 15.058L 69.7109 19.3933ZM 12.909 19.1898C 10.4308 19.3778 8.57429 21.5391 8.7623 24.0173C 8.95031 26.4955 11.1117 28.352 13.5898 28.164L 12.909 19.1898ZM 31.5722 46.5266L 3.9139 -2.22068L -3.9139 2.22068L 23.7444 50.9679L 31.5722 46.5266ZM -1.20608 4.33536L 68.5048 23.7287L 70.917 15.058L 1.20608 -4.33536L -1.20608 4.33536ZM 69.3705 14.9062L 12.909 19.1898L 13.5898 28.164L 70.0513 23.8805L 69.3705 14.9062Z"></path>
  </defs>
</svg>
