<svg viewBox="0 0 170 130" version="1.1" xmlns:xlink="http://www.w3.org/1999/xlink">
  <g id="Canvas" transform="translate(0 0)">
    <use xlink:href="#ship-huge-rocket10_fill" transform="translate(0 0)" fill="#FF8383"></use>
    <mask id="mask6_outline" mask-type="alpha">
      <use xlink:href="#ship-huge-rocket58_fill" transform="translate(40.17 24.1)" fill="#FFFFFF"></use>
    </mask>
    <g mask="url(#mask6_outline)">
      <use xlink:href="#ship-huge-rocket59_fill" transform="translate(40.17 24.1)" fill="#FFFFFF"></use>
    </g>

    <use xlink:href="#ship-huge-rocket60_fill" transform="translate(77.11 59.94)" fill="#FFFFFF"></use>
    <use xlink:href="#ship-huge-rocket61_fill" transform="translate(76.13 59.35)" fill="#FFFFFF"></use>
    <use xlink:href="#ship-huge-rocket60_fill" transform="translate(99.11 46.16)" fill="#FFFFFF"></use>
    <use xlink:href="#ship-huge-rocket62_fill" transform="translate(98.13 45.57)" fill="#FFFFFF"></use>
    <use xlink:href="#ship-huge-rocket63_fill" transform="translate(39.04 45.46)" fill="#FFFFFF"></use>
    <use xlink:href="#ship-huge-rocket64_fill" transform="translate(34 42.55)" fill="#FFFFFF"></use>
    <use xlink:href="#ship-huge-rocket65_fill" transform="translate(73.44 23.92)" fill="#FFFFFF"></use>
    <mask id="mask7_outline" mask-type="alpha">
      <use xlink:href="#ship-huge-rocket66_fill" transform="translate(68.41 21)" fill="#FFFFFF"></use>
    </mask>
    <g mask="url(#mask7_outline)">
      <use xlink:href="#ship-huge-rocket67_fill" transform="translate(68.41 21)" fill="#FFFFFF"></use>
    </g>
  </g>
  <defs>
    <path id="ship-huge-rocket10_fill" fill-rule="evenodd" d="M 0.0519778 48.7284L 0 73.1479L 82.9517 122L 165.948 73.2724L 166 48.8529L 83.0475 0L 0.0519778 48.7284Z"></path>
    <path id="ship-huge-rocket58_fill" fill-rule="evenodd" d="M 0 0L 94.2965 0L 94.2965 57.2063L 0 57.2063L 0 0Z"></path>
    <path id="ship-huge-rocket59_fill" fill-rule="evenodd" d="M 24.9236 34.5692C 20.8606 37.1142 20.9716 41.1652 25.1726 43.5982L 31.7536 47.4112C 35.9546 49.8442 42.6786 49.7532 46.7426 47.2082L 77.9956 27.6322C 82.0596 25.0872 81.9476 21.0362 77.7466 18.6022L 71.1656 14.7902C 66.9646 12.3572 60.2406 12.4482 56.1766 14.9932L 24.9236 34.5692ZM 87.5766 33.1822L 56.3236 52.7582C 47.1496 58.5052 31.9696 58.7112 22.4856 53.2162L 7.28056 44.4092C -2.20344 38.9152 -2.45444 29.7712 6.71956 24.0242L 37.9726 4.44818C 47.1476 -1.29882 62.3266 -1.50382 71.8116 3.98918L 87.0156 12.7972C 96.4996 18.2912 96.7516 27.4352 87.5766 33.1822L 87.5766 33.1822Z"></path>
    <path id="ship-huge-rocket60_fill" fill-rule="evenodd" d="M 9.29934 5.48466L 9.29934 5.48466C 7.68934 6.49266 5.00934 6.52966 3.34534 5.56566L 1.27834 4.36766C -0.386656 3.40266 -0.430656 1.78966 1.17834 0.780662C 2.78934 -0.227338 5.46834 -0.264338 7.13234 0.699662L 9.20034 1.89766C 10.8643 2.86166 10.9093 4.47566 9.29934 5.48466"></path>
    <path id="ship-huge-rocket61_fill" fill-rule="evenodd" d="M 2.8616 1.77824C 1.6226 2.55424 1.6556 3.79024 2.9376 4.53224L 5.0056 5.73024C 6.2866 6.47224 8.3376 6.44524 9.5766 5.66824C 10.8166 4.89124 10.7826 3.65624 9.5016 2.91424L 7.4336 1.71624C 6.1526 0.97424 4.1016 1.00224 2.8616 1.77824L 2.8616 1.77824ZM 10.9826 6.4823C 8.9926 7.7283 5.7026 7.7723 3.6466 6.5813L 1.5786 5.3833C -0.477399 4.1923 -0.532399 2.2103 1.4566 0.964298C 3.4456 -0.281702 6.7366 -0.325702 8.7926 0.864298L 10.8606 2.0633C 12.9166 3.2543 12.9706 5.2363 10.9826 6.4823L 10.9826 6.4823Z"></path>
    <path id="ship-huge-rocket62_fill" fill-rule="evenodd" d="M 2.8616 1.778C 1.6216 2.555 1.6556 3.79 2.9376 4.532L 5.0056 5.731C 6.2866 6.473 8.3376 6.445 9.5776 5.668C 10.8166 4.892 10.7826 3.656 9.5016 2.914L 7.4336 1.716C 6.1526 0.973996 4.1016 1.002 2.8616 1.778L 2.8616 1.778ZM 10.9826 6.48205C 8.9926 7.72805 5.7026 7.77305 3.6466 6.58205L 1.5786 5.38405C -0.477399 4.19305 -0.532399 2.21005 1.4566 0.965047C 3.4456 -0.281953 6.7366 -0.325953 8.7926 0.865047L 10.8606 2.06305C 12.9166 3.25405 12.9706 5.23605 10.9826 6.48205L 10.9826 6.48205Z"></path>
    <path id="ship-huge-rocket63_fill" fill-rule="evenodd" d="M 0 0L 5.333 11.222L 18.823 2.771L 0 0Z"></path>
    <path id="ship-huge-rocket64_fill" fill-rule="evenodd" d="M 12.067 10.038L 17.124 6.87103L 10.068 5.83203L 12.067 10.038ZM 30.593 4.503L 8.667 18.237L 0 0L 30.593 4.503Z"></path>
    <path id="ship-huge-rocket65_fill" fill-rule="evenodd" d="M 0 0L 5.332 11.221L 18.823 2.771L 0 0Z"></path>
    <path id="ship-huge-rocket66_fill" fill-rule="evenodd" d="M 0 0L 30.592 0L 30.592 18.2369L 0 18.2369L 0 0Z"></path>
    <path id="ship-huge-rocket67_fill" fill-rule="evenodd" d="M 12.067 10.038L 17.124 6.87103L 10.068 5.83203L 12.067 10.038ZM 30.592 4.504L 8.667 18.237L 0 0L 30.592 4.504Z"></path>
  </defs>
</svg>
