<svg viewBox="0 0 170 130" version="1.1" xmlns:xlink="http://www.w3.org/1999/xlink">
  <g id="Canvas" transform="translate(0 0)">
    <use xlink:href="#ship-huge-rocket18_fill" transform="translate(0 0)" fill="#00BDA0"></use>
    <use xlink:href="#ship-huge-rocket19_fill" transform="translate(50 23)" fill="#FFFFFF"></use>
    <use xlink:href="#ship-huge-rocket20_fill" transform="translate(41 46)" fill="#FFFFFF"></use>
    <use xlink:href="#ship-huge-rocket21_fill" transform="translate(56 64)" fill="#FFFFFF"></use>
    <use xlink:href="#ship-huge-rocket22_fill" transform="translate(88 69)" fill="#FFFFFF"></use>
    <use xlink:href="#ship-huge-rocket23_fill" transform="translate(109 54)" fill="#FFFFFF"></use>
    <use xlink:href="#ship-huge-rocket24_fill" transform="translate(105 42)" fill="#FFFFFF"></use>
    <use xlink:href="#ship-huge-rocket25_fill" transform="translate(51 31)" fill="#FFFFFF"></use>
    <use xlink:href="#ship-huge-rocket26_fill" transform="translate(73 22)" fill="#FFFFFF"></use>
  </g>
  <defs>
    <path id="ship-huge-rocket18_fill" fill-rule="evenodd" d="M 0.0519778 48.7276L 0 73.1471L 82.9517 122L 165.948 73.2716L 166 48.8521L 83.0475 0L 0.0519778 48.7276Z"></path>
    <path id="ship-huge-rocket19_fill" fill-rule="evenodd" d="M 47.3161 3.98611C 45.1813 4.66408 43.1119 5.29761 41.0982 5.98759C 39.0845 6.67697 37.1319 7.4282 35.2446 8.23708C 33.3549 9.03515 31.5336 9.91008 29.7865 10.8355C 28.0514 11.7909 26.3852 12.7841 24.834 13.8656C 21.7334 16.0148 19.0469 18.4745 17.1776 21.0794C 15.3251 23.7072 14.3425 26.3296 14.2993 28.8968C 14.2742 29.2445 14.3071 29.4901 14.3029 29.7621C 14.3449 30.0287 14.3461 30.2984 14.415 30.5668C 14.4479 30.837 14.5456 31.1055 14.6055 31.3805C 14.7127 31.6513 14.7828 31.9293 14.9188 32.2056C 15.0201 32.4854 15.1879 32.7604 15.3203 33.0445C 15.4988 33.3207 15.639 33.609 15.8481 33.8864C 16.216 34.4515 16.6857 35.0057 17.1932 35.551C 18.2243 36.6397 19.4897 37.6642 20.9204 38.5661C 22.3404 39.4813 23.9047 40.295 25.5727 40.9615C 28.9051 42.3151 32.5796 43.1269 36.3237 43.501C 37.2607 43.5941 38.2044 43.656 39.151 43.6836C 40.0964 43.7226 40.9838 43.707 41.8998 43.6728C 43.7122 43.5767 45.5162 43.3569 47.2514 42.9564C 50.7198 42.2118 54.0228 40.7904 56.3619 38.8453C 57.526 37.8785 58.4205 36.818 58.9741 35.7732C 59.2509 35.2489 59.4438 34.7283 59.5606 34.2016C 59.5798 34.0695 59.6044 33.9368 59.6337 33.8041C 59.6421 33.6696 59.6559 33.5357 59.6745 33.4C 59.6727 33.2865 59.6595 33.1946 59.6643 33.0895C 59.6529 32.988 59.708 32.8811 59.6637 32.7767C 59.5744 31.9534 59.1389 30.9133 58.2348 29.8516C 57.339 28.7965 56.0311 27.8003 54.5333 26.9998C 53.03 26.1987 51.3423 25.564 49.5742 25.0974C 47.8103 24.6338 45.9123 24.4122 44.0741 24.3258C 42.2707 24.2699 40.4529 24.4104 38.7322 24.823C 37.0175 25.2295 35.3854 25.8967 34.0673 26.789C 32.7696 27.6922 31.8002 28.7887 31.4593 29.9363C 31.3898 30.0786 31.3694 30.2269 31.349 30.3758C 31.3346 30.5158 31.2621 30.6947 31.2765 30.8082C 31.2843 30.9301 31.2466 31.0562 31.2585 31.1853C 31.2813 31.3126 31.2807 31.4447 31.2969 31.5823C 31.385 32.1257 31.6923 32.7418 32.1591 33.3381C 32.633 33.929 33.2381 34.5241 33.984 35.0075C 34.7156 35.5011 35.5238 35.9605 36.4075 36.3016C 38.148 37.0306 40.1348 37.4113 42.0898 37.523C 44.028 37.6011 46.0273 37.3147 47.7954 36.5172C 49.5407 35.7299 51.0864 34.3386 51.3363 32.4067L 51.3399 32.3779C 51.3824 32.0512 51.6808 31.8207 52.0073 31.8627C 52.2871 31.8993 52.4968 32.1263 52.5226 32.3971C 52.643 33.6348 52.2889 34.9367 51.6203 35.9966C 50.957 37.0678 50.0469 37.9416 49.0512 38.649C 48.0506 39.3564 46.9548 39.904 45.8158 40.328C 44.6733 40.7465 43.4834 40.9993 42.2779 41.1639C 39.879 41.4479 37.4608 41.3729 35.0331 40.7928C 32.621 40.2259 30.1789 39.2086 28.0759 37.2576C 27.0388 36.2836 26.0748 35.0502 25.4888 33.5045C 25.3498 33.1189 25.2402 32.7136 25.1288 32.3113C 25.0269 31.9065 24.991 31.4808 24.9376 31.0598C 24.8777 30.6287 24.9233 30.2617 24.9221 29.8564C 24.9275 29.4583 24.9472 29.0613 25.0287 28.6752C 25.2312 27.0845 25.8735 25.6391 26.6314 24.3528L 27.2449 23.4214C 27.4606 23.1248 27.6967 22.8581 27.9267 22.5765C 28.3791 21.9958 28.9003 21.5472 29.4042 21.0452C 31.4892 19.1885 33.8648 17.9364 36.3015 17.0315C 38.746 16.1403 41.2827 15.6119 43.8381 15.4419C 48.8271 15.1303 53.918 15.7188 58.8363 17.8067C 61.2826 18.8558 63.6965 20.2742 65.8636 22.3399C 66.3962 22.8762 66.9402 23.3824 67.4184 24.0225L 68.1457 24.9509C 68.3788 25.2728 68.5867 25.6349 68.8006 25.9814C 69.0061 26.3387 69.2295 26.6755 69.4087 27.0569C 69.5836 27.4436 69.7538 27.8345 69.9186 28.2278L 70.1606 28.8193C 70.2355 29.0199 70.287 29.2361 70.3487 29.4451C 70.4668 29.8666 70.5776 30.2918 70.6819 30.7181C 70.867 31.5726 70.9311 32.4818 71 33.3537L 70.991 34.589L 70.8892 35.8218C 70.6944 37.4606 70.2583 39.0555 69.646 40.5274C 68.4135 43.48 66.5406 45.9241 64.4604 47.8721C 62.3748 49.8298 60.0843 51.358 57.7195 52.5939C 55.3499 53.8195 52.9006 54.7623 50.41 55.4499C 47.9176 56.1386 45.388 56.565 42.8519 56.8082C 41.5907 56.9163 40.2966 56.9902 39.0599 56.995C 37.8251 57.0118 36.5873 56.9866 35.3489 56.9187C 30.3928 56.6557 25.4301 55.6757 20.6071 53.9042C 15.8038 52.1051 11.067 49.4989 7.03958 45.3842C 6.04141 44.3502 5.08219 43.241 4.22362 41.9968C 3.77966 41.3957 3.38902 40.7261 2.9894 40.0758C 2.62033 39.3888 2.24227 38.715 1.93072 37.9806C 1.59341 37.2696 1.32859 36.5052 1.05778 35.7503C 0.828906 34.9715 0.590449 34.1974 0.441263 33.3874C 0.258526 32.5899 0.170453 31.7666 0.075789 30.9493C 0.0242631 30.129 -0.0272628 29.2823 0.0164743 28.5371C 0.0907675 25.4619 0.764798 22.3897 1.95529 19.6605C 3.129 16.918 4.7299 14.4793 6.55907 12.3932C 10.2402 8.22206 14.7062 5.37388 19.2902 3.41623C 23.8897 1.45859 28.6787 0.423926 33.4101 0.0996538C 38.1438 -0.209005 42.8477 0.188528 47.3071 1.44358C 48.0081 1.64115 48.4167 2.37076 48.2196 3.07335C 48.0961 3.51532 47.7624 3.84139 47.3568 3.9735L 47.3161 3.98611Z"></path>
    <path id="ship-huge-rocket20_fill" fill-rule="evenodd" d="M 20 6.5L 9.99971 13L 0 6.5L 9.99971 0L 20 6.5Z"></path>
    <path id="ship-huge-rocket21_fill" fill-rule="evenodd" d="M 17.1917 0.878724L 22 11.902L 1.71383 13L 0 0L 17.1917 0.878724Z"></path>
    <path id="ship-huge-rocket22_fill" fill-rule="evenodd" d="M 6.90831 0L 21 3.62745L 14.3805 13L 0 8.68611L 6.90831 0Z"></path>
    <path id="ship-huge-rocket23_fill" fill-rule="evenodd" d="M 0 5.45871L 11.4597 0L 20 7.7143L 7.53524 13L 0 5.45871Z"></path>
    <path id="ship-huge-rocket24_fill" fill-rule="evenodd" d="M 0.89514 7.83177L 0 0.197547L 11.7112 0L 12 8L 0.89514 7.83177Z"></path>
    <path id="ship-huge-rocket25_fill" fill-rule="evenodd" d="M 16 9.74644L 1.82304 11L 0 1.25293L 14.177 0L 16 9.74644Z"></path>
    <path id="ship-huge-rocket26_fill" fill-rule="evenodd" d="M 7.91625 8L 0 5.27752L 4.08375 0L 12 2.72248L 7.91625 8Z"></path>
  </defs>
</svg>
