<svg viewBox="0 0 170 130" version="1.1" xmlns:xlink="http://www.w3.org/1999/xlink">
  <g id="Canvas" transform="translate(0 0)">
    <use xlink:href="#ship-huge-rocket10_fill" transform="translate(0 0)" fill="#ACBA29"></use>
    <use xlink:href="#ship-huge-rocket38_stroke" transform="translate(47 30)" fill="#FFFFFF"></use>
    <use xlink:href="#ship-huge-rocket39_stroke" transform="translate(58.36 23.19)" fill="#FFFFFF"></use>
    <use xlink:href="#ship-huge-rocket40_stroke" transform="translate(36.62 37.27)" fill="#FFFFFF"></use>
    <use xlink:href="#ship-huge-rocket41_fill" transform="translate(76 49)" fill="#FFFFFF"></use>
  </g>
  <defs>
    <path id="ship-huge-rocket10_fill" fill-rule="evenodd" d="M 0.0519778 48.7284L 0 73.1479L 82.9517 122L 165.948 73.2724L 166 48.8529L 83.0475 0L 0.0519778 48.7284Z"></path>
    <path id="ship-huge-rocket38_stroke" d="M 2.13642 45.5446L -0.331665 45.9428L -0.0166745 47.8952L 1.95577 48.0381L 2.13642 45.5446ZM 22.225 47L 22.0443 49.4935L 22.8817 49.5541L 23.5859 49.0971L 22.225 47ZM 72 14.6973L 73.361 16.7944L 74.7275 15.9075L 74.4681 14.2992L 72 14.6973ZM 69.8644 1.45536L 72.3326 1.05732L 72.0177 -0.895188L 70.0451 -1.0381L 69.8644 1.45536ZM 49.7768 0L 49.9574 -2.49346L 49.1201 -2.55413L 48.4158 -2.09711L 49.7768 0ZM 0 32.3027L -1.36093 30.2056L -2.72758 31.0925L -2.46808 32.7009L 0 32.3027ZM 1.95577 48.0381L 22.0443 49.4935L 22.4056 44.5065L 2.31706 43.0512L 1.95577 48.0381ZM 23.5859 49.0971L 73.361 16.7944L 70.639 12.6002L 20.864 44.9029L 23.5859 49.0971ZM 74.4681 14.2992L 72.3326 1.05732L 67.3963 1.8534L 69.5319 15.0953L 74.4681 14.2992ZM 70.0451 -1.0381L 49.9574 -2.49346L 49.5961 2.49346L 69.6838 3.94883L 70.0451 -1.0381ZM 48.4158 -2.09711L -1.36093 30.2056L 1.36093 34.3998L 51.1377 2.09711L 48.4158 -2.09711ZM -2.46808 32.7009L -0.331665 45.9428L 4.6045 45.1464L 2.46808 31.9045L -2.46808 32.7009Z"></path>
    <path id="ship-huge-rocket39_stroke" d="M 37.3585 60.1408L 36.6637 62.5424L 37.9793 62.923L 39.0083 62.0192L 37.3585 60.1408ZM 49.356 49.6033L 51.0058 51.4817L 52.3567 50.2952L 51.6617 48.6369L 49.356 49.6033ZM 30.8518 5.45477L 33.1575 4.48839L 32.6953 3.38558L 31.5466 3.05326L 30.8518 5.45477ZM 11.9975 0L 12.6923 -2.40151L 11.3767 -2.78213L 10.3477 -1.87836L 11.9975 0ZM 0 10.5375L -1.64978 8.65918L -3.00069 9.84569L -2.30567 11.5039L 0 10.5375ZM 18.5042 54.6861L 16.1985 55.6525L 16.6608 56.7553L 17.8094 57.0876L 18.5042 54.6861ZM 39.0083 62.0192L 51.0058 51.4817L 47.7063 47.725L 35.7088 58.2625L 39.0083 62.0192ZM 51.6617 48.6369L 33.1575 4.48839L 28.5462 6.42116L 47.0504 50.5697L 51.6617 48.6369ZM 31.5466 3.05326L 12.6923 -2.40151L 11.3027 2.40151L 30.157 7.85629L 31.5466 3.05326ZM 10.3477 -1.87836L -1.64978 8.65918L 1.64978 12.4159L 13.6473 1.87836L 10.3477 -1.87836ZM -2.30567 11.5039L 16.1985 55.6525L 20.8099 53.7197L 2.30567 9.57115L -2.30567 11.5039ZM 17.8094 57.0876L 36.6637 62.5424L 38.0533 57.7393L 19.199 52.2846L 17.8094 57.0876Z"></path>
    <path id="ship-huge-rocket40_stroke" d="M 92.8375 24.2007L 93.9153 26.4564L 96.5583 25.1935L 94.8958 22.7818L 92.8375 24.2007ZM 76.5721 31.9726L 76.139 34.4348L 76.9275 34.5735L 77.6499 34.2283L 76.5721 31.9726ZM 8.42033 19.9857L 6.36202 21.4046L 6.9562 22.2665L 7.98726 22.4479L 8.42033 19.9857ZM 0 7.77106L -1.07768 5.51526L -3.721 6.77808L -2.05831 9.18998L 0 7.77106ZM 16.2663 0L 16.6994 -2.4622L 15.911 -2.60088L 15.1886 -2.25579L 16.2663 0ZM 84.418 11.9869L 86.4764 10.568L 85.8822 9.70608L 84.8511 9.52473L 84.418 11.9869ZM 91.7597 21.945L 75.4942 29.7169L 77.6499 34.2283L 93.9153 26.4564L 91.7597 21.945ZM 77.0051 29.5104L 8.8534 17.5235L 7.98726 22.4479L 76.139 34.4348L 77.0051 29.5104ZM 10.4786 18.5667L 2.05831 6.35213L -2.05831 9.18998L 6.36202 21.4046L 10.4786 18.5667ZM 1.07768 10.0268L 17.344 2.25579L 15.1886 -2.25579L -1.07768 5.51526L 1.07768 10.0268ZM 15.8332 2.4622L 83.985 14.4491L 84.8511 9.52473L 16.6994 -2.4622L 15.8332 2.4622ZM 82.3597 13.4058L 90.7792 25.6196L 94.8958 22.7818L 86.4764 10.568L 82.3597 13.4058Z"></path>
    <path id="ship-huge-rocket41_fill" fill-rule="evenodd" d="M 5.12438 0L 0 3.29424L 1.87604 7.79382L 8.87562 9L 14 5.70576L 12.124 1.20618L 5.12438 0Z"></path>
  </defs>
</svg>
