<svg viewBox="0 0 170 130" version="1.1" xmlns:xlink="http://www.w3.org/1999/xlink">
  <g id="Canvas" transform="translate(0 0)">
    <use xlink:href="#ship-huge-rocket10_fill" transform="translate(0 0)" fill="#EFBE00"></use>
    <use xlink:href="#ship-huge-rocket42_fill" transform="translate(41.8 25.5)" fill="#FFFFFF"></use>
    <mask id="mask2_outline" mask-type="alpha">
      <use xlink:href="#ship-huge-rocket43_fill" transform="translate(55.04 18.92)" fill="#FFFFFF"></use>
    </mask>
    <mask id="mask3_outline" mask-type="alpha">
      <use xlink:href="#ship-huge-rocket45_fill" transform="translate(32 34.38)" fill="#FFFFFF"></use>
    </mask>
    <g mask="url(#mask2_outline)">
      <use xlink:href="#ship-huge-rocket44_fill" transform="translate(55.04 18.92)" fill="#FFFFFF"></use>
    </g>
    <g mask="url(#mask3_outline)">
      <use xlink:href="#ship-huge-rocket46_fill" transform="translate(32 34.38)" fill="#FFFFFF"></use>
    </g>
    <use xlink:href="#ship-huge-rocket47_fill" transform="translate(74.69 47.57)" fill="#FFFFFF"></use>
  </g>
  <defs>
    <path id="ship-huge-rocket10_fill" fill-rule="evenodd" d="M 0.0519778 48.7284L 0 73.1479L 82.9517 122L 165.948 73.2724L 166 48.8529L 83.0475 0L 0.0519778 48.7284Z"></path>
    <path id="ship-huge-rocket42_fill" fill-rule="evenodd" d="M 27.2221 18.2721C 7.21813 31.6992 1.16013 45.6706 8.05113 50.2962C 14.9421 54.9217 35.7581 50.8552 55.7621 37.4281C 75.7651 24.0019 81.8241 10.0296 74.9331 5.40405C 68.0421 0.778521 47.2251 4.84497 27.2221 18.2721L 27.2221 18.2721ZM 59.5371 39.9629C 38.6681 53.9703 14.3941 59.6228 4.27513 52.8309C -5.84387 46.0382 2.57713 29.7457 23.4461 15.7383C 44.3151 1.73002 68.5901 -3.92248 78.7091 2.86936C 88.8281 9.6612 80.4071 25.9546 59.5371 39.9629L 59.5371 39.9629Z"></path>
    <path id="ship-huge-rocket43_fill" fill-rule="evenodd" d="M 0 0L 56.5191 0L 56.5191 68.8551L 0 68.8551L 0 0Z"></path>
    <path id="ship-huge-rocket44_fill" fill-rule="evenodd" d="M 12.0032 5.39422C 9.25318 7.24001 7.19618 10.4305 6.14118 14.6278C 4.47718 21.2474 5.40918 29.524 8.76618 37.9341C 16.0872 56.275 31.0862 66.7824 40.5002 65.0904C 45.2572 64.2338 48.8582 60.2751 50.3782 54.2284C 52.0422 47.6088 51.1092 39.3313 47.7532 30.9221C 40.4312 12.5803 25.4332 2.0729 16.0192 3.7658C 14.5632 4.02738 13.2152 4.58001 12.0032 5.39422L 12.0032 5.39422ZM 48.3032 66.0041C 46.4332 67.2585 44.2812 68.1206 41.8812 68.5517C 28.0592 71.0376 11.2472 57.9964 3.60819 38.8606C 0.0571852 29.9651 -0.912815 21.1479 0.876185 14.0309C 2.78519 6.43129 7.67218 1.55616 14.6372 0.303526C 28.4602 -2.1824 45.2722 10.8588 52.9102 29.9937C 56.4612 38.8901 57.4322 47.7083 55.6432 54.8243C 54.3912 59.8054 51.8592 63.6167 48.3032 66.0041L 48.3032 66.0041Z"></path>
    <path id="ship-huge-rocket45_fill" fill-rule="evenodd" d="M 0 0L 102.583 0L 102.583 37.9369L 0 37.9369L 0 0Z"></path>
    <path id="ship-huge-rocket46_fill" fill-rule="evenodd" d="M 8.03628 8.05708C 6.82328 8.87129 6.00028 9.77576 5.61028 10.753C 3.08728 17.0714 18.7433 27.1385 46.0683 32.0523C 58.5973 34.3062 70.9283 34.9316 80.7913 33.8143C 89.8003 32.7947 95.6993 30.3769 96.9733 27.1846C 99.4953 20.8652 83.8403 10.799 56.5153 5.88431C 43.9863 3.63142 31.6553 3.00602 21.7923 4.12234C 15.5403 4.83063 10.7863 6.21129 8.03628 8.05708L 8.03628 8.05708ZM 98.3343 32.4226C 94.7783 34.809 89.1013 36.5084 81.6793 37.3493C 71.0773 38.5494 57.9393 37.8982 44.6863 35.5146C 16.1783 30.388 -3.25172 19.1032 0.452276 9.82456C 2.31828 5.15114 9.58228 1.87035 20.9043 0.588248C 31.5063 -0.612804 44.6433 0.03838 57.8963 2.42206C 86.4053 7.54956 105.834 18.8343 102.131 28.1121C 101.488 29.7221 100.204 31.1672 98.3343 32.4226L 98.3343 32.4226Z"></path>
    <path id="ship-huge-rocket47_fill" fill-rule="evenodd" d="M 14.6927 1.69243C 18.0538 3.94809 18.0538 7.60651 14.6927 9.86217C 11.3317 12.1188 5.88175 12.1188 2.52075 9.86217C -0.84025 7.60651 -0.84025 3.94809 2.52075 1.69243C 5.88175 -0.564145 11.3317 -0.564145 14.6927 1.69243"></path>
  </defs>
</svg>
