<svg viewBox="0 0 170 130" version="1.1" xmlns:xlink="http://www.w3.org/1999/xlink">
  <g id="Canvas" transform="translate(0 0)">
    <use xlink:href="#ship-huge-rocket10_fill" transform="translate(0 0)" fill="#FFB900"></use>
    <use xlink:href="#ship-huge-rocket48_fill" transform="translate(29 45.94)" fill="#FFFFFF"></use>
    <use xlink:href="#ship-huge-rocket50_fill" transform="translate(70.95 18)" fill="#FFFFFF"></use>
    <use xlink:href="#ship-huge-rocket51_fill" transform="translate(64.36 56.88)" fill="#FFFFFF"></use>
    <use xlink:href="#ship-huge-rocket52_fill" transform="translate(61.9 48.44)" fill="#FFFFFF"></use>
    <use xlink:href="#ship-huge-rocket51_fill" transform="translate(87.21 40.01)" fill="#FFFFFF"></use>
  </g>
  <defs>
    <path id="ship-huge-rocket10_fill" fill-rule="evenodd" d="M 0.0519778 48.7284L 0 73.1479L 82.9517 122L 165.948 73.2724L 166 48.8529L 83.0475 0L 0.0519778 48.7284Z"></path>
    <path id="ship-huge-rocket48_fill" fill-rule="evenodd" d="M 16.7004 28.444C 21.7234 25.095 19.6704 22.784 17.1924 21.133C 15.2134 19.814 12.9504 18.68 10.6854 17.547C 8.42138 16.414 6.22638 15.331 4.24438 14.01C -2.26262 9.672 -0.776615 5.001 5.23838 0.991L 6.72438 0L 10.6164 2.594L 9.34338 3.443C 5.16638 6.228 6.01639 8.68 9.83539 11.227C 11.4634 12.312 13.3734 13.301 15.3554 14.246C 17.4064 15.237 19.3184 16.228 21.2284 17.501C 25.8284 20.472 26.1114 23.303 23.7754 25.99L 23.9194 26.086C 27.8794 24.482 32.2664 24.764 36.7234 27.831C 38.6334 29.105 40.1884 30.426 41.6054 31.747C 43.0924 33.115 44.5064 34.342 46.2034 35.473C 50.1674 38.116 53.9864 38.492 57.9504 35.849L 59.2234 35.001L 63.1154 37.595L 61.6294 38.586C 55.7554 42.502 48.8224 43.729 41.6754 38.965C 39.7654 37.691 38.0684 36.18 36.4414 34.718C 34.8134 33.257 33.1824 31.794 31.2734 30.52C 29.0804 29.059 25.3334 27.501 20.3094 30.85L 16.7004 28.444Z"></path>
    <path id="ship-huge-rocket49_fill" fill-rule="evenodd" d="M 0 0L 63.0585 0L 63.0585 42.0577L 0 42.0577L 0 0Z"></path>
    <path id="ship-huge-rocket50_fill" fill-rule="evenodd" d="M 46.274 13.5187C 41.251 16.8687 43.584 19.3687 45.776 20.8307C 47.686 22.1027 49.883 23.1887 52.076 24.2737C 54.268 25.3587 56.532 26.4917 58.442 27.7647C 65.588 32.5297 63.679 37.1987 57.877 41.0657L 56.391 42.0577L 52.499 39.4627L 53.703 38.6597C 57.595 35.9737 57.171 33.4247 53.208 30.7817C 51.511 29.6507 49.598 28.7557 47.619 27.7167C 45.635 26.7737 43.584 25.7827 41.674 24.5097C 37.146 21.4907 36.722 18.5657 39.058 15.9717L 38.914 15.8747C 34.954 17.3867 30.708 17.1987 26.179 14.1797C 24.269 12.9067 22.852 11.5847 21.369 10.2157C 19.879 8.94173 18.468 7.62073 16.84 6.53573C 13.021 3.98973 9.339 3.51673 5.165 6.20773L 3.892 7.05673L 0 4.46173L 1.415 3.51873C 7.429 -0.491268 14.504 -1.52827 21.011 2.81073C 22.993 4.13173 24.621 5.59273 26.32 7.10273C 28.02 8.61173 29.716 10.1227 31.695 11.4427C 34.173 13.0947 37.641 14.4617 42.665 11.1127L 46.274 13.5187Z"></path>
    <path id="ship-huge-rocket51_fill" fill-rule="evenodd" d="M 11.786 1.34775C 14.482 3.14575 14.482 6.05975 11.786 7.85775C 9.09 9.65475 4.719 9.65475 2.022 7.85775C -0.674 6.05975 -0.674 3.14575 2.022 1.34775C 4.719 -0.44925 9.09 -0.44925 11.786 1.34775"></path>
  </defs>
</svg>
