<svg viewBox="0 0 170 130" version="1.1" xmlns:xlink="http://www.w3.org/1999/xlink">
  <g id="Canvas" transform="translate(0 0)">
    <use xlink:href="#ship-huge-rocket18_fill" transform="translate(0 0)" fill="#FFA722"></use>
    <use xlink:href="#ship-huge-rocket54_fill" transform="translate(30 19)" fill="#FFFFFF"></use>
  </g>
  <defs>
    <path id="ship-huge-rocket18_fill" fill-rule="evenodd" d="M 0.0519778 48.7276L 0 73.1471L 82.9517 122L 165.948 73.2716L 166 48.8521L 83.0475 0L 0.0519778 48.7276Z"></path>
    <path id="ship-huge-rocket54_fill" fill-rule="evenodd" d="M 75.5925 26.138L 63.3695 32.894C 61.9375 33.743 60.1545 33.742 58.7235 32.891L 41.4065 22.641C 38.4375 20.876 38.4395 16.576 41.4115 14.814L 53.6345 8.058C 55.0665 7.209 56.8485 7.21 58.2805 8.061L 75.5975 18.311C 78.5665 20.076 78.5645 24.376 75.5925 26.138L 75.5925 26.138ZM 64.4285 50.092L 52.2055 56.848C 50.7725 57.698 48.9905 57.697 47.5585 56.846L 15.0595 38.182C 12.0905 36.417 12.0925 32.117 15.0645 30.356L 27.2865 23.599C 28.7195 22.75 30.5015 22.751 31.9335 23.602L 64.4325 42.265C 67.4025 44.03 67.4005 48.33 64.4285 50.092L 64.4285 50.092ZM 103.518 29.188L 55.6165 0.714001C 54.0165 -0.236999 52.0255 -0.237999 50.4245 0.711001L 2.4925 29.126C -0.828499 31.095 -0.831499 35.901 2.4875 37.873L 50.3875 66.347C 51.9885 67.299 53.9795 67.3 55.5805 66.35L 103.513 37.935C 106.834 35.966 106.837 31.16 103.518 29.188L 103.518 29.188Z"></path>
  </defs>
</svg>
