<svg width="510" height="510" viewBox="0 0 510 510" fill="none" xmlns="http://www.w3.org/2000/svg">
    <g clip-path="url(#clip0_1725_3886)">
        <rect width="510" height="510" fill="white"/>
        <path d="M0 -23.6341L510 -153V510H0V-23.6341Z" fill="black"/>
        <path d="M89.63 434.82C123.705 434.82 145.325 421.66 145.325 392.52C145.325 366.2 128.875 357.27 94.8 353.04C79.76 351.16 74.12 348.81 74.12 342.935C74.12 337.295 78.82 333.3 87.985 333.3C97.62 333.3 102.085 337.295 103.73 345.52H141.8C138.98 316.145 117.83 305.805 87.515 305.805C59.08 305.805 34.875 318.965 34.875 346.225C34.875 371.84 48.74 381.475 81.64 385.705C98.56 388.055 104.435 390.875 104.435 396.75C104.435 402.86 99.735 406.855 89.395 406.855C77.41 406.855 73.415 401.92 72.005 392.99H33.23C34.17 420.25 54.615 434.82 89.63 434.82ZM150.647 432H192.712V363.145C192.712 347.4 201.172 339.88 213.627 339.88C225.847 339.88 231.252 346.695 231.252 360.56V432H273.317V352.1C273.317 320.61 256.867 305.805 233.132 305.805C212.687 305.805 199.292 316.145 192.712 328.835V255.045H150.647V432ZM307.633 297.345C320.793 297.345 330.898 288.18 330.898 275.725C330.898 263.27 320.793 253.87 307.633 253.87C294.473 253.87 284.603 263.27 284.603 275.725C284.603 288.18 294.473 297.345 307.633 297.345ZM286.718 432H328.783V309.095H286.718V432ZM408.43 402.625C393.155 402.625 383.99 392.05 383.99 371.135V369.255C383.99 348.575 393.155 337.53 408.43 337.53C423.235 337.53 432.635 347.87 432.635 369.49V371.37C432.635 391.58 424.175 402.625 408.43 402.625ZM343.1 473.125H385.165V413.905C391.275 426.125 404.67 434.82 423.235 434.82C452.14 434.82 475.405 413.67 475.405 371.37V369.49C475.405 327.425 452.14 305.805 423.47 305.805C404.905 305.805 392.215 315.675 385.165 327.425V309.095H343.1V473.125Z" fill="white"/>
    </g>
    <defs>
        <clipPath id="clip0_1725_3886">
            <rect width="510" height="510" fill="white"/>
        </clipPath>
    </defs>
</svg>
